<svg width="30" height="35" viewBox="0 0 30 35" fill="none" xmlns="http://www.w3.org/2000/svg">
<path d="M2.5 11.2917C2.5 9.40607 2.5 8.46326 3.08579 7.87747C3.67157 7.29169 4.61438 7.29169 6.5 7.29169H23.5C25.3856 7.29169 26.3284 7.29169 26.9142 7.87747C27.5 8.46326 27.5 9.40607 27.5 11.2917V13.5834C27.5 14.0548 27.5 14.2905 27.3536 14.4369C27.2071 14.5834 26.9714 14.5834 26.5 14.5834H3.5C3.0286 14.5834 2.79289 14.5834 2.64645 14.4369C2.5 14.2905 2.5 14.0548 2.5 13.5834V11.2917Z" fill="#222222"/>
<path fill-rule="evenodd" clip-rule="evenodd" d="M2.5 28.0833C2.5 29.969 2.5 30.9118 3.08579 31.4975C3.67157 32.0833 4.61438 32.0833 6.5 32.0833H23.5C25.3856 32.0833 26.3284 32.0833 26.9142 31.4975C27.5 30.9118 27.5 29.969 27.5 28.0833V18.5C27.5 18.0286 27.5 17.7929 27.3536 17.6464C27.2071 17.5 26.9714 17.5 26.5 17.5H3.5C3.0286 17.5 2.79289 17.5 2.64645 17.6464C2.5 17.7929 2.5 18.0286 2.5 18.5V28.0833ZM8.75 21.4167C8.75 20.9453 8.75 20.7096 8.89645 20.5631C9.04289 20.4167 9.2786 20.4167 9.75 20.4167H12.75C13.2214 20.4167 13.4571 20.4167 13.6036 20.5631C13.75 20.7096 13.75 20.9453 13.75 21.4167V22.3333C13.75 22.8047 13.75 23.0404 13.6036 23.1869C13.4571 23.3333 13.2214 23.3333 12.75 23.3333H9.75C9.2786 23.3333 9.04289 23.3333 8.89645 23.1869C8.75 23.0404 8.75 22.8047 8.75 22.3333V21.4167ZM8.89645 26.3964C8.75 26.5429 8.75 26.7786 8.75 27.25V28.1667C8.75 28.6381 8.75 28.8738 8.89645 29.0202C9.04289 29.1667 9.2786 29.1667 9.75 29.1667H12.75C13.2214 29.1667 13.4571 29.1667 13.6036 29.0202C13.75 28.8738 13.75 28.6381 13.75 28.1667V27.25C13.75 26.7786 13.75 26.5429 13.6036 26.3964C13.4571 26.25 13.2214 26.25 12.75 26.25H9.75C9.2786 26.25 9.04289 26.25 8.89645 26.3964ZM16.25 21.4167C16.25 20.9453 16.25 20.7096 16.3964 20.5631C16.5429 20.4167 16.7786 20.4167 17.25 20.4167H20.25C20.7214 20.4167 20.9571 20.4167 21.1036 20.5631C21.25 20.7096 21.25 20.9453 21.25 21.4167V22.3333C21.25 22.8047 21.25 23.0404 21.1036 23.1869C20.9571 23.3333 20.7214 23.3333 20.25 23.3333H17.25C16.7786 23.3333 16.5429 23.3333 16.3964 23.1869C16.25 23.0404 16.25 22.8047 16.25 22.3333V21.4167ZM16.3964 26.3964C16.25 26.5429 16.25 26.7786 16.25 27.25V28.1667C16.25 28.6381 16.25 28.8738 16.3964 29.0202C16.5429 29.1667 16.7786 29.1667 17.25 29.1667H20.25C20.7214 29.1667 20.9571 29.1667 21.1036 29.0202C21.25 28.8738 21.25 28.6381 21.25 28.1667V27.25C21.25 26.7786 21.25 26.5429 21.1036 26.3964C20.9571 26.25 20.7214 26.25 20.25 26.25H17.25C16.7786 26.25 16.5429 26.25 16.3964 26.3964Z" fill="#222222"/>
<path d="M8.75 4.375L8.75 8.75" stroke="#222222" stroke-width="2" stroke-linecap="round"/>
<path d="M21.25 4.375L21.25 8.75" stroke="#222222" stroke-width="2" stroke-linecap="round"/>
</svg>
