<svg width="24" height="28" viewBox="0 0 24 28" fill="none" xmlns="http://www.w3.org/2000/svg">
<mask id="path-1-outside-1_34_186" maskUnits="userSpaceOnUse" x="2" y="10.6667" width="20" height="14" fill="black">
<rect fill="white" x="2" y="10.6667" width="20" height="14"/>
<path fill-rule="evenodd" clip-rule="evenodd" d="M6 23.3333H12H17.5C19.433 23.3333 21 21.7663 21 19.8333C21 17.9003 19.433 16.3333 17.5 16.3333C17.1532 16.3333 16.8607 16.0823 16.7704 15.7474C16.1326 13.3821 14.238 11.6667 12 11.6667C9.91553 11.6667 8.12897 13.1548 7.37831 15.2701C7.26307 15.5949 7.20545 15.7573 7.15742 15.8392C6.99096 16.123 6.8062 16.2535 6.48301 16.3155C6.38975 16.3333 6.25983 16.3333 6 16.3333C4.34315 16.3333 3 17.9003 3 19.8333C3 21.7663 4.34315 23.3333 6 23.3333Z"/>
</mask>
<path fill-rule="evenodd" clip-rule="evenodd" d="M6 23.3333H12H17.5C19.433 23.3333 21 21.7663 21 19.8333C21 17.9003 19.433 16.3333 17.5 16.3333C17.1532 16.3333 16.8607 16.0823 16.7704 15.7474C16.1326 13.3821 14.238 11.6667 12 11.6667C9.91553 11.6667 8.12897 13.1548 7.37831 15.2701C7.26307 15.5949 7.20545 15.7573 7.15742 15.8392C6.99096 16.123 6.8062 16.2535 6.48301 16.3155C6.38975 16.3333 6.25983 16.3333 6 16.3333C4.34315 16.3333 3 17.9003 3 19.8333C3 21.7663 4.34315 23.3333 6 23.3333Z" fill="#7E869E" fill-opacity="0.25"/>
<path d="M7.37831 15.2701L7.94377 15.4708L7.37831 15.2701ZM7.15742 15.8392L6.63984 15.5357L7.15742 15.8392ZM6.48301 16.3155L6.59594 16.9047L6.48301 16.3155ZM12 22.7333H6V23.9333H12V22.7333ZM17.5 22.7333H12V23.9333H17.5V22.7333ZM20.4 19.8333C20.4 21.435 19.1016 22.7333 17.5 22.7333V23.9333C19.7644 23.9333 21.6 22.0977 21.6 19.8333H20.4ZM17.5 16.9333C19.1016 16.9333 20.4 18.2317 20.4 19.8333H21.6C21.6 17.569 19.7644 15.7333 17.5 15.7333V16.9333ZM17.3497 15.5912C16.6582 13.0268 14.5692 11.0667 12 11.0667V12.2667C13.9068 12.2667 15.6069 13.7373 16.1911 15.9036L17.3497 15.5912ZM12 11.0667C9.60841 11.0667 7.62923 12.769 6.81286 15.0695L7.94377 15.4708C8.62872 13.5406 10.2226 12.2667 12 12.2667V11.0667ZM6 15.7333C3.92834 15.7333 2.4 17.6591 2.4 19.8333H3.6C3.6 18.1416 4.75796 16.9333 6 16.9333V15.7333ZM2.4 19.8333C2.4 22.0076 3.92834 23.9333 6 23.9333V22.7333C4.75796 22.7333 3.6 21.5251 3.6 19.8333H2.4ZM6.81286 15.0695C6.75424 15.2347 6.71373 15.3487 6.68194 15.4322C6.64742 15.5228 6.63608 15.5421 6.63984 15.5357L7.67499 16.1427C7.72678 16.0544 7.76827 15.9514 7.80338 15.8592C7.84123 15.7599 7.88715 15.6303 7.94377 15.4708L6.81286 15.0695ZM6 16.9333C6.22695 16.9333 6.43162 16.9362 6.59594 16.9047L6.37008 15.7262C6.37093 15.726 6.35301 15.7294 6.28648 15.7314C6.22067 15.7333 6.13352 15.7333 6 15.7333V16.9333ZM6.63984 15.5357C6.58569 15.628 6.55078 15.6578 6.53286 15.6704C6.51495 15.6831 6.47522 15.706 6.37008 15.7262L6.59594 16.9047C6.81399 16.8629 7.02823 16.7897 7.22511 16.6506C7.42199 16.5116 7.56269 16.3342 7.67499 16.1427L6.63984 15.5357ZM17.5 15.7333C17.4564 15.7333 17.3781 15.6965 17.3497 15.5912L16.1911 15.9036C16.3433 16.4681 16.8499 16.9333 17.5 16.9333V15.7333Z" fill="#7E869E" fill-opacity="0.25" mask="url(#path-1-outside-1_34_186)"/>
<path fill-rule="evenodd" clip-rule="evenodd" d="M9.50003 13.1956C8.82252 13.7526 8.27615 14.5346 7.94379 15.4712L7.94125 15.4784L7.9412 15.4785C7.88577 15.6347 7.84067 15.7618 7.80341 15.8597C7.7683 15.9518 7.72681 16.0548 7.67502 16.1431C7.56271 16.3346 7.42201 16.512 7.22514 16.6511C7.02826 16.7901 6.81402 16.8634 6.59596 16.9051C6.44451 16.9342 6.25879 16.934 6.05293 16.9338H6.05291L6.00002 16.9337C4.75798 16.9337 3.60002 18.142 3.60002 19.8337C3.60002 21.5255 4.75798 22.7337 6.00002 22.7337H11.9971H11.9989H12H12.0012H12.0029H17.5C19.1017 22.7337 20.4 21.4354 20.4 19.8337C20.4 18.2321 19.1017 16.9337 17.5 16.9337C16.85 16.9337 16.3433 16.4685 16.1911 15.904C15.887 14.7764 15.2806 13.8373 14.5 13.1959V11.7397C15.8695 12.5256 16.9022 13.9321 17.3497 15.5916C17.3781 15.6969 17.4564 15.7337 17.5 15.7337C19.7644 15.7337 21.6 17.5694 21.6 19.8337C21.6 22.0981 19.7644 23.9337 17.5 23.9337H12.0029L12.0018 23.9337H12H11.9983L11.9971 23.9337H6.00002C3.92836 23.9337 2.40002 22.008 2.40002 19.8337C2.40002 17.6595 3.92836 15.7337 6.00002 15.7337C6.13355 15.7337 6.2207 15.7337 6.2865 15.7318C6.34975 15.7299 6.36906 15.7268 6.37009 15.7266C6.37014 15.7266 6.37014 15.7266 6.3701 15.7266C6.47524 15.7064 6.51497 15.6835 6.53289 15.6709C6.5508 15.6582 6.58571 15.6284 6.63986 15.5361L6.63918 15.5372C6.63916 15.5372 6.6394 15.5367 6.63994 15.5355C6.64306 15.5288 6.6559 15.501 6.68196 15.4326C6.71375 15.3491 6.75426 15.2351 6.81289 15.0699C7.31995 13.641 8.27559 12.4429 9.50003 11.7402V13.1956Z" fill="#222222"/>
<path d="M12 3.5L11.5444 3.10952L12 2.57805L12.4556 3.10952L12 3.5ZM12.6 15.1667C12.6 15.498 12.3314 15.7667 12 15.7667C11.6686 15.7667 11.4 15.498 11.4 15.1667L12.6 15.1667ZM7.54445 7.77619L11.5444 3.10952L12.4556 3.89047L8.45555 8.55714L7.54445 7.77619ZM12.4556 3.10952L16.4556 7.77619L15.5444 8.55714L11.5444 3.89047L12.4556 3.10952ZM12.6 3.5L12.6 15.1667L11.4 15.1667L11.4 3.5L12.6 3.5Z" fill="#222222"/>
</svg>
