<svg width="24" height="28" viewBox="0 0 24 28" fill="none" xmlns="http://www.w3.org/2000/svg">
<path fill-rule="evenodd" clip-rule="evenodd" d="M9.5 13.0671C8.77795 13.6396 8.19747 14.4573 7.84952 15.4378L7.84735 15.4439C7.79158 15.6011 7.74679 15.7273 7.70993 15.8241C7.67487 15.9161 7.63589 16.0121 7.58873 16.0925C7.48127 16.2758 7.34939 16.4409 7.16742 16.5694C6.98546 16.6979 6.78576 16.767 6.57712 16.8069C6.43558 16.8341 6.25981 16.8339 6.04941 16.8338H6.04941L6 16.8337C4.68882 16.8337 3.5 18.1018 3.5 19.8337C3.5 21.5657 4.68882 22.8337 6 22.8337H11.9971H11.9988L12 22.8337L12.0012 22.8337H12.0029H17.5C19.1569 22.8337 20.5 21.4906 20.5 19.8337C20.5 18.1769 19.1569 16.8337 17.5 16.8337C16.9005 16.8337 16.4295 16.4042 16.2876 15.878C15.9708 14.7029 15.3286 13.7241 14.5 13.0674V11.8556C15.8194 12.6321 16.8169 13.9999 17.2532 15.6176C17.2919 15.7612 17.4059 15.8337 17.5 15.8337C19.7091 15.8337 21.5 17.6246 21.5 19.8337C21.5 22.0429 19.7091 23.8337 17.5 23.8337H12.0029H12.0017L12 23.8337L11.9983 23.8337H11.9971H6C3.99747 23.8337 2.5 21.9678 2.5 19.8337C2.5 17.6997 3.99747 15.8337 6 15.8337C6.28723 15.8337 6.35486 15.8313 6.3889 15.8248C6.50345 15.8029 6.55772 15.7757 6.59055 15.7525C6.62332 15.7294 6.66696 15.6874 6.7258 15.5872C6.7258 15.5872 6.72584 15.5871 6.72591 15.587C6.72662 15.5856 6.7306 15.578 6.73811 15.5609C6.74744 15.5397 6.75948 15.51 6.77539 15.4682C6.80769 15.3834 6.84865 15.2681 6.9071 15.1033C7.40042 13.7132 8.32204 12.5493 9.5 11.856V13.0671Z" fill="#222222"/>
<path d="M12 3.5L11.6204 3.1746L12 2.7317L12.3796 3.1746L12 3.5ZM12.5 15.1667C12.5 15.4428 12.2761 15.6667 12 15.6667C11.7239 15.6667 11.5 15.4428 11.5 15.1667L12.5 15.1667ZM7.62037 7.84127L11.6204 3.1746L12.3796 3.8254L8.37963 8.49206L7.62037 7.84127ZM12.3796 3.1746L16.3796 7.84127L15.6204 8.49206L11.6204 3.8254L12.3796 3.1746ZM12.5 3.5L12.5 15.1667L11.5 15.1667L11.5 3.5L12.5 3.5Z" fill="#222222"/>
</svg>
