<svg width="24" height="28" viewBox="0 0 24 28" fill="none" xmlns="http://www.w3.org/2000/svg">
<path fill-rule="evenodd" clip-rule="evenodd" d="M9.5 13.731C8.99834 14.2164 8.58794 14.852 8.32073 15.605L8.31678 15.6161L8.31678 15.6161C8.26253 15.769 8.21612 15.8998 8.1772 16.002C8.14189 16.0947 8.09035 16.2255 8.02004 16.3454C7.88835 16.57 7.71239 16.7966 7.45586 16.9778C7.19933 17.159 6.92692 17.249 6.67123 17.298C6.4795 17.3347 6.25266 17.3342 6.05925 17.3338L6 17.3337C5.0345 17.3337 4 18.3029 4 19.8337C4 21.3646 5.0345 22.3337 6 22.3337H11.9971H11.999L12 22.3337L12.001 22.3337H12.0029H17.5C18.8807 22.3337 20 21.2145 20 19.8337C20 18.453 18.8807 17.3337 17.5 17.3337C16.6478 17.3337 15.9984 16.7257 15.8049 16.0082C15.5544 15.0793 15.0906 14.3018 14.5 13.7313V11.2827C16.0277 12.0803 17.1795 13.5788 17.6939 15.3378C20.0892 15.4394 22 17.4134 22 19.8337C22 22.319 19.9853 24.3337 17.5 24.3337H12.0029H12.0019L12 24.3337L11.9981 24.3337H11.9971H6C3.65179 24.3337 2 22.1689 2 19.8337C2 17.4986 3.65179 15.3337 6 15.3337C6.13593 15.3337 6.21622 15.3336 6.27482 15.3319L6.29214 15.3313C6.29645 15.3206 6.30173 15.3071 6.30813 15.2903C6.33789 15.2121 6.3766 15.1032 6.4359 14.9361C6.99687 13.3553 8.08838 12.0207 9.5 11.2835V13.731Z" fill="#33363F"/>
<path d="M12 3.5L11.2407 2.84921L12 1.96341L12.7593 2.84921L12 3.5ZM13 15.1667C13 15.719 12.5523 16.1667 12 16.1667C11.4477 16.1667 11 15.719 11 15.1667L13 15.1667ZM7.24074 7.51588L11.2407 2.84921L12.7593 4.15079L8.75926 8.81746L7.24074 7.51588ZM12.7593 2.84921L16.7593 7.51588L15.2407 8.81746L11.2407 4.15079L12.7593 2.84921ZM13 3.5L13 15.1667L11 15.1667L11 3.5L13 3.5Z" fill="#33363F"/>
</svg>
