<svg width="24" height="28" viewBox="0 0 24 28" fill="none" xmlns="http://www.w3.org/2000/svg">
<path fill-rule="evenodd" clip-rule="evenodd" d="M6 24.5H12H17.5C19.433 24.5 21 22.933 21 21C21 19.067 19.433 17.5 17.5 17.5C17.1532 17.5 16.8607 17.2489 16.7704 16.9141C16.1326 14.5488 14.238 12.8333 12 12.8333C9.91553 12.8333 8.12898 14.3215 7.37831 16.4368C7.26307 16.7616 7.20545 16.9239 7.15742 17.0058C6.99096 17.2897 6.8062 17.4202 6.48301 17.4821C6.38975 17.5 6.25983 17.5 6 17.5C4.34315 17.5 3 19.067 3 21C3 22.933 4.34315 24.5 6 24.5Z" fill="#7E869E" fill-opacity="0.25"/>
<path d="M9.5 8.75L12 5.83334M12 5.83334L14.5 8.75M12 5.83334L12 17.5" stroke="#222222" stroke-linecap="round"/>
</svg>
