<svg width="24" height="28" viewBox="0 0 24 28" fill="none" xmlns="http://www.w3.org/2000/svg">
<path fill-rule="evenodd" clip-rule="evenodd" d="M14.5 12.4475V15.1673C14.5 16.548 13.3807 17.6673 12 17.6673C10.6193 17.6673 9.5 16.548 9.5 15.1673V12.4475C8.55216 13.0872 7.80101 14.0794 7.37831 15.2706L7.37831 15.2706C7.26307 15.5953 7.20545 15.7577 7.15742 15.8396C6.99096 16.1235 6.8062 16.2539 6.48301 16.3159C6.38975 16.3337 6.25983 16.3337 6 16.3337C4.34315 16.3337 3 17.9008 3 19.8337C3 21.7667 4.34315 23.3337 6 23.3337H11.9971L12 23.3338L12.0029 23.3337H17.5C19.433 23.3337 21 21.7667 21 19.8337C21 17.9008 19.433 16.3337 17.5 16.3337C17.1532 16.3337 16.8607 16.0827 16.7704 15.7478C16.3921 14.345 15.5718 13.1708 14.5 12.4475Z" fill="#222222"/>
<path d="M12 3.5L11.2407 2.84921L12 1.96341L12.7593 2.84921L12 3.5ZM13 15.1667C13 15.719 12.5523 16.1667 12 16.1667C11.4477 16.1667 11 15.719 11 15.1667L13 15.1667ZM7.24074 7.51588L11.2407 2.84921L12.7593 4.15079L8.75926 8.81746L7.24074 7.51588ZM12.7593 2.84921L16.7593 7.51588L15.2407 8.81746L11.2407 4.15079L12.7593 2.84921ZM13 3.5L13 15.1667L11 15.1667L11 3.5L13 3.5Z" fill="#222222"/>
</svg>
