<svg width="31" height="28" viewBox="0 0 31 28" fill="none" xmlns="http://www.w3.org/2000/svg">
<path d="M7.27478 17.2066L7.78531 17.5218L7.27478 17.2066C7.15361 17.4028 7.09327 17.6221 7.03052 17.8501C7.0259 17.8669 7.02126 17.8838 7.01658 17.9007L6.10295 21.2015C6.1003 21.2111 6.09762 21.2208 6.09491 21.2305C6.05235 21.384 6.00425 21.5573 5.98602 21.7054C5.96572 21.8701 5.95965 22.1699 6.19546 22.4173L6.62813 22.0049L6.19546 22.4173C6.43128 22.6647 6.73095 22.673 6.89648 22.6606C7.04524 22.6495 7.22075 22.6097 7.37602 22.5746C7.38589 22.5723 7.39569 22.5701 7.40538 22.5679L11.244 21.7011L11.246 21.7007L11.246 21.7007C11.2615 21.6972 11.2768 21.6938 11.2922 21.6903C11.5004 21.6436 11.7006 21.5987 11.8857 21.5027C12.0708 21.4067 12.2228 21.269 12.3811 21.1257C12.3927 21.1152 12.4044 21.1046 12.4161 21.094L22.009 12.4295L22.0389 12.4024C22.397 12.079 22.7111 11.7954 22.9301 11.5342C23.1662 11.2527 23.3581 10.9215 23.3581 10.5C23.3581 10.0785 23.1662 9.74733 22.9301 9.46576C22.7111 9.20464 22.397 8.92099 22.0389 8.59756L22.009 8.57053L21.1178 7.76558L20.7156 8.21084L21.1178 7.76558L21.0915 7.7418C20.7955 7.47442 20.5321 7.23648 20.2927 7.07037C20.0321 6.88961 19.7368 6.74752 19.375 6.74752C19.0133 6.74752 18.718 6.88961 18.4574 7.07037C18.218 7.23647 17.9546 7.47441 17.6586 7.74179L17.6323 7.76558L18.0345 8.21084L17.6323 7.76558L7.77963 16.6648C7.76662 16.6765 7.75363 16.6882 7.74068 16.6999C7.56493 16.8581 7.39594 17.0103 7.27478 17.2066Z" stroke="#33363F" stroke-width="1.2"/>
<path d="M16.1459 8.75L21.3125 13.4167" stroke="#7E869E" stroke-opacity="0.25"/>
</svg>
