<svg width="31" height="28" viewBox="0 0 31 28" fill="none" xmlns="http://www.w3.org/2000/svg">
<path fill-rule="evenodd" clip-rule="evenodd" d="M16.7996 8.1595L19.637 5.59666C20.5633 4.76002 21.0265 4.34169 21.5665 4.2338C21.8252 4.18213 22.0915 4.18213 22.3502 4.2338C22.8902 4.34169 23.3534 4.76002 24.2796 5.59666C25.3935 6.60275 25.9505 7.10579 26.091 7.72151C26.1579 8.01451 26.1579 8.31882 26.091 8.61182C25.9505 9.22754 25.3935 9.73059 24.2796 10.7367L22.0008 12.795C19.8632 11.7531 18.0669 10.1427 16.7996 8.1595ZM15.2975 9.51621L6.11475 17.8103C5.64455 18.235 5.40945 18.4474 5.25271 18.7167C5.09596 18.9861 5.02747 19.2954 4.89049 19.914L4.03748 23.7663C3.96402 24.098 3.92729 24.2639 4.02013 24.3605C4.11297 24.457 4.28016 24.4268 4.61454 24.3664H4.61454L9.21024 23.5362L9.21026 23.5362C9.76814 23.4354 10.0471 23.385 10.2982 23.2617C10.5492 23.1383 10.7596 22.9483 11.1803 22.5683L20.418 14.2247C18.3561 13.0788 16.603 11.4611 15.2975 9.51621Z" fill="#222222"/>
</svg>
