<svg width="33" height="28" viewBox="0 0 33 28" fill="none" xmlns="http://www.w3.org/2000/svg">
<path d="M19.4121 5.6958L8.78365 14.7139C8.51939 14.9381 8.38726 15.0502 8.30128 15.1968C8.2153 15.3433 8.1819 15.5133 8.11511 15.8534L7.01051 21.4768C6.94877 21.7911 6.9179 21.9483 7.00663 22.0419C7.09536 22.1355 7.25396 22.1131 7.57115 22.0682L14.5522 21.081C14.8367 21.0408 14.9789 21.0207 15.1082 20.9626C15.2375 20.9046 15.347 20.8116 15.5661 20.6257L25.2803 12.3834C26.9492 10.9673 27.7837 10.2593 27.7837 9.33333C27.7837 8.40738 26.9492 7.69935 25.2803 6.2833L24.5879 5.6958C23.3521 4.64721 22.7342 4.12292 22 4.12292C21.2658 4.12292 20.6479 4.64721 19.4121 5.6958Z" fill="#7E869E" fill-opacity="0.25"/>
<path d="M17.228 7.54895L8.78365 14.7139C8.51939 14.9381 8.38726 15.0502 8.30128 15.1968C8.2153 15.3433 8.1819 15.5133 8.11511 15.8534L7.01051 21.4768C6.94877 21.7911 6.9179 21.9483 7.00663 22.0419C7.09536 22.1355 7.25396 22.1131 7.57114 22.0682H7.57115L14.5522 21.081C14.8367 21.0408 14.9789 21.0207 15.1082 20.9626C15.2375 20.9046 15.347 20.8116 15.5661 20.6257L23.8513 13.5958C24.2686 13.2418 24.4772 13.0648 24.4772 12.8333C24.4772 12.6018 24.2686 12.4248 23.8513 12.0708L18.522 7.54895C18.213 7.2868 18.0585 7.15573 17.875 7.15573C17.6915 7.15573 17.537 7.2868 17.228 7.54895Z" fill="#222222"/>
</svg>
