<svg width="31" height="28" viewBox="0 0 31 28" fill="none" xmlns="http://www.w3.org/2000/svg">
<path d="M6.26784 22.3483L6.62977 22.0033L6.26785 22.3483C6.47251 22.563 6.73389 22.5725 6.88902 22.5609C7.03003 22.5503 7.19858 22.5122 7.35649 22.4765C7.36548 22.4744 7.37444 22.4724 7.38336 22.4704L11.2223 21.6035L11.224 21.6031L11.224 21.6031C11.2384 21.5999 11.2527 21.5967 11.2669 21.5935C11.4789 21.5458 11.6666 21.5037 11.8397 21.4139C12.0128 21.3242 12.1554 21.1951 12.3165 21.0492C12.3273 21.0395 12.3381 21.0297 12.3491 21.0198L21.942 12.3553L21.9679 12.3318C22.3295 12.0052 22.6391 11.7257 22.8535 11.47C23.0822 11.1972 23.2581 10.8883 23.2581 10.5C23.2581 10.1117 23.0822 9.80279 22.8535 9.53001C22.6391 9.27432 22.3295 8.99475 21.9679 8.66816L21.942 8.64474L21.0508 7.83979L21.0279 7.81912C20.7289 7.54902 20.4697 7.3149 20.2357 7.15254C19.984 6.97792 19.7085 6.84752 19.375 6.84752C19.0415 6.84752 18.7661 6.97792 18.5144 7.15254C18.2804 7.3149 18.0212 7.54902 17.7222 7.81912L17.6993 7.83979L7.84665 16.739C7.83451 16.7499 7.82244 16.7608 7.81047 16.7716C7.63158 16.9328 7.47317 17.0756 7.35987 17.2591L7.78531 17.5218L7.35987 17.2591C7.24656 17.4426 7.18991 17.6482 7.12592 17.8804C7.12164 17.8959 7.11733 17.9116 7.11296 17.9273L6.19933 21.2282C6.19689 21.237 6.19444 21.2459 6.19197 21.2547C6.14872 21.4108 6.10255 21.5773 6.08527 21.7176C6.06625 21.872 6.06318 22.1336 6.26784 22.3483Z" stroke="#222222"/>
<path d="M16.1459 8.75L20.0209 6.41666L23.8959 9.91666L21.3125 13.4167L16.1459 8.75Z" fill="#222222"/>
</svg>
