<svg width="31" height="28" viewBox="0 0 31 28" fill="none" xmlns="http://www.w3.org/2000/svg">
<path d="M6.62977 22.0033L5.90592 22.6932C5.54549 22.3151 5.56363 21.8626 5.58902 21.6565C5.6111 21.4772 5.66725 21.2753 5.70782 21.1295C5.71114 21.1175 5.71436 21.106 5.71745 21.0948L6.63108 17.794C6.63626 17.7753 6.64152 17.756 6.64691 17.7363C6.70626 17.5192 6.78141 17.2443 6.93442 16.9964L7.78142 17.5194L6.93442 16.9964C7.08743 16.7486 7.29954 16.5582 7.46704 16.4079C7.48226 16.3943 7.49711 16.3809 7.51151 16.3679L17.3642 7.46874C17.3767 7.45741 17.3893 7.44608 17.4018 7.43477C17.6876 7.1765 17.9683 6.92288 18.2294 6.74172C18.5254 6.53637 18.9004 6.34752 19.375 6.34752C19.8497 6.34752 20.2247 6.53637 20.5207 6.74172C20.7818 6.92288 21.0625 7.17651 21.3483 7.43478C21.3608 7.44609 21.3734 7.45741 21.3859 7.46874L22.2771 8.27369C22.2915 8.2867 22.3059 8.29969 22.3203 8.31266C22.6666 8.62536 22.9993 8.92578 23.2366 9.20876C23.5021 9.52547 23.7581 9.94553 23.7581 10.5C23.7581 11.0545 23.5021 11.4745 23.2366 11.7912C22.9993 12.0742 22.6666 12.3746 22.3203 12.6873C22.3059 12.7003 22.2915 12.7133 22.2771 12.7263L12.6842 21.3909C12.6712 21.4026 12.6579 21.4147 12.6443 21.4271C12.4939 21.5637 12.3036 21.7366 12.0698 21.8578M6.62977 22.0033L5.90592 22.6933C6.26635 23.0714 6.7192 23.075 6.9263 23.0595C7.10646 23.046 7.31076 22.9996 7.45839 22.9661C7.47049 22.9633 7.4822 22.9607 7.49349 22.9581L11.3308 22.0916L11.1147 21.1192L11.3341 22.0909L11.3342 22.0909C11.3512 22.087 11.3688 22.0831 11.3868 22.0791C11.5851 22.0349 11.8361 21.979 12.0698 21.8578M6.62977 22.0033C6.53199 21.9007 6.58173 21.721 6.68121 21.3616L7.59484 18.0607C7.67192 17.7823 7.71045 17.643 7.78531 17.5218L11.6095 20.97M6.62977 22.0033C6.72756 22.1059 6.90945 22.0648 7.27323 21.9827L11.1139 21.1154L11.1139 21.1154C11.3681 21.058 11.4951 21.0293 11.6095 20.97M12.0698 21.8578L11.6095 20.97M12.0698 21.8578C12.0698 21.8578 12.0698 21.8578 12.0698 21.8578L11.6095 20.97" stroke="#33363F" stroke-width="2"/>
<path d="M16.1459 8.75L20.0209 6.41666L23.8959 9.91666L21.3125 13.4167L16.1459 8.75Z" fill="#33363F"/>
</svg>
