<svg width="31" height="28" viewBox="0 0 31 28" fill="none" xmlns="http://www.w3.org/2000/svg">
<path d="M23.5429 6.23861L24.7957 5.33334H23.25C15.4611 5.33334 9.0292 10.8185 7.45063 18.0375L7.35369 18.4809L7.78559 18.6202L11.917 19.9529C14.5724 20.8095 17.2917 18.8293 17.2917 16.0393C17.2917 12.721 18.8848 9.60447 21.5744 7.66102L23.5429 6.23861Z" stroke="#222222"/>
<path d="M23.5429 6.23861L24.7957 5.33334H23.25C15.4611 5.33334 9.0292 10.8185 7.45063 18.0375L7.35369 18.4809L7.78559 18.6202L11.917 19.9529C14.5724 20.8095 17.2917 18.8293 17.2917 16.0393C17.2917 12.721 18.8848 9.60447 21.5744 7.66102L23.5429 6.23861Z" stroke="#222222"/>
</svg>
