<svg width="24" height="28" viewBox="0 0 24 28" fill="none" xmlns="http://www.w3.org/2000/svg">
<path d="M12 5.83333L11.2407 5.18254L12 4.29674L12.7593 5.18254L12 5.83333ZM13 16.3333C13 16.8856 12.5523 17.3333 12 17.3333C11.4477 17.3333 11 16.8856 11 16.3333L13 16.3333ZM6.24074 11.0159L11.2407 5.18254L12.7593 6.48413L7.75926 12.3175L6.24074 11.0159ZM12.7593 5.18254L17.7593 11.0159L16.2407 12.3175L11.2407 6.48413L12.7593 5.18254ZM13 5.83333L13 16.3333L11 16.3333L11 5.83333L13 5.83333Z" fill="#33363F"/>
<path d="M5 18.6667L5 19.8333C5 21.122 5.89543 22.1667 7 22.1667L17 22.1667C18.1046 22.1667 19 21.122 19 19.8333V18.6667" stroke="#33363F" stroke-width="2"/>
</svg>
