<svg width="24" height="28" viewBox="0 0 24 28" fill="none" xmlns="http://www.w3.org/2000/svg">
<path d="M12 5.83333L11.6204 5.50794L12 5.06504L12.3796 5.50794L12 5.83333ZM12.5 16.3333C12.5 16.6095 12.2761 16.8333 12 16.8333C11.7239 16.8333 11.5 16.6095 11.5 16.3333L12.5 16.3333ZM6.62037 11.3413L11.6204 5.50794L12.3796 6.15873L7.37963 11.9921L6.62037 11.3413ZM12.3796 5.50794L17.3796 11.3413L16.6204 11.9921L11.6204 6.15873L12.3796 5.50794ZM12.5 5.83333L12.5 16.3333L11.5 16.3333L11.5 5.83333L12.5 5.83333Z" fill="#222222"/>
<path d="M5 18.6667L5 19.8333C5 21.122 5.89543 22.1667 7 22.1667L17 22.1667C18.1046 22.1667 19 21.122 19 19.8333V18.6667" stroke="#222222"/>
</svg>
