<svg width="24" height="28" viewBox="0 0 24 28" fill="none" xmlns="http://www.w3.org/2000/svg">
<path d="M12 5.83333L11.5444 5.44286L12 4.91138L12.4556 5.44286L12 5.83333ZM12.6 16.3333C12.6 16.6647 12.3314 16.9333 12 16.9333C11.6686 16.9333 11.4 16.6647 11.4 16.3333L12.6 16.3333ZM6.54445 11.2762L11.5444 5.44286L12.4556 6.22381L7.45555 12.0571L6.54445 11.2762ZM12.4556 5.44286L17.4556 11.2762L16.5444 12.0571L11.5444 6.22381L12.4556 5.44286ZM12.6 5.83333L12.6 16.3333L11.4 16.3333L11.4 5.83333L12.6 5.83333Z" fill="#222222"/>
<path d="M5 18.6667L5 19.8333C5 21.122 5.89543 22.1667 7 22.1667L17 22.1667C18.1046 22.1667 19 21.122 19 19.8333V18.6667" stroke="#2A4157" stroke-opacity="0.24" stroke-width="1.2"/>
</svg>
