<svg width="31" height="28" viewBox="0 0 31 28" fill="none" xmlns="http://www.w3.org/2000/svg">
<path d="M13.5625 14H15.5V18.6667H18.0833M15.5 9.33333H15.5129M17.5187 24.3405C19.0221 24.101 20.4586 23.5965 21.7461 22.8556C23.0336 22.1147 24.147 21.1521 25.0226 20.0226C25.8983 18.893 26.519 17.6188 26.8494 16.2726C27.1799 14.9264 27.2135 13.5346 26.9484 12.1767C26.6833 10.8188 26.1247 9.52129 25.3044 8.35835C24.4842 7.19542 23.4184 6.1898 22.1678 5.3989C20.9173 4.60801 19.5065 4.04734 18.0161 3.74889C16.5257 3.45045 14.9848 3.42008 13.4813 3.65952C11.9779 3.89896 10.5414 4.40352 9.25389 5.14439C7.96635 5.88526 6.85299 6.84794 5.97736 7.97745C5.10173 9.10696 4.48098 10.3812 4.15056 11.7274C3.82014 13.0736 3.78652 14.4654 4.05161 15.8233C4.3167 17.1812 4.87532 18.4787 5.69558 19.6416C6.51583 20.8046 7.58164 21.8102 8.83218 22.6011C10.0827 23.392 11.4935 23.9527 12.9839 24.2511C14.4743 24.5496 16.0152 24.5799 17.5187 24.3405Z" stroke="#33363F" stroke-width="2" stroke-linecap="round" stroke-linejoin="round"/>
</svg>
