<svg width="31" height="28" viewBox="0 0 31 28" fill="none" xmlns="http://www.w3.org/2000/svg">
<path d="M14.2084 12.25H15C15.2762 12.25 15.5 12.4739 15.5 12.75V17.5833C15.5 17.8595 15.7239 18.0833 16 18.0833H16.7917M15.5001 9.91667H15.513" stroke="#222222" stroke-linecap="round" stroke-linejoin="round"/>
<path d="M17.2944 23.1915C18.6308 22.9787 19.9077 22.5302 21.0521 21.8717C22.1966 21.2131 23.1863 20.3574 23.9646 19.3534C24.743 18.3494 25.2947 17.2167 25.5884 16.0201C25.8821 14.8235 25.912 13.5863 25.6764 12.3793C25.4407 11.1722 24.9442 10.0189 24.2151 8.98521C23.486 7.95149 22.5386 7.0576 21.427 6.35459C20.3154 5.65157 19.0614 5.15319 17.7366 4.88791C16.4118 4.62263 15.0421 4.59563 13.7057 4.80847C12.3693 5.0213 11.0924 5.4698 9.94794 6.12835C8.80347 6.78691 7.81381 7.64262 7.03547 8.64663C6.25713 9.65064 5.70536 10.7833 5.41165 11.9799C5.11794 13.1765 5.08806 14.4137 5.32369 15.6207C5.55933 16.8278 6.05589 17.9811 6.785 19.0148C7.51411 20.0485 8.4615 20.9424 9.57309 21.6454C10.6847 22.3484 11.9387 22.8468 13.2635 23.1121C14.5883 23.3774 15.958 23.4044 17.2944 23.1915L17.2944 23.1915Z" stroke="#222222"/>
</svg>
