<svg width="31" height="28" viewBox="0 0 31 28" fill="none" xmlns="http://www.w3.org/2000/svg">
<path fill-rule="evenodd" clip-rule="evenodd" d="M27.125 14C27.125 19.799 21.9203 24.5 15.5 24.5C9.07969 24.5 3.875 19.799 3.875 14C3.875 8.20101 9.07969 3.5 15.5 3.5C21.9203 3.5 27.125 8.20101 27.125 14ZM16.7917 9.33333C16.7917 9.97767 16.2134 10.5 15.5 10.5C14.7866 10.5 14.2083 9.97767 14.2083 9.33333C14.2083 8.689 14.7866 8.16667 15.5 8.16667C16.2134 8.16667 16.7917 8.689 16.7917 9.33333ZM16.5 19.8333V12.8333H14.5V19.8333H16.5Z" fill="#222222"/>
</svg>
