<svg width="33" height="28" viewBox="0 0 33 28" fill="none" xmlns="http://www.w3.org/2000/svg">
<ellipse cx="16.5" cy="14" rx="12.375" ry="10.5" fill="#7E869E" fill-opacity="0.25"/>
<path d="M17.875 8.16667C17.875 8.811 17.2594 9.33333 16.5 9.33333C15.7406 9.33333 15.125 8.811 15.125 8.16667C15.125 7.52233 15.7406 7 16.5 7C17.2594 7 17.875 7.52233 17.875 8.16667Z" fill="#222222"/>
<path d="M16.5 19.25V13.8333C16.5 12.6605 16.5 12.0742 16.19 11.6702C16.1102 11.5662 16.0171 11.4731 15.9131 11.3933C15.5092 11.0833 14.9228 11.0833 13.75 11.0833V11.0833M16.5 19.25H18.5625M16.5 19.25H14.4375" stroke="#222222"/>
</svg>
