<svg width="31" height="28" viewBox="0 0 31 28" fill="none" xmlns="http://www.w3.org/2000/svg">
<path d="M17.7429 25.4894C19.4134 25.2234 21.0095 24.6628 22.4401 23.8396C23.8707 23.0164 25.1077 21.9467 26.0807 20.6917C27.0536 19.4367 27.7433 18.0209 28.1104 16.5251C28.4776 15.0294 28.5149 13.4829 28.2204 11.9741C27.9258 10.4653 27.3052 9.02365 26.3938 7.7315C25.4824 6.43935 24.2981 5.32199 22.9087 4.44322C21.5192 3.56445 19.9517 2.94148 18.2956 2.60987C16.6396 2.27827 14.9275 2.24453 13.257 2.51057C11.5865 2.77662 9.99043 3.33724 8.55984 4.16043C7.12924 4.98362 5.89217 6.05326 4.91924 7.30827C3.94632 8.56329 3.2566 9.9791 2.88947 11.4749C2.52233 12.9706 2.48498 14.5171 2.77953 16.0259C3.07408 17.5347 3.69476 18.9763 4.60615 20.2685C5.51754 21.5606 6.70179 22.678 8.09127 23.5568C9.48075 24.4355 11.0483 25.0585 12.7043 25.3901C14.3603 25.7217 16.0724 25.7555 17.7429 25.4894L17.7429 25.4894Z" stroke="#33363F" stroke-width="2"/>
<path d="M15.5 14L15.5 21" stroke="#33363F" stroke-width="2" stroke-linecap="square"/>
<path d="M15.5 8.16667L15.5 7.00001" stroke="#33363F" stroke-width="2" stroke-linecap="square"/>
</svg>
