<svg width="31" height="28" viewBox="0 0 31 28" fill="none" xmlns="http://www.w3.org/2000/svg">
<path fill-rule="evenodd" clip-rule="evenodd" d="M15.5 24.5C9.07969 24.5 3.875 19.799 3.875 14C3.875 8.20101 9.07969 3.5 15.5 3.5C21.9203 3.5 27.125 8.20101 27.125 14C27.125 19.799 21.9203 24.5 15.5 24.5ZM15.5 8.33333C14.9477 8.33333 14.5 8.78105 14.5 9.33333C14.5 9.88562 14.9477 10.3333 15.5 10.3333H15.5129C16.0652 10.3333 16.5129 9.88562 16.5129 9.33333C16.5129 8.78105 16.0652 8.33333 15.5129 8.33333H15.5ZM13.5625 13C13.0102 13 12.5625 13.4477 12.5625 14C12.5625 14.5523 13.0102 15 13.5625 15H14.5V18.6667C14.5 19.219 14.9477 19.6667 15.5 19.6667H18.0833C18.6356 19.6667 19.0833 19.219 19.0833 18.6667C19.0833 18.1144 18.6356 17.6667 18.0833 17.6667H16.5V14C16.5 13.4477 16.0523 13 15.5 13H13.5625Z" fill="#222222"/>
</svg>
