<svg width="31" height="28" viewBox="0 0 31 28" fill="none" xmlns="http://www.w3.org/2000/svg">
<path fill-rule="evenodd" clip-rule="evenodd" d="M15.5 24.5C21.9203 24.5 27.125 19.799 27.125 14C27.125 8.20101 21.9203 3.5 15.5 3.5C9.07969 3.5 3.875 8.20101 3.875 14C3.875 19.799 9.07969 24.5 15.5 24.5ZM15.5 6C16.0523 6 16.5 6.44772 16.5 7V10.5C16.5 11.0523 16.0523 11.5 15.5 11.5C14.9477 11.5 14.5 11.0523 14.5 10.5V7C14.5 6.44772 14.9477 6 15.5 6ZM20.238 8.37997C20.6082 7.97011 21.2405 7.93796 21.6504 8.30815C22.8804 9.41916 23.7315 10.8475 24.0777 12.4193C24.4241 13.9923 24.2451 15.6214 23.569 17.0956C22.8938 18.568 21.7582 19.8099 20.3224 20.6764C18.8872 21.5426 17.2092 22 15.5 22C13.7907 22 12.1128 21.5426 10.6776 20.6764C9.24174 19.8099 8.10619 18.568 7.43095 17.0956C6.7549 15.6214 6.5759 13.9923 6.92231 12.4193C7.26845 10.8475 8.11959 9.41916 9.34963 8.30815C9.75948 7.93796 10.3918 7.97011 10.762 8.37997C11.1322 8.78982 11.1001 9.42217 10.6902 9.79236C9.75254 10.6393 9.12744 11.7055 8.87551 12.8494C8.62385 13.9922 8.7518 15.178 9.2489 16.2619C9.74682 17.3477 10.5979 18.2924 11.711 18.9641C12.8248 19.6363 14.1436 20 15.5 20C16.8564 20 18.1752 19.6363 19.289 18.9641C20.402 18.2924 21.2532 17.3477 21.7511 16.2619C22.2482 15.178 22.3761 13.9922 22.1245 12.8494C21.8726 11.7055 21.2475 10.6393 20.3098 9.79235C19.8999 9.42217 19.8678 8.78982 20.238 8.37997Z" fill="#222222"/>
</svg>
