<svg width="33" height="28" viewBox="0 0 33 28" fill="none" xmlns="http://www.w3.org/2000/svg">
<path fill-rule="evenodd" clip-rule="evenodd" d="M15 7.46548C15 7.30161 15 7.21967 14.9454 7.17467C14.8909 7.12967 14.8122 7.14492 14.6548 7.17544C10.9868 7.88651 8.25 10.6719 8.25 13.9997C8.25 17.8657 11.9437 20.9997 16.5 20.9997C21.0563 20.9997 24.75 17.8657 24.75 13.9997C24.75 10.6719 22.0132 7.88651 18.3452 7.17544C18.1878 7.14492 18.1091 7.12967 18.0546 7.17467C18 7.21967 18 7.30161 18 7.46548V10.4997C18 11.3282 17.3284 11.9997 16.5 11.9997C15.6716 11.9997 15 11.3282 15 10.4997V7.46548Z" fill="#7E869E" fill-opacity="0.25"/>
<path d="M16.5 10.5L16.5 4.66666" stroke="#222222" stroke-linecap="round"/>
<path d="M24.927 6.95663C26.5833 8.36204 27.6995 10.1421 28.1504 12.0657C28.601 13.9878 28.3709 15.9814 27.4837 17.7988C26.5956 19.6181 25.0846 21.1865 23.1286 22.2955C21.1723 23.4046 18.8653 24 16.5 24C14.1347 24 11.8277 23.4046 9.87142 22.2955C7.91535 21.1865 6.40444 19.6181 5.51631 17.7988C4.62908 15.9814 4.39897 13.9878 4.84958 12.0657C5.30053 10.1421 6.41667 8.36204 8.07304 6.95663" stroke="#222222" stroke-linecap="round"/>
</svg>
