<svg width="13" height="15" viewBox="0 0 13 15" fill="none" xmlns="http://www.w3.org/2000/svg">
<path d="M8.58332 3.75H5.08331C3.19769 3.75 2.25489 3.75 1.6691 4.33579C1.08331 4.92157 1.08331 5.86438 1.08331 7.75C1.08331 8.2214 1.08331 8.45711 1.22976 8.60355C1.37621 8.75 1.61191 8.75 2.08331 8.75H4.12951C4.17956 8.75 4.20458 8.75 4.22501 8.74409C4.27445 8.72978 4.31309 8.69113 4.3274 8.6417C4.33331 8.62127 4.33331 8.59624 4.33331 8.5462C4.33331 8.21253 4.33331 8.0457 4.37273 7.90949C4.46811 7.57995 4.72576 7.3223 5.05531 7.22692C5.19151 7.1875 5.35835 7.1875 5.69201 7.1875H7.30795C7.64161 7.1875 7.80844 7.1875 7.94465 7.22692C8.2742 7.3223 8.53185 7.57995 8.62722 7.90949C8.66665 8.0457 8.66665 8.21253 8.66665 8.5462C8.66665 8.59625 8.66665 8.62127 8.67256 8.6417C8.68687 8.69113 8.72551 8.72978 8.77494 8.74409C8.79538 8.75 8.8204 8.75 8.87045 8.75H10.25C10.8731 8.75 11.1846 8.75 11.4166 8.61603C11.5687 8.52826 11.6949 8.40202 11.7827 8.25C11.9166 8.01795 11.9166 7.70641 11.9166 7.08333C11.9166 5.83718 11.9166 5.2141 11.6487 4.75C11.4732 4.44596 11.2207 4.19349 10.9166 4.01795C10.4525 3.75 9.82947 3.75 8.58332 3.75Z" fill="#222222"/>
<path d="M3.79169 2.33696C3.79169 2.25621 3.79169 2.21584 3.79402 2.18176C3.82812 1.68326 4.22494 1.28643 4.72344 1.25233C4.75753 1.25 4.7979 1.25 4.87864 1.25H8.1214C8.20214 1.25 8.24251 1.25 8.2766 1.25233C8.7751 1.28643 9.17192 1.68326 9.20602 2.18176C9.20835 2.21584 9.20835 2.25621 9.20835 2.33696C9.20835 2.34907 9.20835 2.35512 9.208 2.36024C9.20289 2.43501 9.14336 2.49454 9.06859 2.49965C9.06348 2.5 9.05742 2.5 9.04531 2.5H3.95473C3.94262 2.5 3.93656 2.5 3.93145 2.49965C3.85668 2.49454 3.79715 2.43501 3.79204 2.36024C3.79169 2.35512 3.79169 2.34907 3.79169 2.33696Z" fill="#222222"/>
<path fill-rule="evenodd" clip-rule="evenodd" d="M2.70831 12.4337L2.70831 8.875C2.70831 7.93219 2.70831 7.46079 3.00121 7.1679C3.2941 6.875 3.7655 6.875 4.70831 6.875H4.70831L8.29165 6.875C9.23446 6.875 9.70586 6.875 9.99875 7.16789C10.2916 7.46079 10.2916 7.93219 10.2916 8.875V12.4337C10.2916 12.7493 10.2916 12.9071 10.1882 12.9819C10.0847 13.0568 9.93481 13.0074 9.6351 12.9086L8.55236 12.5516C8.47476 12.526 8.43596 12.5132 8.39581 12.5132C8.35567 12.5132 8.31687 12.526 8.23927 12.5516L6.65653 13.0734C6.57893 13.099 6.54013 13.1118 6.49998 13.1118C6.45983 13.1118 6.42103 13.099 6.34343 13.0734L4.76069 12.5516C4.68309 12.526 4.64429 12.5132 4.60415 12.5132C4.564 12.5132 4.5252 12.526 4.4476 12.5516L4.4476 12.5516L4.4476 12.5516L3.36486 12.9086C3.06515 13.0074 2.91529 13.0568 2.8118 12.9819C2.70831 12.9071 2.70831 12.7493 2.70831 12.4337ZM4.41665 8.75C4.41665 8.19771 4.86436 7.75 5.41665 7.75L7.04165 7.75C7.59393 7.75 8.04165 8.19772 8.04165 8.75C8.04165 9.1265 7.83357 9.45441 7.52615 9.625H7.85415C8.40643 9.625 8.85415 10.0727 8.85415 10.625C8.85415 11.1773 8.40643 11.625 7.85415 11.625L5.41665 11.625C4.86436 11.625 4.41665 11.1773 4.41665 10.625C4.41665 10.1954 4.68757 9.82904 5.06788 9.6875C4.68757 9.54596 4.41665 9.17962 4.41665 8.75Z" fill="#222222"/>
</svg>
