<svg width="31" height="29" viewBox="0 0 31 29" fill="none" xmlns="http://www.w3.org/2000/svg">
<path d="M26.625 14.5C26.625 20.1991 21.6761 24.875 15.5 24.875C9.3239 24.875 4.375 20.1991 4.375 14.5C4.375 8.80093 9.3239 4.125 15.5 4.125C21.6761 4.125 26.625 8.80093 26.625 14.5Z" stroke="#222222"/>
<ellipse cx="15.5" cy="21.75" rx="0.645833" ry="0.604167" fill="#222222"/>
<path d="M15.5 19.3333V18.3647C15.5 17.464 15.9644 16.627 16.7287 16.1504L17.5456 15.6409C18.6835 14.9313 19.375 13.6812 19.375 12.3402V12.3402C19.375 10.2 17.6401 8.45833 15.5 8.45833H15.25C13.248 8.45833 11.625 10.0813 11.625 12.0833V12.0833" stroke="#222222"/>
</svg>
