<svg width="31" height="29" viewBox="0 0 31 29" fill="none" xmlns="http://www.w3.org/2000/svg">
<path fill-rule="evenodd" clip-rule="evenodd" d="M27.125 14.5C27.125 20.5061 21.9203 25.375 15.5 25.375C9.07969 25.375 3.875 20.5061 3.875 14.5C3.875 8.4939 9.07969 3.625 15.5 3.625C21.9203 3.625 27.125 8.4939 27.125 14.5ZM16.7917 21.75C16.7917 22.4173 16.2134 22.9583 15.5 22.9583C14.7866 22.9583 14.2083 22.4173 14.2083 21.75C14.2083 21.0827 14.7866 20.5417 15.5 20.5417C16.2134 20.5417 16.7917 21.0827 16.7917 21.75ZM15.25 6.25C12.6957 6.25 10.625 8.32068 10.625 10.875H12.625C12.625 9.42525 13.8003 8.25 15.25 8.25H15.8941C17.2643 8.25 18.375 9.36074 18.375 10.7309V11.2622C18.375 12.0318 17.8746 12.7121 17.1398 12.9412C15.5695 13.4308 14.5 14.8846 14.5 16.5295V19.3333H16.5V16.5295C16.5 15.7599 17.0004 15.0796 17.7352 14.8505C19.3055 14.3608 20.375 12.907 20.375 11.2622V10.7309C20.375 8.25617 18.3688 6.25 15.8941 6.25H15.25Z" fill="#222222"/>
</svg>
