<svg width="33" height="29" viewBox="0 0 33 29" fill="none" xmlns="http://www.w3.org/2000/svg">
<ellipse cx="16.5" cy="14.5" rx="12.375" ry="10.875" fill="#7E869E" fill-opacity="0.25"/>
<path d="M16.5 22.4542C16.9224 22.4542 17.2875 22.1507 17.2875 21.75C17.2875 21.3494 16.9224 21.0458 16.5 21.0458C16.0776 21.0458 15.7125 21.3494 15.7125 21.75C15.7125 22.1507 16.0776 22.4542 16.5 22.4542Z" fill="#222222" stroke="#222222" stroke-width="0.2"/>
<path d="M16.5 19.3333V18.4325C16.5 17.4936 16.9978 16.625 17.8079 16.1504L18.7258 15.6126C19.9022 14.9235 20.625 13.6623 20.625 12.2989V12.2989C20.625 10.1778 18.9055 8.45833 16.7844 8.45833H16C13.998 8.45833 12.375 10.0813 12.375 12.0833V12.0833" stroke="#222222" stroke-width="1.2"/>
</svg>
