<svg width="31" height="29" viewBox="0 0 31 29" fill="none" xmlns="http://www.w3.org/2000/svg">
<path fill-rule="evenodd" clip-rule="evenodd" d="M14.2083 21.75C19.2019 21.75 23.25 17.9631 23.25 13.2917C23.25 8.62026 19.2019 4.83333 14.2083 4.83333C9.21472 4.83333 5.16663 8.62026 5.16663 13.2917C5.16663 17.9631 9.21472 21.75 14.2083 21.75ZM14.2083 7.45833C13.4074 7.45833 12.6129 7.60583 11.8698 7.8938C11.1265 8.1818 10.4471 8.60549 9.87175 9.14371C9.29628 9.68206 8.83595 10.3248 8.52054 11.0372C8.20504 11.7497 8.04163 12.516 8.04163 13.2917C8.04163 13.844 8.48934 14.2917 9.04163 14.2917C9.59391 14.2917 10.0416 13.844 10.0416 13.2917C10.0416 12.7979 10.1455 12.3072 10.3493 11.8469C10.5532 11.3864 10.854 10.9635 11.2381 10.6043C11.6223 10.2448 12.0819 9.95649 12.5924 9.75869C13.1029 9.56087 13.6522 9.45833 14.2083 9.45833C14.7606 9.45833 15.2083 9.01062 15.2083 8.45833C15.2083 7.90605 14.7606 7.45833 14.2083 7.45833Z" fill="#222222"/>
<path d="M25.8333 24.1667L23.25 21.75" stroke="#222222" stroke-width="2" stroke-linecap="round"/>
</svg>
