<svg width="33" height="28" viewBox="0 0 33 28" fill="none" xmlns="http://www.w3.org/2000/svg">
<path fill-rule="evenodd" clip-rule="evenodd" d="M16.5 22.1667C21.8157 22.1667 26.125 18.5103 26.125 14C26.125 9.48967 21.8157 5.83333 16.5 5.83333C11.1843 5.83333 6.875 9.48967 6.875 14C6.875 18.5103 11.1843 22.1667 16.5 22.1667ZM13.6744 8.47627C14.5666 8.16273 15.5271 8 16.5 8C16.7761 8 17 7.77614 17 7.5C17 7.22386 16.7761 7 16.5 7C15.4166 7 14.3438 7.18106 13.3429 7.53284C12.3419 7.88463 11.4324 8.40024 10.6664 9.05025C9.90028 9.70027 9.29259 10.4719 8.87799 11.3212C8.46339 12.1705 8.25 13.0808 8.25 14C8.25 14.2761 8.47386 14.5 8.75 14.5C9.02614 14.5 9.25 14.2761 9.25 14C9.25 13.2371 9.42679 12.4765 9.77663 11.7599C10.1268 11.0425 10.6459 10.3791 11.3133 9.81276C11.9811 9.24618 12.7823 8.78983 13.6744 8.47627Z" fill="#7E869E" fill-opacity="0.25"/>
<path d="M28.1875 23.9167L23.375 19.8333" stroke="#222222" stroke-linecap="round"/>
<path d="M27 12.8333C27 18.2823 21.7636 22.8333 15.125 22.8333C8.48645 22.8333 3.25 18.2823 3.25 12.8333C3.25 7.38436 8.48645 2.83333 15.125 2.83333C21.7636 2.83333 27 7.38436 27 12.8333Z" stroke="#222222"/>
</svg>
