<svg width="33" height="29" viewBox="0 0 33 29" fill="none" xmlns="http://www.w3.org/2000/svg">
<path fill-rule="evenodd" clip-rule="evenodd" d="M15.125 20.5417C19.6813 20.5417 23.375 17.2957 23.375 13.2917C23.375 9.2876 19.6813 6.04167 15.125 6.04167C10.5687 6.04167 6.875 9.2876 6.875 13.2917C6.875 17.2957 10.5687 20.5417 15.125 20.5417ZM13.3623 9.76593C13.9181 9.56363 14.5174 9.45833 15.125 9.45833C15.4011 9.45833 15.625 9.23448 15.625 8.95833C15.625 8.68219 15.4011 8.45833 15.125 8.45833C14.4027 8.45833 13.6875 8.58335 13.0202 8.82625C12.3529 9.06915 11.7466 9.42517 11.2359 9.87399C10.7252 10.3228 10.3201 10.8556 10.0437 11.442C9.76726 12.0284 9.625 12.6569 9.625 13.2917C9.625 13.5678 9.84886 13.7917 10.125 13.7917C10.4011 13.7917 10.625 13.5678 10.625 13.2917C10.625 12.8076 10.7333 12.3244 10.9482 11.8684C11.1634 11.4119 11.4831 10.9881 11.896 10.6252C12.3092 10.262 12.8066 9.96822 13.3623 9.76593Z" fill="#222222"/>
<path fill-rule="evenodd" clip-rule="evenodd" d="M24.6513 18.125C24.8029 17.8942 24.7387 17.5842 24.508 17.4326C24.2772 17.281 23.9672 17.3451 23.8155 17.5759C22.9522 18.89 21.7 19.9965 20.1726 20.7715C19.9263 20.8964 19.828 21.1973 19.9529 21.4436C20.0778 21.6898 20.3788 21.7882 20.625 21.6632C21.3051 21.3182 21.9383 20.9116 22.5152 20.4517L26.4825 23.9381C26.6899 24.1204 27.0058 24.1 27.1881 23.8926C27.3704 23.6851 27.35 23.3692 27.1426 23.1869L23.2727 19.7861C23.796 19.2791 24.2586 18.7227 24.6513 18.125Z" fill="#7E869E" fill-opacity="0.25"/>
</svg>
