<svg width="31" height="28" viewBox="0 0 31 28" fill="none" xmlns="http://www.w3.org/2000/svg">
<path fill-rule="evenodd" clip-rule="evenodd" d="M17.9289 2.66169C18.1463 2.90153 18.1863 3.26314 18.2664 3.98636V3.98637C18.4111 5.293 18.4834 5.94632 18.8917 6.20321C18.9762 6.25638 19.0682 6.29659 19.1647 6.3225C19.6306 6.44772 20.1592 6.05707 21.2164 5.27575L21.4913 5.0726C22.1211 4.60718 22.436 4.37448 22.7924 4.39198C23.1489 4.40949 23.4394 4.67194 24.0206 5.19685L25.1998 6.26194C25.6834 6.69875 25.9252 6.91715 26.0052 7.18608C26.0508 7.33956 26.059 7.50175 26.0289 7.65901C25.9762 7.9346 25.7574 8.17609 25.3199 8.65907L25.3199 8.65908C24.5133 9.54951 24.11 9.99472 24.1244 10.4005C24.1324 10.6272 24.2172 10.8444 24.365 11.0165C24.6294 11.3246 25.2277 11.3786 26.4243 11.4867L26.7328 11.5146C27.4649 11.5807 27.831 11.6138 28.0758 11.8284C28.1314 11.8771 28.1815 11.9319 28.225 11.9916C28.4167 12.2548 28.4167 12.6223 28.4167 13.3574V14.6427C28.4167 15.3777 28.4167 15.7451 28.2251 16.0083C28.1815 16.0681 28.1314 16.1229 28.0757 16.1717C27.8309 16.3862 27.4649 16.4193 26.733 16.4854L26.4244 16.5133C25.2282 16.6213 24.6301 16.6753 24.3656 16.9833C24.2177 17.1555 24.1328 17.3729 24.1249 17.5997C24.1106 18.0053 24.5138 18.4504 25.3201 19.3405L25.3201 19.3406C25.7575 19.8234 25.9762 20.0648 26.0289 20.3403C26.059 20.4977 26.0509 20.66 26.0052 20.8135C25.9252 21.0824 25.6835 21.3007 25.2 21.7374L24.0206 22.8026C23.4395 23.3275 23.1489 23.59 22.7925 23.6075C22.4361 23.625 22.1212 23.3923 21.4914 22.9269L21.2168 22.7239C20.1593 21.9424 19.6305 21.5517 19.1645 21.677C19.0682 21.7029 18.9764 21.7431 18.892 21.7961C18.4835 22.053 18.4111 22.7065 18.2664 24.0135C18.1863 24.7368 18.1463 25.0985 17.9288 25.3384C17.8822 25.3898 17.8303 25.4362 17.7741 25.4769C17.5118 25.6667 17.1479 25.6667 16.4201 25.6667H14.5799C13.8522 25.6667 13.4884 25.6667 13.2261 25.4769C13.1698 25.4362 13.1179 25.3898 13.0712 25.3383C12.8538 25.0985 12.8138 24.7369 12.7337 24.0136C12.589 22.7069 12.5167 22.0536 12.1083 21.7967C12.0238 21.7435 11.9318 21.7033 11.8354 21.6774C11.3695 21.5522 10.8409 21.9429 9.7836 22.7242L9.50864 22.9274C8.87885 23.3928 8.56395 23.6255 8.20754 23.608C7.85113 23.5905 7.56056 23.3281 6.97941 22.8032L5.80021 21.7381C5.3166 21.3013 5.07479 21.0828 4.9948 20.8139C4.94915 20.6604 4.94102 20.4983 4.97109 20.341C5.02379 20.0654 5.24254 19.8239 5.68006 19.3409C6.48666 18.4505 6.88996 18.0053 6.87562 17.5995C6.86761 17.3728 6.78277 17.1556 6.63503 16.9835C6.37057 16.6754 5.77228 16.6214 4.57569 16.5133L4.26724 16.4854C3.53518 16.4193 3.16914 16.3862 2.92428 16.1716C2.86866 16.1229 2.81862 16.0681 2.77508 16.0084C2.58337 15.7452 2.58337 15.3777 2.58337 14.6426L2.58337 13.3575C2.58337 12.6223 2.58337 12.2547 2.77515 11.9915C2.81865 11.9318 2.86863 11.8771 2.92418 11.8284C3.16907 11.6138 3.53518 11.5807 4.2674 11.5146L4.57575 11.4867C5.77272 11.3786 6.3712 11.3245 6.63567 11.0163C6.78326 10.8443 6.86804 10.6272 6.8761 10.4007C6.89054 9.99479 6.48711 9.54943 5.68026 8.65871L5.68026 8.6587C5.24261 8.17557 5.02379 7.934 4.97112 7.65831C4.94109 7.50116 4.94922 7.33909 4.99481 7.18572C5.07478 6.91669 5.31666 6.69821 5.80043 6.26126L5.80043 6.26126L6.97947 5.19632L6.97948 5.19632C7.56062 4.67141 7.85119 4.40896 8.2076 4.39145C8.56401 4.37395 8.8789 4.60666 9.5087 5.07207L9.78393 5.27547C10.841 6.05662 11.3695 6.4472 11.8353 6.32209C11.9318 6.29616 12.024 6.2559 12.1086 6.20266C12.5168 5.94575 12.5891 5.29257 12.7337 3.9862C12.8138 3.26314 12.8538 2.9016 13.0711 2.66179C13.1178 2.61025 13.1698 2.56372 13.2262 2.52296C13.4885 2.33333 13.8522 2.33333 14.5797 2.33333H16.4202C17.1479 2.33333 17.5117 2.33333 17.774 2.52304C17.8303 2.56375 17.8822 2.61022 17.9289 2.66169ZM15.5 18.6667C18.3535 18.6667 20.6667 16.5773 20.6667 14C20.6667 11.4227 18.3535 9.33333 15.5 9.33333C12.6466 9.33333 10.3334 11.4227 10.3334 14C10.3334 16.5773 12.6466 18.6667 15.5 18.6667Z" fill="#222222"/>
</svg>
