<svg width="31" height="28" viewBox="0 0 31 28" fill="none" xmlns="http://www.w3.org/2000/svg">
<path d="M21.2164 5.27575L20.8599 4.79322L21.2164 5.27575ZM19.1647 6.3225L19.0089 6.90194L19.1647 6.3225ZM18.8917 6.20321L19.2112 5.69535L18.8917 6.20321ZM24.0206 5.19685L24.4227 4.75159L24.0206 5.19685ZM22.7924 4.39198L22.8219 3.79271L22.7924 4.39198ZM26.0289 7.65901L25.4396 7.54632L26.0289 7.65901ZM25.1998 6.26194L24.7976 6.7072L25.1998 6.26194ZM26.0052 7.18608L26.5803 7.01502L26.0052 7.18608ZM26.4243 11.4867L26.4783 10.8891L26.4243 11.4867ZM24.365 11.0165L23.9097 11.4073L24.365 11.0165ZM24.1244 10.4005L23.5248 10.4217L24.1244 10.4005ZM28.225 11.9916L28.71 11.6383L28.225 11.9916ZM26.7328 11.5146L26.6788 12.1121L26.7328 11.5146ZM28.0758 11.8284L27.6804 12.2796L28.0758 11.8284ZM28.0757 16.1717L27.6803 15.7204L28.0757 16.1717ZM28.2251 16.0083L27.7401 15.6551L28.2251 16.0083ZM24.1249 17.5997L23.5252 17.5787L24.1249 17.5997ZM26.4244 16.5133L26.3704 15.9157L26.4244 16.5133ZM24.3656 16.9833L24.8208 17.3742L24.3656 16.9833ZM25.2 21.7374L24.7978 21.2921L25.2 21.7374ZM26.0052 20.8135L25.4301 20.6424L26.0052 20.8135ZM26.0289 20.3403L26.6182 20.2275L26.0289 20.3403ZM21.4914 22.9269L21.848 22.4443L21.4914 22.9269ZM24.0206 22.8026L24.4228 23.2479L24.0206 22.8026ZM22.7925 23.6075L22.7631 23.0082L22.7925 23.6075ZM18.892 21.7961L18.5726 21.2882L18.892 21.7961ZM21.2168 22.7239L20.8602 23.2065L21.2168 22.7239ZM19.1645 21.677L19.3204 22.2564L19.1645 21.677ZM17.7741 25.4769L17.4224 24.9907L17.7741 25.4769ZM17.9288 25.3384L17.4843 24.9354L17.9288 25.3384ZM13.0712 25.3383L13.5158 24.9353L13.0712 25.3383ZM13.2261 25.4769L12.8744 25.9631L13.2261 25.4769ZM9.7836 22.7242L9.427 22.2417L9.7836 22.7242ZM11.8354 21.6774L11.9912 21.098L11.8354 21.6774ZM12.1083 21.7967L11.7888 22.3046L12.1083 21.7967ZM6.97941 22.8032L6.57724 23.2484L6.97941 22.8032ZM9.50864 22.9274L9.15204 22.4449L9.50864 22.9274ZM8.20754 23.608L8.23698 23.0087L8.20754 23.608ZM4.97109 20.341L4.38177 20.2283L4.97109 20.341ZM5.80021 21.7381L6.20239 21.2928L5.80021 21.7381ZM4.9948 20.8139L4.4197 20.985L4.9948 20.8139ZM4.57569 16.5133L4.52172 17.1108L4.57569 16.5133ZM6.63503 16.9835L6.17976 17.3743L6.63503 16.9835ZM6.87562 17.5995L7.47525 17.5783L6.87562 17.5995ZM2.58337 14.6426H3.18337H2.58337ZM2.77508 16.0084L2.2901 16.3616L2.77508 16.0084ZM4.26724 16.4854L4.32122 15.8879L4.26724 16.4854ZM2.92428 16.1716L2.52882 16.6229L2.92428 16.1716ZM4.2674 11.5146L4.21342 10.917L4.2674 11.5146ZM2.58337 13.3575H1.98337H2.58337ZM2.77515 11.9915L2.29022 11.6382L2.77515 11.9915ZM6.8761 10.4007L6.27648 10.3793L6.8761 10.4007ZM4.57575 11.4867L4.62973 12.0843L4.57575 11.4867ZM6.63567 11.0163L7.09103 11.407L6.63567 11.0163ZM5.80043 6.26126L6.2026 6.70652L5.80043 6.26126ZM4.99481 7.18572L4.41968 7.01476L4.99481 7.18572ZM4.97112 7.65831L4.38178 7.77091L4.97112 7.65831ZM9.5087 5.07207L9.1521 5.55461L9.5087 5.07207ZM6.97947 5.19632L6.5773 4.75106L6.97947 5.19632ZM8.2076 4.39145L8.23704 4.99073L8.2076 4.39145ZM12.1086 6.20266L11.789 5.69485L12.1086 6.20266ZM9.78393 5.27547L10.1405 4.79294L9.78393 5.27547ZM11.8353 6.32209L11.6797 5.74263L11.8353 6.32209ZM17.774 2.52304L18.1256 2.03686L17.774 2.52304ZM17.9289 2.66169L18.3734 2.25871L17.9289 2.66169ZM13.2262 2.52296L13.5777 3.00918L13.2262 2.52296ZM13.0711 2.66179L12.6266 2.25886L13.0711 2.66179ZM14.5797 2.93333H16.4202V1.73333H14.5797V2.93333ZM9.1521 5.55461L9.42734 5.75801L10.1405 4.79294L9.86529 4.58954L9.1521 5.55461ZM6.2026 6.70652L7.38165 5.64158L6.5773 4.75106L5.39826 5.816L6.2026 6.70652ZM4.32137 12.1121L4.62973 12.0843L4.52178 10.8891L4.21342 10.917L4.32137 12.1121ZM3.18337 14.6426L3.18337 13.3575H1.98337L1.98337 14.6426H3.18337ZM4.62967 15.9157L4.32122 15.8879L4.21327 17.083L4.52172 17.1108L4.62967 15.9157ZM7.38159 22.3579L6.20239 21.2928L5.39804 22.1833L6.57724 23.2484L7.38159 22.3579ZM9.427 22.2417L9.15204 22.4449L9.86523 23.4099L10.1402 23.2067L9.427 22.2417ZM16.4201 25.0667H14.5799V26.2667H16.4201V25.0667ZM21.848 22.4443L21.5734 22.2414L20.8602 23.2065L21.1348 23.4094L21.848 22.4443ZM24.7978 21.2921L23.6185 22.3574L24.4228 23.2479L25.6022 22.1827L24.7978 21.2921ZM26.679 15.8878L26.3704 15.9157L26.4783 17.1109L26.7869 17.083L26.679 15.8878ZM27.8167 13.3574V14.6427H29.0167V13.3574H27.8167ZM26.3703 12.0843L26.6788 12.1121L26.7868 10.917L26.4783 10.8891L26.3703 12.0843ZM23.6184 5.64211L24.7976 6.7072L25.6019 5.81668L24.4227 4.75159L23.6184 5.64211ZM21.573 5.75829L21.8479 5.55514L21.1347 4.59007L20.8599 4.79322L21.573 5.75829ZM20.8599 4.79322C20.3174 5.19409 19.9575 5.45855 19.6768 5.61492C19.3965 5.77108 19.3234 5.74388 19.3204 5.74307L19.0089 6.90194C19.4718 7.02635 19.896 6.86644 20.2608 6.66324C20.6252 6.46026 21.0582 6.13872 21.573 5.75829L20.8599 4.79322ZM17.67 4.05238C17.7405 4.68861 17.7986 5.22485 17.8972 5.63016C17.9958 6.0359 18.1665 6.45585 18.5722 6.71108L19.2112 5.69535C19.2086 5.69369 19.139 5.65853 19.0632 5.34672C18.9873 5.03449 18.937 4.59075 18.8627 3.92033L17.67 4.05238ZM19.3204 5.74307C19.2818 5.7327 19.245 5.71662 19.2112 5.69535L18.5722 6.71108C18.7075 6.79614 18.8547 6.86048 19.0089 6.90194L19.3204 5.74307ZM24.4227 4.75159C24.1433 4.49923 23.8941 4.27269 23.6672 4.11325C23.4268 3.94431 23.1558 3.80911 22.8219 3.79271L22.763 4.99126C22.7855 4.99236 22.8379 4.99715 22.9772 5.09504C23.13 5.20242 23.3166 5.36956 23.6184 5.64211L24.4227 4.75159ZM21.8479 5.55514C22.1749 5.31348 22.377 5.16543 22.5396 5.07354C22.6878 4.98977 22.7405 4.99016 22.763 4.99126L22.8219 3.79271C22.4879 3.7763 22.205 3.88429 21.9492 4.02885C21.7078 4.16529 21.4375 4.36631 21.1347 4.59007L21.8479 5.55514ZM25.7646 9.06188C25.9756 8.82896 26.1625 8.62362 26.2994 8.44041C26.4416 8.2501 26.5677 8.03576 26.6182 7.77171L25.4396 7.54632C25.4374 7.55785 25.4278 7.60205 25.3381 7.72212C25.243 7.8493 25.1018 8.0062 24.8752 8.25626L25.7646 9.06188ZM24.7976 6.7072C25.048 6.93335 25.2042 7.07533 25.3115 7.19237C25.4128 7.30287 25.4267 7.3459 25.4301 7.35715L26.5803 7.01502C26.5036 6.75734 26.3567 6.5567 26.1962 6.38156C26.0416 6.21296 25.8352 6.02734 25.6019 5.81668L24.7976 6.7072ZM26.6182 7.77171C26.6663 7.52008 26.6533 7.26058 26.5803 7.01502L25.4301 7.35715C25.4483 7.41854 25.4516 7.48341 25.4396 7.54632L26.6182 7.77171ZM26.4783 10.8891C25.8661 10.8338 25.4551 10.7959 25.1612 10.7379C24.858 10.6781 24.8148 10.6194 24.8202 10.6257L23.9097 11.4073C24.1796 11.7217 24.5678 11.844 24.929 11.9153C25.2995 11.9884 25.7859 12.0315 26.3703 12.0843L26.4783 10.8891ZM24.8752 8.25626C24.4813 8.69114 24.1529 9.05251 23.93 9.35738C23.7127 9.65459 23.5101 10.0076 23.5248 10.4217L24.724 10.3793C24.7243 10.3876 24.7162 10.3151 24.8986 10.0657C25.0754 9.82388 25.352 9.51743 25.7646 9.06188L24.8752 8.25626ZM24.8202 10.6257C24.7611 10.5569 24.7272 10.47 24.724 10.3793L23.5248 10.4217C23.5376 10.7844 23.6733 11.1319 23.9097 11.4073L24.8202 10.6257ZM29.0167 13.3574C29.0167 13.0034 29.0176 12.6889 28.9891 12.4316C28.9592 12.1616 28.8916 11.8877 28.71 11.6383L27.74 12.3449C27.7501 12.3587 27.7783 12.4002 27.7964 12.5635C27.8159 12.7396 27.8167 12.9763 27.8167 13.3574H29.0167ZM26.6788 12.1121C27.0584 12.1464 27.2941 12.1686 27.4677 12.2038C27.6288 12.2365 27.6675 12.2683 27.6804 12.2796L28.4713 11.3771C28.2393 11.1738 27.9726 11.0818 27.7064 11.0278C27.4527 10.9763 27.1393 10.9488 26.7868 10.917L26.6788 12.1121ZM28.71 11.6383C28.6403 11.5427 28.5603 11.4551 28.4713 11.3771L27.6804 12.2796C27.7026 12.2991 27.7226 12.321 27.74 12.3449L28.71 11.6383ZM26.7869 17.083C27.1394 17.0511 27.4527 17.0237 27.7063 16.9722C27.9725 16.9182 28.2392 16.8262 28.4711 16.623L27.6803 15.7204C27.6674 15.7317 27.6287 15.7635 27.4677 15.7962C27.2941 15.8314 27.0585 15.8536 26.679 15.8878L26.7869 17.083ZM27.8167 14.6427C27.8167 15.0238 27.8159 15.2605 27.7964 15.4365C27.7783 15.5998 27.7501 15.6412 27.7401 15.6551L28.7101 16.3615C28.8916 16.1122 28.9593 15.8383 28.9891 15.5684C29.0176 15.3111 29.0167 14.9966 29.0167 14.6427H27.8167ZM28.4711 16.623C28.5602 16.5449 28.6404 16.4572 28.7101 16.3615L27.7401 15.6551C27.7226 15.679 27.7026 15.7009 27.6803 15.7204L28.4711 16.623ZM25.7648 18.9377C25.3523 18.4823 25.0759 18.176 24.8991 17.9343C24.7167 17.6849 24.7248 17.6124 24.7245 17.6208L23.5252 17.5787C23.5107 17.9926 23.7132 18.3455 23.9305 18.6426C24.1533 18.9474 24.4816 19.3086 24.8755 19.7434L25.7648 18.9377ZM26.3704 15.9157C25.7862 15.9685 25.2999 16.0116 24.9295 16.0847C24.5684 16.1559 24.1803 16.2781 23.9104 16.5923L24.8208 17.3742C24.8154 17.3805 24.8586 17.3218 25.1617 17.262C25.4555 17.204 25.8663 17.1661 26.4783 17.1109L26.3704 15.9157ZM24.7245 17.6208C24.7277 17.53 24.7616 17.4431 24.8208 17.3742L23.9104 16.5923C23.6738 16.8679 23.538 17.2157 23.5252 17.5787L24.7245 17.6208ZM25.6022 22.1827C25.8353 21.9721 26.0417 21.7865 26.1962 21.618C26.3567 21.4429 26.5036 21.2423 26.5803 20.9847L25.4301 20.6424C25.4268 20.6536 25.4128 20.6966 25.3116 20.8071C25.2043 20.9241 25.0481 21.066 24.7978 21.2921L25.6022 22.1827ZM24.8755 19.7434C25.1019 19.9934 25.2431 20.1502 25.3381 20.2773C25.4278 20.3974 25.4374 20.4416 25.4396 20.4531L26.6182 20.2275C26.5677 19.9635 26.4416 19.7493 26.2994 19.559C26.1625 19.3759 25.9757 19.1706 25.7648 18.9377L24.8755 19.7434ZM26.5803 20.9847C26.6534 20.739 26.6664 20.4793 26.6182 20.2275L25.4396 20.4531C25.4517 20.516 25.4484 20.581 25.4301 20.6424L26.5803 20.9847ZM21.1348 23.4094C21.4376 23.6332 21.7078 23.8342 21.9493 23.9706C22.205 24.1152 22.488 24.2232 22.8219 24.2068L22.7631 23.0082C22.7406 23.0093 22.6879 23.0097 22.5397 22.9259C22.3771 22.834 22.175 22.686 21.848 22.4443L21.1348 23.4094ZM23.6185 22.3574C23.3167 22.6299 23.1301 22.7971 22.9773 22.9044C22.838 23.0023 22.7855 23.0071 22.7631 23.0082L22.8219 24.2068C23.1559 24.1904 23.4269 24.0552 23.6673 23.8862C23.8942 23.7268 24.1434 23.5002 24.4228 23.2479L23.6185 22.3574ZM18.8628 24.0795C18.937 23.4089 18.9874 22.9651 19.0633 22.6528C19.1391 22.3409 19.2087 22.3057 19.2114 22.3041L18.5726 21.2882C18.1667 21.5434 17.9959 21.9635 17.8972 22.3693C17.7987 22.7747 17.7405 23.311 17.6701 23.9474L18.8628 24.0795ZM21.5734 22.2414C21.0585 21.8609 20.6253 21.5393 20.2608 21.3362C19.8959 21.133 19.4716 20.9731 19.0087 21.0976L19.3204 22.2564C19.3234 22.2556 19.3965 22.2284 19.6769 22.3846C19.9576 22.541 20.3176 22.8055 20.8602 23.2065L21.5734 22.2414ZM19.2114 22.3041C19.2451 22.2828 19.2819 22.2668 19.3204 22.2564L19.0087 21.0976C18.8546 21.1391 18.7076 21.2033 18.5726 21.2882L19.2114 22.3041ZM16.4201 26.2667C16.7704 26.2667 17.0822 26.2675 17.3375 26.2393C17.6057 26.2097 17.8776 26.1426 18.1258 25.963L17.4224 24.9907C17.4083 25.001 17.3671 25.0287 17.2058 25.0466C17.0316 25.0658 16.7975 25.0667 16.4201 25.0667V26.2667ZM17.6701 23.9474C17.6285 24.3226 17.6019 24.5551 17.5636 24.7261C17.5282 24.8845 17.496 24.9225 17.4843 24.9354L18.3732 25.7415C18.579 25.5145 18.6757 25.2517 18.7346 24.9884C18.7907 24.7377 18.8242 24.4277 18.8628 24.0795L17.6701 23.9474ZM18.1258 25.963C18.2157 25.8979 18.2987 25.8237 18.3732 25.7415L17.4843 24.9354C17.4657 24.9559 17.4449 24.9745 17.4224 24.9907L18.1258 25.963ZM12.1373 24.0796C12.1759 24.4278 12.2093 24.7377 12.2655 24.9883C12.3244 25.2516 12.421 25.5144 12.6267 25.7413L13.5158 24.9353C13.5041 24.9224 13.4719 24.8845 13.4365 24.7261C13.3982 24.5552 13.3716 24.3227 13.33 23.9476L12.1373 24.0796ZM14.5799 25.0667C14.2025 25.0667 13.9685 25.0658 13.7943 25.0466C13.633 25.0288 13.5918 25.001 13.5777 24.9908L12.8744 25.9631C13.1226 26.1426 13.3945 26.2097 13.6626 26.2393C13.9178 26.2675 14.2296 26.2667 14.5799 26.2667V25.0667ZM12.6267 25.7413C12.7014 25.8236 12.7844 25.898 12.8744 25.9631L13.5777 24.9908C13.5552 24.9745 13.5344 24.9559 13.5158 24.9353L12.6267 25.7413ZM10.1402 23.2067C10.6827 22.8058 11.0425 22.5414 11.3233 22.385C11.6036 22.2289 11.6767 22.2561 11.6797 22.2569L11.9912 21.098C11.5283 20.9736 11.1041 21.1335 10.7393 21.3367C10.3749 21.5397 9.94182 21.8612 9.427 22.2417L10.1402 23.2067ZM13.33 23.9476C13.2596 23.3113 13.2014 22.7751 13.1029 22.3698C13.0043 21.964 12.8335 21.5441 12.4278 21.2888L11.7888 22.3046C11.7915 22.3062 11.8611 22.3414 11.9369 22.6532C12.0128 22.9655 12.0631 23.4092 12.1373 24.0796L13.33 23.9476ZM11.6797 22.2569C11.7182 22.2672 11.755 22.2833 11.7888 22.3046L12.4278 21.2888C12.2926 21.2038 12.1454 21.1395 11.9912 21.098L11.6797 22.2569ZM6.57724 23.2484C6.85664 23.5008 7.10588 23.7273 7.33276 23.8868C7.57314 24.0557 7.84416 24.1909 8.1781 24.2073L8.23698 23.0087C8.21451 23.0076 8.16204 23.0029 8.02275 22.905C7.86995 22.7976 7.68334 22.6304 7.38159 22.3579L6.57724 23.2484ZM9.15204 22.4449C8.82503 22.6865 8.62293 22.8346 8.46035 22.9265C8.31214 23.0102 8.25945 23.0098 8.23698 23.0087L8.1781 24.2073C8.51204 24.2237 8.795 24.1157 9.05079 23.9712C9.29221 23.8347 9.56245 23.6337 9.86523 23.4099L9.15204 22.4449ZM5.23537 18.9381C5.02438 19.171 4.83752 19.3764 4.70063 19.5596C4.55842 19.7499 4.43226 19.9642 4.38177 20.2283L5.56041 20.4537C5.56262 20.4422 5.57219 20.398 5.66191 20.2779C5.75694 20.1507 5.89822 19.9938 6.12474 19.7437L5.23537 18.9381ZM6.20239 21.2928C5.952 21.0667 5.79574 20.9247 5.68846 20.8076C5.58718 20.6971 5.57324 20.6541 5.5699 20.6429L4.4197 20.985C4.49634 21.2427 4.6433 21.4433 4.80383 21.6184C4.95836 21.787 5.16481 21.9727 5.39804 22.1833L6.20239 21.2928ZM4.38177 20.2283C4.33365 20.4799 4.34666 20.7394 4.4197 20.985L5.5699 20.6429C5.55164 20.5815 5.54838 20.5166 5.56041 20.4537L4.38177 20.2283ZM4.52172 17.1108C5.1339 17.1661 5.54493 17.2041 5.83879 17.262C6.14198 17.3218 6.18518 17.3806 6.17976 17.3743L7.0903 16.5927C6.82042 16.2783 6.43225 16.156 6.07103 16.0847C5.70049 16.0116 5.21407 15.9685 4.62967 15.9157L4.52172 17.1108ZM6.12474 19.7437C6.51868 19.3089 6.84711 18.9475 7.07003 18.6426C7.28735 18.3454 7.48988 17.9924 7.47525 17.5783L6.276 17.6207C6.2757 17.6124 6.28376 17.6849 6.10136 17.9343C5.92456 18.1761 5.64804 18.4826 5.23537 18.9381L6.12474 19.7437ZM6.17976 17.3743C6.23885 17.4431 6.27279 17.53 6.276 17.6207L7.47525 17.5783C7.46243 17.2156 7.32668 16.868 7.0903 16.5927L6.17976 17.3743ZM1.98337 14.6426C1.98337 14.9966 1.98252 15.3111 2.01097 15.5684C2.04083 15.8384 2.10848 16.1123 2.2901 16.3616L3.26006 15.6551C3.24997 15.6412 3.22177 15.5998 3.2037 15.4365C3.18423 15.2604 3.18337 15.0237 3.18337 14.6426H1.98337ZM4.32122 15.8879C3.94167 15.8536 3.70597 15.8314 3.5324 15.7962C3.37133 15.7635 3.33262 15.7317 3.31973 15.7204L2.52882 16.6229C2.7608 16.8262 3.02754 16.9182 3.29372 16.9722C3.5474 17.0237 3.86075 17.0511 4.21327 17.083L4.32122 15.8879ZM2.2901 16.3616C2.35977 16.4573 2.43983 16.5449 2.52882 16.6229L3.31973 15.7204C3.29749 15.7009 3.27747 15.679 3.26006 15.6551L2.2901 16.3616ZM4.21342 10.917C3.86083 10.9488 3.54742 10.9763 3.29369 11.0278C3.02746 11.0818 2.76067 11.1739 2.52867 11.3773L3.3197 12.2796C3.33259 12.2683 3.3713 12.2365 3.53239 12.2038C3.706 12.1686 3.94175 12.1464 4.32137 12.1121L4.21342 10.917ZM3.18337 13.3575C3.18337 12.9764 3.18423 12.7396 3.20371 12.5635C3.22178 12.4001 3.24999 12.3587 3.26008 12.3449L2.29022 11.6382C2.10853 11.8876 2.04085 12.1616 2.01098 12.4316C1.98252 12.6889 1.98337 13.0035 1.98337 13.3575H3.18337ZM2.52867 11.3773C2.43979 11.4552 2.35982 11.5427 2.29022 11.6382L3.26008 12.3449C3.27748 12.321 3.29748 12.2991 3.3197 12.2796L2.52867 11.3773ZM5.23558 9.06152C5.64837 9.51722 5.92498 9.82377 6.10182 10.0656C6.28426 10.3152 6.27618 10.3877 6.27648 10.3793L7.47572 10.422C7.49046 10.0078 7.28788 9.65468 7.07051 9.35738C6.84753 9.0524 6.519 8.69091 6.12494 8.25589L5.23558 9.06152ZM4.62973 12.0843C5.21432 12.0315 5.70088 11.9883 6.07153 11.9152C6.43286 11.8439 6.82114 11.7216 7.09103 11.407L6.18031 10.6256C6.18573 10.6193 6.14253 10.6781 5.83926 10.7379C5.54531 10.7959 5.13415 10.8338 4.52178 10.8891L4.62973 12.0843ZM6.27648 10.3793C6.27325 10.47 6.23934 10.5568 6.18031 10.6256L7.09103 11.407C7.32718 11.1318 7.46282 10.7845 7.47572 10.422L6.27648 10.3793ZM5.39826 5.816C5.16495 6.02673 4.95844 6.21241 4.80387 6.38106C4.6433 6.55626 4.49631 6.75698 4.41968 7.01476L5.56993 7.35668C5.57328 7.34543 5.58722 7.30239 5.68852 7.19185C5.79583 7.07478 5.95214 6.93275 6.2026 6.70652L5.39826 5.816ZM6.12494 8.25589C5.89835 8.00575 5.75703 7.84881 5.66197 7.72158C5.57223 7.60147 5.56266 7.55726 5.56046 7.54572L4.38178 7.77091C4.43224 8.03506 4.55842 8.24946 4.70067 8.43985C4.8376 8.62311 5.02451 8.82852 5.23558 9.06152L6.12494 8.25589ZM4.41968 7.01476C4.34674 7.26015 4.33374 7.51945 4.38178 7.77091L5.56046 7.54572C5.54845 7.48286 5.5517 7.41803 5.56993 7.35668L4.41968 7.01476ZM9.86529 4.58954C9.56251 4.36578 9.29227 4.16477 9.05085 4.02832C8.79506 3.88376 8.5121 3.77577 8.17816 3.79218L8.23704 4.99073C8.2595 4.98963 8.3122 4.98925 8.46041 5.07301C8.62299 5.1649 8.82509 5.31295 9.1521 5.55461L9.86529 4.58954ZM7.38165 5.64158C7.6834 5.36903 7.87001 5.20189 8.0228 5.09451C8.16209 4.99662 8.21457 4.99184 8.23704 4.99073L8.17816 3.79218C7.84422 3.80858 7.5732 3.94378 7.33282 4.11272C7.10593 4.27217 6.85669 4.4987 6.5773 4.75106L7.38165 5.64158ZM12.1374 3.92018C12.0631 4.59045 12.0128 5.0341 11.9369 5.34627C11.8612 5.65803 11.7916 5.69319 11.789 5.69485L12.4281 6.71046C12.8337 6.45522 13.0044 6.03534 13.103 5.62968C13.2015 5.22445 13.2596 4.68832 13.3301 4.05223L12.1374 3.92018ZM9.42734 5.75801C9.94203 6.13837 10.375 6.45983 10.7393 6.66278C11.104 6.86595 11.5281 7.02585 11.9909 6.90156L11.6797 5.74263C11.6766 5.74344 11.6036 5.77061 11.3233 5.61447C11.0427 5.45813 10.6829 5.19373 10.1405 4.79294L9.42734 5.75801ZM11.789 5.69485C11.7551 5.71615 11.7183 5.73226 11.6797 5.74263L11.9909 6.90156C12.1454 6.86007 12.2928 6.79566 12.4281 6.71046L11.789 5.69485ZM16.4202 2.93333C16.7976 2.93333 17.0316 2.93418 17.2058 2.95342C17.367 2.97123 17.4083 2.99901 17.4224 3.00921L18.1256 2.03686C17.8774 1.85736 17.6056 1.79028 17.3375 1.76067C17.0822 1.73248 16.7705 1.73333 16.4202 1.73333V2.93333ZM18.8627 3.92033C18.8242 3.57217 18.7907 3.26227 18.7346 3.01166C18.6757 2.74844 18.5791 2.48565 18.3734 2.25871L17.4843 3.06467C17.496 3.07758 17.5282 3.11551 17.5636 3.27386C17.6019 3.44482 17.6285 3.67733 17.67 4.05238L18.8627 3.92033ZM17.4224 3.00921C17.4449 3.0255 17.4657 3.04409 17.4843 3.06467L18.3734 2.25871C18.2987 2.17636 18.2157 2.10201 18.1256 2.03686L17.4224 3.00921ZM14.5797 1.73333C14.2295 1.73333 13.9178 1.73248 13.6626 1.76066C13.3946 1.79026 13.1228 1.85731 12.8746 2.03674L13.5777 3.00918C13.5918 2.99898 13.6331 2.97121 13.7943 2.95341C13.9684 2.93418 14.2024 2.93333 14.5797 2.93333V1.73333ZM13.3301 4.05223C13.3716 3.67725 13.3982 3.44479 13.4364 3.27386C13.4719 3.11555 13.504 3.07761 13.5157 3.06471L12.6266 2.25886C12.4209 2.48578 12.3244 2.74852 12.2654 3.01169C12.2093 3.26225 12.1759 3.57209 12.1374 3.92018L13.3301 4.05223ZM12.8746 2.03674C12.7844 2.10195 12.7013 2.1764 12.6266 2.25886L13.5157 3.06471C13.5344 3.0441 13.5552 3.02548 13.5777 3.00918L12.8746 2.03674Z" fill="#33363F"/>
<path d="M20.1667 14C20.1667 16.2545 18.1265 18.1667 15.5 18.1667C12.8736 18.1667 10.8334 16.2545 10.8334 14C10.8334 11.7455 12.8736 9.83333 15.5 9.83333C18.1265 9.83333 20.1667 11.7455 20.1667 14Z" stroke="#7E869E" stroke-opacity="0.25"/>
</svg>
