<svg width="33" height="28" viewBox="0 0 33 28" fill="none" xmlns="http://www.w3.org/2000/svg">
<path d="M7.86306 6.90718L5.41926 10.8238C4.45547 12.3685 3.97357 13.1408 3.97357 14C3.97357 14.8592 4.45547 15.6315 5.41926 17.1761L7.86306 21.0928C8.72436 22.4732 9.15501 23.1634 9.83393 23.54C10.5128 23.9167 11.3264 23.9167 12.9535 23.9167H20.0465C21.6736 23.9167 22.4872 23.9167 23.1661 23.54C23.845 23.1634 24.2756 22.4732 25.1369 21.0928L27.5807 17.1761C28.5445 15.6315 29.0264 14.8592 29.0264 14C29.0264 13.1408 28.5445 12.3685 27.5807 10.8238L25.1369 6.90718C24.2756 5.52678 23.845 4.83657 23.1661 4.45995C22.4872 4.08333 21.6736 4.08333 20.0465 4.08333H12.9535C11.3264 4.08333 10.5128 4.08333 9.83393 4.45995C9.15501 4.83657 8.72436 5.52678 7.86306 6.90718Z" fill="#7E869E" fill-opacity="0.25"/>
<ellipse cx="16.5" cy="14" rx="4.125" ry="3.5" fill="#222222"/>
</svg>
