<svg width="31" height="28" viewBox="0 0 31 28" fill="none" xmlns="http://www.w3.org/2000/svg">
<path fill-rule="evenodd" clip-rule="evenodd" d="M15.5 1.56935C14.8951 1.56935 14.3578 1.92705 13.2833 2.64244L10.0989 4.76247L10.0989 4.76247C9.92239 4.87996 9.83416 4.9387 9.74039 4.98771C9.64662 5.03673 9.54803 5.07565 9.35083 5.15349L6.07761 6.44554C4.6926 6.99225 4.0001 7.2656 3.65091 7.85385C3.30172 8.44209 3.39338 9.18093 3.5767 10.6586L3.93012 13.5075C3.96063 13.7535 3.97588 13.8764 3.97588 14C3.97588 14.1236 3.96063 14.2465 3.93012 14.4924L3.5767 17.3414C3.39338 18.8191 3.30172 19.5579 3.65091 20.1461C4.0001 20.7344 4.6926 21.0077 6.07761 21.5545L9.35083 22.8465L9.35087 22.8465C9.54804 22.9244 9.64663 22.9633 9.74039 23.0123C9.83415 23.0613 9.92238 23.12 10.0988 23.2375L10.0989 23.2375L13.2833 25.3576C14.3578 26.0729 14.8951 26.4306 15.5 26.4306C16.1048 26.4306 16.6421 26.0729 17.7167 25.3576L20.9011 23.2375C21.0775 23.12 21.1658 23.0613 21.2595 23.0123C21.3533 22.9633 21.4519 22.9244 21.649 22.8465L21.6491 22.8465L24.9223 21.5545C26.3073 21.0077 26.9998 20.7344 27.349 20.1461C27.6982 19.5579 27.6066 18.8191 27.4232 17.3414L27.0698 14.4924C27.0393 14.2465 27.024 14.1236 27.024 14C27.024 13.8764 27.0393 13.7535 27.0698 13.5075L27.4232 10.6586C27.6066 9.18093 27.6982 8.44209 27.349 7.85385C26.9998 7.2656 26.3073 6.99225 24.9223 6.44554L21.6491 5.15349L21.6491 5.15347C21.4519 5.07564 21.3533 5.03672 21.2595 4.98771C21.1658 4.9387 21.0775 4.87995 20.9011 4.76247L17.7167 2.64244C16.6421 1.92705 16.1048 1.56935 15.5 1.56935ZM15.5 18.6667C18.3534 18.6667 20.6666 16.5773 20.6666 14C20.6666 11.4227 18.3534 9.33333 15.5 9.33333C12.6465 9.33333 10.3333 11.4227 10.3333 14C10.3333 16.5773 12.6465 18.6667 15.5 18.6667Z" fill="#222222"/>
</svg>
