<svg width="31" height="28" viewBox="0 0 31 28" fill="none" xmlns="http://www.w3.org/2000/svg">
<path d="M18.2664 3.98636H19.2664V3.93117L19.2603 3.87632L18.2664 3.98636ZM17.9289 2.66169L17.188 3.33333L17.188 3.33333L17.9289 2.66169ZM18.2664 3.98637H17.2664V4.04156L17.2725 4.09641L18.2664 3.98637ZM18.8917 6.20321L18.3592 7.04965L18.3592 7.04965L18.8917 6.20321ZM19.1647 6.3225L19.4242 5.35678L19.1647 6.3225ZM21.2164 5.27575L20.6221 4.47153L20.6221 4.47153L21.2164 5.27575ZM21.4913 5.0726L22.0857 5.87683L22.0857 5.87683L21.4913 5.0726ZM24.0206 5.19685L23.3503 5.93895L23.3503 5.93895L24.0206 5.19685ZM25.1998 6.26194L25.8701 5.51984L25.8701 5.51984L25.1998 6.26194ZM26.0052 7.18608L25.0467 7.47119L26.0052 7.18608ZM26.0289 7.65901L27.0111 7.84684L27.0111 7.84683L26.0289 7.65901ZM25.3199 8.65907L25.9784 9.41165L26.0221 9.37343L26.0611 9.33042L25.3199 8.65907ZM25.3199 8.65908L24.6614 7.9065L24.6177 7.94472L24.5788 7.98773L25.3199 8.65908ZM24.1244 10.4005L25.1238 10.3652V10.3652L24.1244 10.4005ZM24.365 11.0165L23.6062 11.6679L23.6062 11.6679L24.365 11.0165ZM26.4243 11.4867L26.3343 12.4826H26.3343L26.4243 11.4867ZM26.7328 11.5146L26.8228 10.5186L26.7328 11.5146ZM28.0758 11.8284L28.7349 11.0763L28.7349 11.0763L28.0758 11.8284ZM28.225 11.9916L27.4167 12.5804L27.4167 12.5804L28.225 11.9916ZM28.2251 16.0083L27.4167 15.4196L27.4167 15.4196L28.2251 16.0083ZM28.0757 16.1717L28.7348 16.9238L28.7348 16.9238L28.0757 16.1717ZM26.733 16.4854L26.8229 17.4814H26.8229L26.733 16.4854ZM26.4244 16.5133L26.3344 15.5173L26.4244 16.5133ZM24.3656 16.9833L25.1242 17.6348L25.1242 17.6348L24.3656 16.9833ZM24.1249 17.5997L23.1255 17.5646V17.5646L24.1249 17.5997ZM25.3201 19.3405L24.579 20.0119L24.5956 20.0302L24.613 20.0477L25.3201 19.3405ZM25.3201 19.3406L26.0613 18.6692L26.0447 18.6509L26.0272 18.6335L25.3201 19.3406ZM26.0289 20.3403L25.0467 20.5283L25.0467 20.5283L26.0289 20.3403ZM26.0052 20.8135L26.9636 21.0988V21.0988L26.0052 20.8135ZM25.2 21.7374L24.5297 20.9953V20.9953L25.2 21.7374ZM24.0206 22.8026L24.6909 23.5447L24.6909 23.5447L24.0206 22.8026ZM22.7925 23.6075L22.8416 24.6063L22.8416 24.6063L22.7925 23.6075ZM21.4914 22.9269L20.8971 23.7311V23.7311L21.4914 22.9269ZM21.2168 22.7239L21.8111 21.9197L21.8111 21.9197L21.2168 22.7239ZM19.1645 21.677L18.9048 20.7113L18.9047 20.7114L19.1645 21.677ZM18.892 21.7961L19.4243 22.6427L19.4243 22.6427L18.892 21.7961ZM18.2664 24.0135L17.2725 23.9034L18.2664 24.0135ZM17.9288 25.3384L17.188 24.6667L17.188 24.6667L17.9288 25.3384ZM17.7741 25.4769L17.188 24.6667L17.188 24.6667L17.7741 25.4769ZM13.2261 25.4769L12.64 26.2872L12.64 26.2872L13.2261 25.4769ZM13.0712 25.3383L12.3304 26.01L12.3304 26.01L13.0712 25.3383ZM12.7337 24.0136L13.7276 23.9036V23.9036L12.7337 24.0136ZM12.1083 21.7967L11.5759 22.6432L11.5759 22.6432L12.1083 21.7967ZM11.8354 21.6774L11.5759 22.6432H11.5759L11.8354 21.6774ZM9.7836 22.7242L10.3779 23.5284H10.3779L9.7836 22.7242ZM9.50864 22.9274L8.91432 22.1232L8.91431 22.1232L9.50864 22.9274ZM8.20754 23.608L8.15847 24.6068L8.15848 24.6068L8.20754 23.608ZM6.97941 22.8032L7.6497 22.0611H7.6497L6.97941 22.8032ZM5.80021 21.7381L6.4705 20.996L6.4705 20.996L5.80021 21.7381ZM4.9948 20.8139L5.95329 20.5288L4.9948 20.8139ZM4.97109 20.341L5.95329 20.5288L5.95329 20.5288L4.97109 20.341ZM5.68006 19.3409L4.93892 18.6696H4.93892L5.68006 19.3409ZM6.87562 17.5995L7.875 17.5642L7.875 17.5642L6.87562 17.5995ZM6.63503 16.9835L7.39381 16.3321L7.39381 16.3321L6.63503 16.9835ZM4.57569 16.5133L4.66565 15.5173H4.66565L4.57569 16.5133ZM4.26724 16.4854L4.3572 15.4895H4.3572L4.26724 16.4854ZM2.92428 16.1716L2.26517 16.9237L2.26518 16.9237L2.92428 16.1716ZM2.77508 16.0084L3.58338 15.4196L3.58337 15.4196L2.77508 16.0084ZM2.58337 14.6426H1.58337H2.58337ZM2.58337 13.3575H3.58337H2.58337ZM2.77515 11.9915L1.96693 11.4027L1.96693 11.4027L2.77515 11.9915ZM2.92418 11.8284L2.26499 11.0765L2.26499 11.0765L2.92418 11.8284ZM4.2674 11.5146L4.35735 12.5105H4.35736L4.2674 11.5146ZM4.57575 11.4867L4.4858 10.4908H4.4858L4.57575 11.4867ZM6.63567 11.0163L7.39461 11.6675L7.39461 11.6675L6.63567 11.0163ZM6.8761 10.4007L7.87547 10.4362V10.4362L6.8761 10.4007ZM5.68026 8.65871L6.4214 7.98735L6.40482 7.96906L6.38737 7.9516L5.68026 8.65871ZM5.68026 8.6587L4.93912 9.33006L4.95569 9.34835L4.97315 9.36581L5.68026 8.6587ZM4.97112 7.65831L3.98888 7.84597L3.98888 7.84597L4.97112 7.65831ZM4.99481 7.18572L5.95335 7.47066L5.95335 7.47066L4.99481 7.18572ZM5.80043 6.26126L5.20043 5.46126L5.16396 5.48861L5.13014 5.51916L5.80043 6.26126ZM5.80043 6.26126L6.40043 7.06126L6.43689 7.03391L6.47072 7.00336L5.80043 6.26126ZM6.97947 5.19632L6.37947 4.39632L6.34301 4.42367L6.30919 4.45422L6.97947 5.19632ZM6.97948 5.19632L7.57948 5.99632L7.61594 5.96897L7.64976 5.93842L6.97948 5.19632ZM8.2076 4.39145L8.15853 3.39266L8.2076 4.39145ZM9.5087 5.07207L10.103 4.26785V4.26785L9.5087 5.07207ZM9.78393 5.27547L9.18961 6.0797V6.0797L9.78393 5.27547ZM11.8353 6.32209L12.0947 7.28787H12.0947L11.8353 6.32209ZM12.1086 6.20266L11.5759 5.35632L11.5759 5.35632L12.1086 6.20266ZM12.7337 3.9862L13.7276 4.09624V4.09624L12.7337 3.9862ZM13.0711 2.66179L13.8121 3.33333L13.8121 3.33332L13.0711 2.66179ZM13.2262 2.52296L12.6403 1.7126L12.6403 1.7126L13.2262 2.52296ZM17.774 2.52304L18.36 1.71275L18.36 1.71275L17.774 2.52304ZM19.2603 3.87632C19.2228 3.53712 19.187 3.20142 19.125 2.92427C19.0582 2.62608 18.9401 2.28834 18.6697 1.99006L17.188 3.33333C17.135 3.27489 17.1457 3.23787 17.1733 3.36125C17.2056 3.50567 17.2299 3.71238 17.2725 4.0964L19.2603 3.87632ZM19.2664 3.98637V3.98636H17.2664V3.98637H19.2664ZM19.4242 5.35678C19.5559 5.43963 19.5201 5.53275 19.4519 5.25224C19.3835 4.97104 19.3358 4.55813 19.2603 3.87633L17.2725 4.09641C17.3416 4.72124 17.4024 5.28831 17.5085 5.72465C17.6147 6.16169 17.8192 6.70991 18.3592 7.04965L19.4242 5.35678ZM19.4242 5.35678L19.4242 5.35677L18.3592 7.04965C18.5283 7.15598 18.7123 7.2364 18.9051 7.28823L19.4242 5.35678ZM20.6221 4.47153C20.0704 4.87922 19.735 5.12464 19.4822 5.26548C19.23 5.40595 19.274 5.31639 19.4242 5.35678L18.9051 7.28823C19.5213 7.45384 20.0625 7.23156 20.4554 7.01268C20.8477 6.79416 21.3052 6.4536 21.8108 6.07998L20.6221 4.47153ZM20.897 4.26838L20.6221 4.47153L21.8108 6.07998L22.0857 5.87683L20.897 4.26838ZM22.8415 3.39319C22.4037 3.37168 22.044 3.51579 21.7524 3.68062C21.4847 3.83192 21.1917 4.05059 20.897 4.26838L22.0857 5.87683C22.4208 5.6292 22.6001 5.49881 22.7364 5.42177C22.8488 5.35827 22.8247 5.39478 22.7434 5.39078L22.8415 3.39319ZM24.6909 4.45475C24.4189 4.20912 24.1488 3.96279 23.8972 3.78598C23.6231 3.59336 23.2793 3.41469 22.8415 3.39319L22.7434 5.39078C22.662 5.38678 22.6416 5.3481 22.7472 5.4223C22.8753 5.51233 23.0411 5.65967 23.3503 5.93895L24.6909 4.45475ZM25.8701 5.51984L24.6909 4.45474L23.3503 5.93895L24.5295 7.00404L25.8701 5.51984ZM26.9637 6.90098C26.8626 6.56116 26.6713 6.30797 26.491 6.11128C26.3207 5.9255 26.0976 5.72533 25.8701 5.51984L24.5295 7.00404C24.7856 7.23535 24.9251 7.36279 25.0166 7.46265C25.0982 7.55159 25.0678 7.54208 25.0467 7.47119L26.9637 6.90098ZM27.0111 7.84683C27.0712 7.5323 27.055 7.20793 26.9637 6.90098L25.0467 7.47119L25.0467 7.47119L27.0111 7.84683ZM26.0611 9.33042C26.2669 9.10321 26.4689 8.88172 26.6198 8.67984C26.7795 8.46611 26.9445 8.19507 27.0111 7.84684L25.0467 7.47119C25.0606 7.39854 25.0899 7.38604 25.0176 7.48269C24.9366 7.5912 24.8105 7.73195 24.5788 7.98771L26.0611 9.33042ZM25.9784 9.41166L25.9784 9.41165L24.6614 7.90649L24.6614 7.9065L25.9784 9.41166ZM25.1238 10.3652C25.129 10.5143 25.0508 10.5353 25.2215 10.3018C25.3829 10.081 25.6422 9.79287 26.0611 9.33043L24.5788 7.98773C24.1911 8.41571 23.8454 8.79539 23.6071 9.12129C23.3781 9.43441 23.1054 9.88091 23.125 10.4358L25.1238 10.3652ZM25.1238 10.3652V10.3652L23.125 10.4358C23.141 10.8892 23.3107 11.3236 23.6062 11.6679L25.1238 10.3652ZM26.5142 10.4908C25.8928 10.4346 25.5069 10.3984 25.2386 10.3455C24.9548 10.2895 25.0266 10.2519 25.1238 10.3652L23.6062 11.6679C23.9678 12.0892 24.471 12.2326 24.8516 12.3077C25.2477 12.3858 25.7592 12.4307 26.3343 12.4826L26.5142 10.4908ZM26.8228 10.5186L26.5142 10.4908L26.3343 12.4826L26.6429 12.5105L26.8228 10.5186ZM28.7349 11.0763C28.4299 10.809 28.0872 10.6969 27.7859 10.6358C27.5055 10.5789 27.1663 10.5497 26.8228 10.5186L26.6429 12.5105C27.0314 12.5456 27.2412 12.566 27.3881 12.5958C27.5142 12.6214 27.4769 12.6331 27.4167 12.5804L28.7349 11.0763ZM29.0333 11.4028C28.9462 11.2833 28.8461 11.1738 28.7349 11.0763L27.4167 12.5804L27.4167 12.5804L29.0333 11.4028ZM29.4167 13.3574C29.4167 13.0125 29.4181 12.672 29.3867 12.3876C29.3529 12.0821 29.2721 11.7307 29.0333 11.4028L27.4167 12.5804C27.3696 12.5158 27.3847 12.4797 27.3988 12.6075C27.4153 12.7565 27.4167 12.9673 27.4167 13.3574H29.4167ZM29.4167 14.6427V13.3574H27.4167V14.6427H29.4167ZM29.0334 16.597C29.2721 16.2692 29.3529 15.9178 29.3867 15.6123C29.4181 15.328 29.4167 14.9876 29.4167 14.6427H27.4167C27.4167 15.0328 27.4153 15.2436 27.3988 15.3925C27.3847 15.5203 27.3696 15.4842 27.4167 15.4196L29.0334 16.597ZM28.7348 16.9238C28.8461 16.8263 28.9463 16.7166 29.0334 16.597L27.4167 15.4196L27.4167 15.4196L28.7348 16.9238ZM26.8229 17.4814C27.1664 17.4503 27.5056 17.4211 27.7859 17.3642C28.0871 17.3031 28.4298 17.1911 28.7348 16.9238L27.4167 15.4196C27.4769 15.3669 27.5141 15.3786 27.3881 15.4042C27.2413 15.434 27.0315 15.4544 26.643 15.4895L26.8229 17.4814ZM26.5143 17.5092L26.8229 17.4814L26.643 15.4895L26.3344 15.5173L26.5143 17.5092ZM25.1242 17.6348C25.027 17.748 24.9553 17.7104 25.2391 17.6544C25.5073 17.6015 25.8931 17.5653 26.5143 17.5092L26.3344 15.5173C25.7594 15.5693 25.2481 15.6141 24.8521 15.6922C24.4716 15.7673 23.9686 15.9107 23.607 16.3317L25.1242 17.6348ZM25.1242 17.6348L25.1242 17.6348L23.607 16.3317C23.3112 16.6761 23.1414 17.1109 23.1255 17.5646L25.1242 17.6348ZM26.0613 18.6692C25.6425 18.2069 25.3834 17.9189 25.222 17.6982C25.0513 17.4647 25.1295 17.4857 25.1242 17.6348L23.1255 17.5646C23.106 18.1193 23.3787 18.5657 23.6076 18.8787C23.8458 19.2045 24.1914 19.584 24.579 20.0119L26.0613 18.6692ZM26.0272 18.6335L26.0272 18.6334L24.613 20.0477L24.613 20.0477L26.0272 18.6335ZM27.0111 20.1523C26.9445 19.8042 26.7795 19.5332 26.6198 19.3196C26.469 19.1178 26.267 18.8964 26.0613 18.6692L24.579 20.0119C24.8106 20.2676 24.9367 20.4083 25.0177 20.5168C25.0899 20.6134 25.0606 20.6009 25.0467 20.5283L27.0111 20.1523ZM26.9636 21.0988C27.0551 20.7917 27.0713 20.4671 27.0111 20.1523L25.0467 20.5283L25.0467 20.5283L26.9636 21.0988ZM25.8703 22.4795C26.0977 22.2741 26.3208 22.074 26.4911 21.8882C26.6713 21.6916 26.8625 21.4385 26.9636 21.0988L25.0467 20.5283C25.0678 20.4574 25.0982 20.4479 25.0167 20.5368C24.9252 20.6367 24.7857 20.764 24.5297 20.9953L25.8703 22.4795ZM24.6909 23.5447L25.8703 22.4795L24.5297 20.9953L23.3503 22.0605L24.6909 23.5447ZM22.8416 24.6063C23.2793 24.5848 23.6232 24.4061 23.8973 24.2135C24.1489 24.0367 24.419 23.7904 24.6909 23.5447L23.3503 22.0605C23.0411 22.3398 22.8754 22.4871 22.7473 22.5772C22.6417 22.6514 22.6621 22.6127 22.7434 22.6087L22.8416 24.6063ZM20.8971 23.7311C21.1918 23.9489 21.4847 24.1676 21.7524 24.3189C22.0441 24.4837 22.4038 24.6278 22.8416 24.6063L22.7434 22.6087C22.8248 22.6047 22.8489 22.6412 22.7365 22.5777C22.6002 22.5007 22.4208 22.3703 22.0857 22.1226L20.8971 23.7311ZM20.6225 23.5281L20.8971 23.7311L22.0857 22.1226L21.8111 21.9197L20.6225 23.5281ZM19.4243 22.6427C19.274 22.6831 19.23 22.5935 19.4822 22.734C19.7351 22.8749 20.0706 23.1204 20.6225 23.5282L21.8111 21.9197C21.3054 21.546 20.8478 21.2053 20.4554 20.9868C20.0624 20.7679 19.521 20.5456 18.9048 20.7113L19.4243 22.6427ZM19.4243 22.6427L19.4243 22.6427L18.9047 20.7114C18.7122 20.7631 18.5285 20.8434 18.3597 20.9496L19.4243 22.6427ZM19.2603 24.1235C19.3358 23.4415 19.3836 23.0285 19.452 22.7472C19.5202 22.4667 19.556 22.5599 19.4243 22.6427L18.3597 20.9496C17.8194 21.2893 17.6148 21.8377 17.5086 22.2748C17.4025 22.7112 17.3417 23.2784 17.2725 23.9034L19.2603 24.1235ZM18.6695 26.0102C18.9401 25.7118 19.0582 25.374 19.125 25.0758C19.187 24.7986 19.2228 24.4628 19.2603 24.1235L17.2725 23.9034C17.23 24.2875 17.2056 24.4943 17.1733 24.6387C17.1457 24.7621 17.135 24.7251 17.188 24.6667L18.6695 26.0102ZM18.3603 26.2871C18.4727 26.2057 18.5763 26.1129 18.6695 26.0101L17.188 24.6667L17.188 24.6667L18.3603 26.2871ZM16.4201 26.6667C16.7614 26.6667 17.0991 26.6681 17.3815 26.6369C17.6852 26.6033 18.034 26.5231 18.3603 26.2871L17.188 24.6667C17.2519 24.6204 17.2875 24.6351 17.1618 24.649C17.0147 24.6652 16.8065 24.6667 16.4201 24.6667V26.6667ZM14.5799 26.6667H16.4201V24.6667H14.5799V26.6667ZM12.64 26.2872C12.9663 26.5232 13.3149 26.6034 13.6187 26.6369C13.901 26.6681 14.2386 26.6667 14.5799 26.6667V24.6667C14.1935 24.6667 13.9853 24.6652 13.8382 24.649C13.7126 24.6351 13.7482 24.6204 13.8121 24.6667L12.64 26.2872ZM12.3304 26.01C12.4237 26.1129 12.5274 26.2058 12.64 26.2872L13.8121 24.6667L13.8121 24.6667L12.3304 26.01ZM11.7398 24.1237C11.7773 24.4629 11.8131 24.7986 11.8751 25.0757C11.9419 25.3739 12.0599 25.7117 12.3304 26.01L13.8121 24.6667C13.8651 24.7251 13.8544 24.7621 13.8268 24.6387C13.7945 24.4943 13.7701 24.2876 13.7276 23.9036L11.7398 24.1237ZM11.5759 22.6432C11.4441 22.5603 11.48 22.4672 11.5482 22.7477C11.6165 23.0289 11.6643 23.4418 11.7398 24.1237L13.7276 23.9036C13.6584 23.2787 13.5977 22.7116 13.4916 22.2753C13.3854 21.8382 13.1809 21.29 12.6408 20.9503L11.5759 22.6432ZM11.5759 22.6432L11.5759 22.6432L12.6408 20.9503C12.4718 20.8439 12.2878 20.7635 12.095 20.7117L11.5759 22.6432ZM10.3779 23.5284C10.9296 23.1207 11.2651 22.8753 11.5179 22.7345C11.7701 22.594 11.7261 22.6835 11.5759 22.6432L12.095 20.7117C11.4788 20.5461 10.9376 20.7684 10.5446 20.9872C10.1524 21.2058 9.69487 21.5463 9.18927 21.92L10.3779 23.5284ZM10.103 23.7316L10.3779 23.5284L9.18928 21.92L8.91432 22.1232L10.103 23.7316ZM8.15848 24.6068C8.59624 24.6283 8.95596 24.4842 9.2476 24.3194C9.5153 24.1681 9.80826 23.9494 10.103 23.7316L8.91431 22.1232C8.57923 22.3708 8.39984 22.5012 8.26354 22.5782C8.15118 22.6417 8.17525 22.6052 8.2566 22.6092L8.15848 24.6068ZM6.30913 23.5453C6.58107 23.7909 6.85118 24.0372 7.10276 24.214C7.37685 24.4066 7.72071 24.5853 8.15847 24.6068L8.25661 22.6092C8.33796 22.6132 8.35833 22.6519 8.25274 22.5777C8.12465 22.4877 7.9589 22.3403 7.6497 22.0611L6.30913 23.5453ZM5.12993 22.4802L6.30913 23.5453L7.6497 22.0611L6.4705 20.996L5.12993 22.4802ZM4.0363 21.099C4.13738 21.4388 4.32867 21.692 4.50895 21.8887C4.67923 22.0745 4.90241 22.2747 5.12993 22.4802L6.4705 20.996C6.2144 20.7646 6.07486 20.6372 5.98334 20.5374C5.90181 20.4484 5.93221 20.4579 5.95329 20.5288L4.0363 21.099ZM3.98889 20.1532C3.92874 20.4677 3.945 20.7921 4.0363 21.099L5.95329 20.5288V20.5288L3.98889 20.1532ZM4.93892 18.6696C4.73309 18.8968 4.53105 19.1183 4.3802 19.3202C4.2205 19.5339 4.05548 19.8049 3.98889 20.1532L5.95329 20.5288C5.9394 20.6015 5.91011 20.614 5.98234 20.5173C6.06342 20.4088 6.18951 20.268 6.42119 20.0123L4.93892 18.6696ZM5.87624 17.6348C5.87097 17.4857 5.94923 17.4647 5.77847 17.6982C5.61705 17.919 5.35783 18.2071 4.93892 18.6696L6.42119 20.0123C6.80889 19.5843 7.15462 19.2046 7.39292 18.8787C7.62188 18.5656 7.89461 18.1191 7.875 17.5642L5.87624 17.6348ZM5.87624 17.6348L5.87624 17.6348L7.875 17.5642C7.85897 17.1108 7.68929 16.6764 7.39381 16.3321L5.87624 17.6348ZM4.48574 17.5092C5.10718 17.5654 5.49307 17.6015 5.76138 17.6545C6.04522 17.7105 5.97344 17.748 5.87625 17.6348L7.39381 16.3321C7.03216 15.9108 6.52901 15.7674 6.14844 15.6923C5.75234 15.6141 5.24079 15.5693 4.66565 15.5173L4.48574 17.5092ZM4.17729 17.4814L4.48574 17.5092L4.66565 15.5173L4.3572 15.4895L4.17729 17.4814ZM2.26518 16.9237C2.57019 17.191 2.91294 17.3031 3.21416 17.3642C3.49454 17.4211 3.83378 17.4503 4.17729 17.4814L4.3572 15.4895C3.96864 15.4544 3.75883 15.434 3.61196 15.4042C3.48593 15.3786 3.52323 15.3669 3.58337 15.4196L2.26518 16.9237ZM1.96678 16.5971C2.05386 16.7167 2.15394 16.8262 2.26517 16.9237L3.58338 15.4196H3.58338L1.96678 16.5971ZM1.58337 14.6426C1.58337 14.9875 1.58195 15.328 1.6134 15.6124C1.64719 15.9179 1.72799 16.2693 1.96678 16.5971L3.58337 15.4196C3.63046 15.4842 3.61541 15.5203 3.60128 15.3925C3.5848 15.2435 3.58337 15.0327 3.58337 14.6426H1.58337ZM1.58337 13.3575L1.58337 14.6426H3.58337L3.58337 13.3575H1.58337ZM1.96693 11.4027C1.72805 11.7305 1.64721 12.082 1.61341 12.3876C1.58195 12.672 1.58337 13.0126 1.58337 13.3575H3.58337C3.58337 12.9673 3.5848 12.7565 3.60128 12.6075C3.61542 12.4797 3.63048 12.5158 3.58337 12.5804L1.96693 11.4027ZM2.26499 11.0765C2.15389 11.1739 2.05393 11.2832 1.96693 11.4027L3.58337 12.5804L3.58338 12.5804L2.26499 11.0765ZM4.17744 10.5186C3.83386 10.5496 3.49455 10.5789 3.21413 10.6358C2.91284 10.6969 2.57003 10.8091 2.26499 11.0765L3.58337 12.5804C3.52322 12.6331 3.48591 12.6214 3.61196 12.5958C3.75886 12.566 3.96872 12.5456 4.35735 12.5105L4.17744 10.5186ZM4.4858 10.4908L4.17744 10.5186L4.35736 12.5105L4.66571 12.4826L4.4858 10.4908ZM5.87673 10.3651C5.97393 10.2518 6.04575 10.2894 5.76184 10.3455C5.49345 10.3984 5.10743 10.4346 4.4858 10.4908L4.66571 12.4826C5.24104 12.4307 5.75274 12.3858 6.14895 12.3076C6.52963 12.2325 7.03294 12.089 7.39461 11.6675L5.87673 10.3651ZM5.87673 10.3651L5.87673 10.3651L7.39461 11.6675C7.6898 11.3234 7.85934 10.8893 7.87547 10.4362L5.87673 10.3651ZM4.93912 9.33006C5.35816 9.79265 5.61746 10.0809 5.77892 10.3017C5.94972 10.5353 5.87142 10.5143 5.87673 10.3651L7.87547 10.4362C7.89522 9.88118 7.62243 9.43452 7.39341 9.12129C7.15505 8.79528 6.80922 8.41548 6.4214 7.98735L4.93912 9.33006ZM4.97315 9.36581L4.97315 9.36581L6.38737 7.9516L6.38736 7.9516L4.97315 9.36581ZM3.98888 7.84597C4.05544 8.19432 4.22049 8.46546 4.38024 8.67927C4.53113 8.88121 4.73323 9.10277 4.93912 9.33006L6.42139 7.98735C6.18964 7.7315 6.06351 7.5907 5.9824 7.48216C5.91016 7.38548 5.93947 7.39799 5.95335 7.47066L3.98888 7.84597ZM4.03626 6.90078C3.94508 7.20752 3.92883 7.53165 3.98888 7.84597L5.95335 7.47066L5.95335 7.47066L4.03626 6.90078ZM5.13014 5.51916C4.90256 5.72472 4.67931 5.92496 4.50898 6.1108C4.32865 6.30756 4.13731 6.56083 4.03626 6.90078L5.95335 7.47066C5.93227 7.54157 5.90186 7.5511 5.98341 7.46212C6.07496 7.36223 6.21453 7.23475 6.47071 7.00337L5.13014 5.51916ZM5.20043 5.46126L5.20043 5.46126L6.40043 7.06126L6.40043 7.06126L5.20043 5.46126ZM6.30919 4.45422L5.13014 5.51916L6.47072 7.00336L7.64976 5.93842L6.30919 4.45422ZM6.37948 4.39632L6.37947 4.39632L7.57947 5.99632L7.57948 5.99632L6.37948 4.39632ZM8.15853 3.39266C7.72077 3.41416 7.3769 3.59283 7.10282 3.78545C6.85124 3.96226 6.58113 4.20859 6.30919 4.45421L7.64976 5.93842C7.95896 5.65914 8.12471 5.5118 8.2528 5.42177C8.35839 5.34757 8.33802 5.38625 8.25666 5.39025L8.15853 3.39266ZM10.103 4.26785C9.80832 4.05006 9.51536 3.83139 9.24766 3.68009C8.95602 3.51526 8.5963 3.37115 8.15853 3.39266L8.25666 5.39025C8.1753 5.39425 8.15124 5.35774 8.2636 5.42124C8.3999 5.49828 8.57928 5.62867 8.91437 5.8763L10.103 4.26785ZM10.3783 4.47125L10.103 4.26785L8.91437 5.8763L9.18961 6.0797L10.3783 4.47125ZM11.5759 5.35632C11.7262 5.31597 11.7701 5.4055 11.518 5.26504C11.2652 5.12423 10.9298 4.87885 10.3783 4.47125L9.18961 6.0797C9.69508 6.45324 10.1525 6.79373 10.5447 7.01222C10.9375 7.23106 11.4786 7.45332 12.0947 7.28787L11.5759 5.35632ZM11.5759 5.35632L12.0947 7.28787C12.2878 7.23601 12.472 7.15549 12.6412 7.049L11.5759 5.35632ZM11.7398 3.87616C11.6643 4.55782 11.6166 4.97065 11.5483 5.2518C11.4801 5.53226 11.4442 5.43918 11.5759 5.35632L12.6412 7.049C13.1811 6.70923 13.3855 6.1611 13.4917 5.72415C13.5977 5.2879 13.6585 4.72095 13.7276 4.09624L11.7398 3.87616ZM12.3302 1.99025C12.0599 2.2885 11.9418 2.62617 11.8751 2.9243C11.8131 3.2014 11.7773 3.53703 11.7398 3.87616L13.7276 4.09624C13.7701 3.71231 13.7945 3.50564 13.8268 3.36125C13.8544 3.23789 13.8651 3.27489 13.8121 3.33333L12.3302 1.99025ZM12.6403 1.7126C12.5275 1.79411 12.4236 1.88716 12.3302 1.99025L13.8121 3.33332L13.8121 3.33333L12.6403 1.7126ZM14.5797 1.33333C14.2385 1.33333 13.901 1.33191 13.6187 1.36307C13.3151 1.39661 12.9664 1.47675 12.6403 1.7126L13.8121 3.33333C13.7482 3.37954 13.7126 3.36487 13.8382 3.35099C13.9853 3.33475 14.1934 3.33333 14.5797 3.33333V1.33333ZM16.4202 1.33333H14.5797V3.33333H16.4202V1.33333ZM18.36 1.71275C18.0338 1.47681 17.6851 1.39663 17.3814 1.36309C17.0991 1.33191 16.7615 1.33333 16.4202 1.33333V3.33333C16.8066 3.33333 17.0147 3.33475 17.1618 3.351C17.2875 3.36488 17.2519 3.37955 17.188 3.33333L18.36 1.71275ZM18.6697 1.99006C18.5764 1.88711 18.4726 1.79417 18.36 1.71275L17.188 3.33333V3.33333L18.6697 1.99006ZM19.6667 14C19.6667 15.9317 17.8994 17.6667 15.5 17.6667V19.6667C18.8076 19.6667 21.6667 17.2229 21.6667 14H19.6667ZM15.5 10.3333C17.8994 10.3333 19.6667 12.0683 19.6667 14H21.6667C21.6667 10.7771 18.8076 8.33333 15.5 8.33333V10.3333ZM11.3334 14C11.3334 12.0683 13.1007 10.3333 15.5 10.3333V8.33333C12.1925 8.33333 9.33337 10.7771 9.33337 14H11.3334ZM15.5 17.6667C13.1007 17.6667 11.3334 15.9317 11.3334 14H9.33337C9.33337 17.2229 12.1925 19.6667 15.5 19.6667V17.6667Z" fill="#33363F"/>
</svg>
