<svg width="31" height="28" viewBox="0 0 31 28" fill="none" xmlns="http://www.w3.org/2000/svg">
<path d="M18.2664 3.98636H18.7664V3.95876L18.7634 3.93134L18.2664 3.98636ZM17.9289 2.66169L17.5584 2.99751V2.99751L17.9289 2.66169ZM18.2664 3.98637H17.7664V4.01396L17.7694 4.04139L18.2664 3.98637ZM18.8917 6.20321L18.6255 6.62643L18.6255 6.62643L18.8917 6.20321ZM19.1647 6.3225L19.2944 5.83964L19.1647 6.3225ZM21.2164 5.27575L20.9193 4.87364V4.87364L21.2164 5.27575ZM21.4913 5.0726L21.7885 5.47472V5.47472L21.4913 5.0726ZM24.0206 5.19685L23.6854 5.5679V5.5679L24.0206 5.19685ZM25.1998 6.26194L25.5349 5.89089V5.89089L25.1998 6.26194ZM26.0052 7.18608L25.5259 7.32864V7.32864L26.0052 7.18608ZM26.0289 7.65901L26.52 7.75293V7.75292L26.0289 7.65901ZM25.3199 8.65907L25.6492 9.03536L25.671 9.01625L25.6905 8.99475L25.3199 8.65907ZM25.3199 8.65908L24.9907 8.28279L24.9688 8.3019L24.9494 8.3234L25.3199 8.65908ZM24.1244 10.4005L24.6241 10.3828V10.3828L24.1244 10.4005ZM24.365 11.0165L23.9856 11.3422L23.9856 11.3422L24.365 11.0165ZM26.4243 11.4867L26.3793 11.9847L26.4243 11.4867ZM26.7328 11.5146L26.7778 11.0166L26.7328 11.5146ZM28.0758 11.8284L28.4054 11.4523L28.4054 11.4523L28.0758 11.8284ZM28.225 11.9916L27.8209 12.286L27.8209 12.286L28.225 11.9916ZM28.2251 16.0083L27.8209 15.7139L27.8209 15.7139L28.2251 16.0083ZM28.0757 16.1717L28.4052 16.5478L28.4052 16.5478L28.0757 16.1717ZM26.733 16.4854L26.7779 16.9834L26.733 16.4854ZM26.4244 16.5133L26.3794 16.0153L26.4244 16.5133ZM24.3656 16.9833L24.7449 17.309L24.7449 17.309L24.3656 16.9833ZM24.1249 17.5997L23.6252 17.5822V17.5822L24.1249 17.5997ZM25.3201 19.3405L24.9496 19.6762L24.9578 19.6854L24.9666 19.6941L25.3201 19.3405ZM25.3201 19.3406L25.6907 19.0049L25.6824 18.9957L25.6737 18.987L25.3201 19.3406ZM26.0289 20.3403L25.5378 20.4343L25.5378 20.4343L26.0289 20.3403ZM26.0052 20.8135L26.4844 20.9562L26.0052 20.8135ZM25.2 21.7374L24.8648 21.3663L25.2 21.7374ZM24.0206 22.8026L24.3558 23.1737L24.0206 22.8026ZM22.7925 23.6075L22.817 24.1069H22.817L22.7925 23.6075ZM21.4914 22.9269L21.1942 23.329L21.4914 22.9269ZM21.2168 22.7239L21.5139 22.3218H21.5139L21.2168 22.7239ZM19.1645 21.677L19.0346 21.1942H19.0346L19.1645 21.677ZM18.892 21.7961L19.1581 22.2194H19.1581L18.892 21.7961ZM18.2664 24.0135L17.7694 23.9584L18.2664 24.0135ZM17.9288 25.3384L17.5584 25.0025L17.5584 25.0025L17.9288 25.3384ZM17.7741 25.4769L17.4811 25.0718H17.4811L17.7741 25.4769ZM13.2261 25.4769L12.933 25.8821L12.933 25.8821L13.2261 25.4769ZM13.0712 25.3383L12.7008 25.6741L12.7008 25.6741L13.0712 25.3383ZM12.7337 24.0136L13.2307 23.9586L12.7337 24.0136ZM12.1083 21.7967L11.8421 22.2199L11.8421 22.2199L12.1083 21.7967ZM11.8354 21.6774L11.7056 22.1603H11.7056L11.8354 21.6774ZM9.7836 22.7242L10.0808 23.1263H10.0808L9.7836 22.7242ZM9.50864 22.9274L9.21148 22.5253H9.21147L9.50864 22.9274ZM8.20754 23.608L8.18301 24.1074H8.18301L8.20754 23.608ZM6.97941 22.8032L7.31456 22.4321L6.97941 22.8032ZM5.80021 21.7381L6.13536 21.367H6.13536L5.80021 21.7381ZM4.9948 20.8139L5.47405 20.6714L4.9948 20.8139ZM4.97109 20.341L5.46219 20.4349L5.46219 20.4349L4.97109 20.341ZM5.68006 19.3409L5.30949 19.0052L5.30949 19.0052L5.68006 19.3409ZM6.87562 17.5995L7.37531 17.5818L6.87562 17.5995ZM6.63503 16.9835L7.01442 16.6578L6.63503 16.9835ZM4.57569 16.5133L4.62067 16.0153H4.62067L4.57569 16.5133ZM4.26724 16.4854L4.31222 15.9874L4.26724 16.4854ZM2.92428 16.1716L2.59472 16.5477L2.59473 16.5477L2.92428 16.1716ZM2.77508 16.0084L3.17923 15.714L3.17922 15.714L2.77508 16.0084ZM2.58337 14.6426H2.08337H2.58337ZM2.58337 13.3575H3.08337H2.58337ZM2.77515 11.9915L2.37104 11.6971L2.37104 11.6971L2.77515 11.9915ZM2.92418 11.8284L2.59459 11.4524L2.59458 11.4524L2.92418 11.8284ZM4.2674 11.5146L4.31238 12.0125H4.31238L4.2674 11.5146ZM4.57575 11.4867L4.53078 10.9887H4.53078L4.57575 11.4867ZM6.63567 11.0163L7.01514 11.3419L6.63567 11.0163ZM6.8761 10.4007L7.37578 10.4185V10.4185L6.8761 10.4007ZM5.68026 8.65871L6.05083 8.32303L6.04254 8.31388L6.03381 8.30515L5.68026 8.65871ZM5.68026 8.6587L5.30969 8.99438L5.31798 9.00353L5.3267 9.01226L5.68026 8.6587ZM4.97112 7.65831L4.48 7.75214L4.48 7.75214L4.97112 7.65831ZM4.99481 7.18572L5.47408 7.32819V7.32819L4.99481 7.18572ZM5.80043 6.26126L5.50043 5.86126L5.4822 5.87494L5.46528 5.89021L5.80043 6.26126ZM5.80043 6.26126L6.10043 6.66126L6.11866 6.64759L6.13557 6.63231L5.80043 6.26126ZM6.97947 5.19632L6.67947 4.79632L6.66124 4.80999L6.64433 4.82527L6.97947 5.19632ZM6.97948 5.19632L7.27948 5.59632L7.29771 5.58264L7.31462 5.56737L6.97948 5.19632ZM8.2076 4.39145L8.18307 3.89206L8.2076 4.39145ZM9.5087 5.07207L9.80586 4.66996L9.5087 5.07207ZM9.78393 5.27547L9.48677 5.67759L9.78393 5.27547ZM11.8353 6.32209L11.965 6.80498H11.965L11.8353 6.32209ZM12.1086 6.20266L11.8422 5.77949L12.1086 6.20266ZM12.7337 3.9862L13.2307 4.04122V4.04122L12.7337 3.9862ZM13.0711 2.66179L13.4416 2.99756L13.4416 2.99756L13.0711 2.66179ZM13.2262 2.52296L12.9332 2.11778L12.9332 2.11778L13.2262 2.52296ZM17.774 2.52304L18.067 2.11789V2.11789L17.774 2.52304ZM18.7634 3.93134C18.7246 3.58093 18.6917 3.27748 18.6371 3.03351C18.5801 2.77903 18.4889 2.53498 18.2993 2.32588L17.5584 2.99751C17.5863 3.02825 17.6238 3.08492 17.6612 3.25201C17.701 3.42961 17.7282 3.66857 17.7694 4.04138L18.7634 3.93134ZM18.7664 3.98637V3.98636H17.7664V3.98637H18.7664ZM19.158 5.78C19.1217 5.7572 19.0437 5.68998 18.966 5.37035C18.8883 5.05036 18.8373 4.59891 18.7634 3.93135L17.7694 4.04139C17.8402 4.68046 17.8977 5.20899 17.9943 5.60655C18.0911 6.00445 18.2534 6.39234 18.6255 6.62643L19.158 5.78ZM19.2944 5.83964C19.2462 5.82668 19.2002 5.80658 19.158 5.77999L18.6255 6.62643C18.7523 6.70618 18.8903 6.7665 19.0349 6.80537L19.2944 5.83964ZM20.9193 4.87364C20.3791 5.27281 20.0132 5.54202 19.7255 5.70228C19.4381 5.86235 19.3358 5.85075 19.2944 5.83964L19.0349 6.80537C19.4594 6.91948 19.8544 6.77516 20.2121 6.57588C20.5695 6.37678 20.9965 6.06 21.5136 5.67786L20.9193 4.87364ZM21.1942 4.67049L20.9193 4.87364L21.5136 5.67787L21.7885 5.47472L21.1942 4.67049ZM22.817 3.89259C22.509 3.87746 22.2452 3.97641 21.9984 4.11591C21.7635 4.24864 21.499 4.44524 21.1942 4.67049L21.7885 5.47472C22.1135 5.23455 22.3213 5.08209 22.4904 4.98648C22.6476 4.89765 22.7195 4.889 22.7679 4.89138L22.817 3.89259ZM24.3557 4.8258C24.0745 4.57176 23.8304 4.35017 23.6097 4.19506C23.3778 4.03204 23.125 3.90772 22.817 3.89259L22.7679 4.89138C22.8163 4.89376 22.887 4.90941 23.0347 5.01322C23.1937 5.12494 23.3855 5.29703 23.6854 5.5679L24.3557 4.8258ZM25.5349 5.89089L24.3557 4.8258L23.6854 5.5679L24.8646 6.63299L25.5349 5.89089ZM26.4844 7.04353C26.4139 6.80639 26.278 6.61888 26.1224 6.44912C25.9718 6.28482 25.7696 6.10284 25.5349 5.89089L24.8646 6.63299C25.1136 6.85785 25.274 7.00347 25.3852 7.12481C25.4915 7.24069 25.5165 7.29685 25.5259 7.32864L26.4844 7.04353ZM26.52 7.75292C26.5651 7.51702 26.5529 7.27374 26.4844 7.04353L25.5259 7.32864C25.5488 7.40537 25.5528 7.48647 25.5378 7.5651L26.52 7.75292ZM25.6905 8.99475C25.9028 8.76039 26.0858 8.55909 26.2192 8.38055C26.3571 8.19609 26.4735 7.99594 26.52 7.75293L25.5378 7.5651C25.5316 7.59767 25.5123 7.65605 25.4182 7.78198C25.3197 7.91383 25.1746 8.07476 24.9494 8.32339L25.6905 8.99475ZM25.6492 9.03537L25.6492 9.03536L24.9907 8.28278L24.9907 8.28279L25.6492 9.03537ZM24.6241 10.3828C24.6231 10.3559 24.6326 10.2601 24.8179 10.0066C24.9986 9.75961 25.2794 9.44858 25.6905 8.99476L24.9494 8.3234C24.5539 8.76 24.2298 9.1168 24.0107 9.41641C23.7963 9.70963 23.6113 10.0393 23.6247 10.4181L24.6241 10.3828ZM24.7444 10.6908C24.6705 10.6048 24.6281 10.4962 24.6241 10.3828L23.6247 10.4181C23.6367 10.7582 23.764 11.084 23.9856 11.3422L24.7444 10.6908ZM26.4693 10.9887C25.8594 10.9336 25.4421 10.8953 25.1419 10.8361C24.8338 10.7753 24.7619 10.7112 24.7444 10.6908L23.9856 11.3422C24.2325 11.6299 24.5919 11.7469 24.9483 11.8172C25.3125 11.889 25.7926 11.9317 26.3793 11.9847L26.4693 10.9887ZM26.7778 11.0166L26.4693 10.9887L26.3793 11.9847L26.6878 12.0125L26.7778 11.0166ZM28.4054 11.4523C28.1917 11.265 27.9439 11.178 27.6865 11.1258C27.4395 11.0756 27.1326 11.0486 26.7778 11.0166L26.6878 12.0125C27.0651 12.0466 27.3073 12.0692 27.4876 12.1058C27.6574 12.1403 27.7151 12.1771 27.7463 12.2044L28.4054 11.4523ZM28.6291 11.6972C28.5638 11.6076 28.4888 11.5254 28.4054 11.4523L27.7463 12.2044C27.7741 12.2288 27.7991 12.2561 27.8209 12.286L28.6291 11.6972ZM28.9167 13.3574C28.9167 13.0012 28.9174 12.6931 28.8897 12.4426C28.8608 12.1815 28.7965 11.9269 28.6291 11.6972L27.8209 12.286C27.8452 12.3195 27.8767 12.3803 27.8958 12.5525C27.916 12.7353 27.9167 12.9786 27.9167 13.3574H28.9167ZM28.9167 14.6427V13.3574H27.9167V14.6427H28.9167ZM28.6292 16.3026C28.7965 16.0729 28.8609 15.8184 28.8897 15.5574C28.9174 15.3069 28.9167 14.9989 28.9167 14.6427H27.9167C27.9167 15.0215 27.916 15.2647 27.8958 15.4475C27.8767 15.6197 27.8453 15.6805 27.8209 15.7139L28.6292 16.3026ZM28.4052 16.5478C28.4888 16.4746 28.5639 16.3924 28.6292 16.3026L27.8209 15.7139C27.7991 15.7438 27.7741 15.7713 27.7462 15.7956L28.4052 16.5478ZM26.7779 16.9834C27.1327 16.9513 27.4395 16.9243 27.6865 16.8742C27.9438 16.822 28.1915 16.735 28.4052 16.5478L27.7462 15.7956C27.7151 15.8229 27.6574 15.8597 27.4876 15.8942C27.3073 15.9308 27.0652 15.9534 26.688 15.9874L26.7779 16.9834ZM26.4693 17.0113L26.7779 16.9834L26.688 15.9874L26.3794 16.0153L26.4693 17.0113ZM24.7449 17.309C24.7624 17.2886 24.8344 17.2246 25.1423 17.1639C25.4425 17.1047 25.8597 17.0663 26.4693 17.0113L26.3794 16.0153C25.7928 16.0683 25.3129 16.111 24.9488 16.1828C24.5926 16.253 24.2332 16.37 23.9863 16.6575L24.7449 17.309ZM24.6245 17.6172C24.6285 17.5038 24.671 17.3951 24.7449 17.309L23.9863 16.6575C23.7645 16.9158 23.6371 17.2419 23.6252 17.5822L24.6245 17.6172ZM25.6907 19.0049C25.2797 18.5512 24.999 18.2403 24.8184 17.9933C24.6331 17.7399 24.6236 17.6441 24.6245 17.6172L23.6252 17.5822C23.6119 17.9609 23.7968 18.2904 24.0112 18.5836C24.2302 18.8831 24.5542 19.2398 24.9496 19.6762L25.6907 19.0049ZM25.6737 18.987L25.6737 18.987L24.9666 19.6941L24.9666 19.6941L25.6737 18.987ZM26.52 20.2463C26.4735 20.0034 26.3571 19.8033 26.2193 19.6189C26.0859 19.4404 25.9029 19.2392 25.6907 19.0049L24.9496 19.6762C25.1747 19.9248 25.3197 20.0857 25.4182 20.2175C25.5123 20.3434 25.5316 20.4017 25.5378 20.4343L26.52 20.2463ZM26.4844 20.9562C26.553 20.7258 26.5652 20.4824 26.52 20.2463L25.5378 20.4343C25.5529 20.513 25.5488 20.5941 25.526 20.6709L26.4844 20.9562ZM25.5351 22.1084C25.7697 21.8966 25.9719 21.7146 26.1225 21.5504C26.278 21.3807 26.4139 21.1932 26.4844 20.9562L25.526 20.6709C25.5165 20.7027 25.4915 20.7588 25.3853 20.8747C25.2741 20.996 25.1137 21.1416 24.8648 21.3663L25.5351 22.1084ZM24.3558 23.1737L25.5351 22.1084L24.8648 21.3663L23.6855 22.4316L24.3558 23.1737ZM22.817 24.1069C23.125 24.0918 23.3778 23.9674 23.6098 23.8044C23.8305 23.6493 24.0745 23.4277 24.3558 23.1737L23.6855 22.4316C23.3856 22.7024 23.1938 22.8745 23.0348 22.9862C22.8871 23.0901 22.8164 23.1057 22.768 23.1081L22.817 24.1069ZM21.1942 23.329C21.499 23.5542 21.7636 23.7508 21.9985 23.8836C22.2453 24.0231 22.509 24.122 22.817 24.1069L22.768 23.1081C22.7195 23.1105 22.6477 23.1018 22.4905 23.013C22.3213 22.9174 22.1136 22.7649 21.7886 22.5248L21.1942 23.329ZM20.9196 23.126L21.1942 23.329L21.7886 22.5248L21.5139 22.3218L20.9196 23.126ZM19.2944 22.1599C19.3358 22.1487 19.4381 22.1371 19.7255 22.2972C20.0133 22.4575 20.3793 22.7268 20.9196 23.126L21.5139 22.3218C20.9967 21.9396 20.5696 21.6227 20.2121 21.4236C19.8543 21.2243 19.4593 21.08 19.0346 21.1942L19.2944 22.1599ZM19.1581 22.2194C19.2003 22.1929 19.2463 22.1728 19.2944 22.1599L19.0346 21.1942C18.8902 21.233 18.7524 21.2933 18.6258 21.3729L19.1581 22.2194ZM18.7634 24.0685C18.8373 23.4008 18.8883 22.9492 18.9661 22.6291C19.0438 22.3094 19.1219 22.2422 19.1581 22.2194L18.6258 21.3729C18.2536 21.6069 18.0912 21.9949 17.9944 22.3929C17.8977 22.7905 17.8402 23.3192 17.7694 23.9584L18.7634 24.0685ZM18.2992 25.6743C18.4888 25.4652 18.58 25.2211 18.637 24.9665C18.6917 24.7225 18.7246 24.419 18.7634 24.0685L17.7694 23.9584C17.7282 24.3313 17.701 24.5704 17.6612 24.748C17.6238 24.9151 17.5863 24.9718 17.5584 25.0025L18.2992 25.6743ZM18.0672 25.882C18.1515 25.821 18.2292 25.7514 18.2992 25.6743L17.5584 25.0025C17.5351 25.0282 17.5092 25.0514 17.4811 25.0718L18.0672 25.882ZM16.4201 26.1667C16.7727 26.1667 17.078 26.1674 17.3265 26.1399C17.5858 26.1113 17.8385 26.0474 18.0672 25.882L17.4811 25.0718C17.4474 25.0961 17.387 25.1272 17.2167 25.146C17.0358 25.166 16.7952 25.1667 16.4201 25.1667V26.1667ZM14.5799 26.1667H16.4201V25.1667H14.5799V26.1667ZM12.933 25.8821C13.1617 26.0475 13.4143 26.1113 13.6736 26.1399C13.9221 26.1674 14.2273 26.1667 14.5799 26.1667V25.1667C14.2048 25.1667 13.9643 25.166 13.7834 25.146C13.6132 25.1272 13.5527 25.0961 13.5191 25.0718L12.933 25.8821ZM12.7008 25.6741C12.7708 25.7513 12.8486 25.821 12.933 25.8821L13.5191 25.0718C13.4909 25.0515 13.465 25.0282 13.4417 25.0025L12.7008 25.6741ZM12.2367 24.0686C12.2755 24.419 12.3084 24.7225 12.363 24.9665C12.42 25.221 12.5112 25.465 12.7008 25.6741L13.4417 25.0025C13.4138 24.9717 13.3763 24.9151 13.3389 24.748C13.2991 24.5704 13.2719 24.3314 13.2307 23.9586L12.2367 24.0686ZM11.8421 22.2199C11.8783 22.2427 11.9563 22.3099 12.034 22.6296C12.1118 22.9496 12.1628 23.4011 12.2367 24.0686L13.2307 23.9586C13.1599 23.3195 13.1024 22.791 13.0057 22.3934C12.909 21.9955 12.7467 21.6076 12.3746 21.3735L11.8421 22.2199ZM11.7056 22.1603C11.7538 22.1733 11.7998 22.1934 11.8421 22.2199L12.3746 21.3735C12.2478 21.2937 12.1098 21.2334 11.9652 21.1946L11.7056 22.1603ZM10.0808 23.1263C10.6209 22.7271 10.9869 22.4579 11.2746 22.2977C11.562 22.1376 11.6643 22.1492 11.7056 22.1603L11.9652 21.1946C11.5407 21.0805 11.1457 21.2248 10.788 21.4241C10.4305 21.6232 10.0036 21.9399 9.48644 22.3221L10.0808 23.1263ZM9.8058 23.3295L10.0808 23.1263L9.48644 22.3221L9.21148 22.5253L9.8058 23.3295ZM8.18301 24.1074C8.49099 24.1225 8.75477 24.0236 9.00159 23.8841C9.23643 23.7514 9.501 23.5548 9.8058 23.3295L9.21147 22.5253C8.88648 22.7655 8.6787 22.9179 8.50955 23.0135C8.35238 23.1024 8.2805 23.111 8.23207 23.1086L8.18301 24.1074ZM6.64427 23.1742C6.92553 23.4282 7.16955 23.6498 7.39026 23.8049C7.62222 23.968 7.87502 24.0923 8.18301 24.1074L8.23207 23.1086C8.18365 23.1062 8.11296 23.0906 7.96525 22.9868C7.80628 22.8751 7.61445 22.703 7.31456 22.4321L6.64427 23.1742ZM5.46507 22.1091L6.64427 23.1742L7.31456 22.4321L6.13536 21.367L5.46507 22.1091ZM4.51555 20.9565C4.58608 21.1936 4.72196 21.3811 4.87755 21.5509C5.02814 21.7152 5.23041 21.8972 5.46507 22.1091L6.13536 21.367C5.8864 21.1422 5.72596 20.9965 5.61474 20.8752C5.50853 20.7593 5.4835 20.7031 5.47405 20.6714L4.51555 20.9565ZM4.47999 20.2471C4.43488 20.483 4.44708 20.7263 4.51555 20.9565L5.47405 20.6714C5.45122 20.5946 5.44716 20.5135 5.46219 20.4349L4.47999 20.2471ZM5.30949 19.0052C5.0972 19.2396 4.91414 19.4409 4.78074 19.6194C4.6429 19.8039 4.52646 20.0041 4.47999 20.2471L5.46219 20.4349C5.46842 20.4023 5.48771 20.3439 5.5818 20.218C5.68032 20.0862 5.8254 19.9252 6.05062 19.6766L5.30949 19.0052ZM6.37593 17.6172C6.37688 17.644 6.36739 17.7399 6.18208 17.9933C6.00144 18.2404 5.72059 18.5514 5.30949 19.0052L6.05062 19.6766C6.44613 19.24 6.77023 18.8832 6.98931 18.5836C7.20371 18.2903 7.3887 17.9607 7.37531 17.5818L6.37593 17.6172ZM6.25564 17.3091C6.32951 17.3952 6.37193 17.5038 6.37593 17.6172L7.37531 17.5818C7.36329 17.2418 7.23603 16.916 7.01442 16.6578L6.25564 17.3091ZM4.53071 17.0113C5.14058 17.0663 5.55789 17.1047 5.85815 17.1639C6.16617 17.2247 6.23812 17.2887 6.25564 17.3091L7.01442 16.6578C6.76748 16.3701 6.40806 16.2531 6.05167 16.1828C5.68752 16.111 5.20739 16.0683 4.62067 16.0153L4.53071 17.0113ZM4.22227 16.9834L4.53071 17.0113L4.62067 16.0153L4.31222 15.9874L4.22227 16.9834ZM2.59473 16.5477C2.80845 16.735 3.05619 16.822 3.31361 16.8742C3.56061 16.9243 3.86749 16.9513 4.22227 16.9834L4.31222 15.9874C3.93493 15.9534 3.69276 15.9308 3.51251 15.8942C3.34268 15.8597 3.28497 15.8229 3.25382 15.7956L2.59473 16.5477ZM2.37093 16.3027C2.43624 16.3924 2.5113 16.4745 2.59472 16.5477L3.25383 15.7956C3.22602 15.7712 3.201 15.7439 3.17923 15.714L2.37093 16.3027ZM2.08337 14.6426C2.08337 14.9988 2.08266 15.3069 2.11037 15.5574C2.13924 15.8185 2.20361 16.073 2.37093 16.3027L3.17922 15.714C3.15484 15.6805 3.12336 15.6197 3.10431 15.4475C3.08409 15.2647 3.08337 15.0214 3.08337 14.6426H2.08337ZM2.08337 13.3575L2.08337 14.6426H3.08337L3.08337 13.3575H2.08337ZM2.37104 11.6971C2.20365 11.9268 2.13926 12.1814 2.11038 12.4426C2.08266 12.6931 2.08337 13.0013 2.08337 13.3575H3.08337C3.08337 12.9786 3.08409 12.7354 3.10431 12.5525C3.12337 12.3802 3.15487 12.3194 3.17926 12.286L2.37104 11.6971ZM2.59458 11.4524C2.51126 11.5255 2.43629 11.6075 2.37104 11.6971L3.17926 12.286C3.20101 12.2561 3.226 12.2288 3.25378 12.2044L2.59458 11.4524ZM4.22242 11.0166C3.86757 11.0486 3.56063 11.0756 3.31358 11.1258C3.05611 11.178 2.80833 11.2651 2.59459 11.4524L3.25378 12.2044C3.28493 12.1771 3.34264 12.1403 3.5125 12.1058C3.69279 12.0692 3.935 12.0466 4.31238 12.0125L4.22242 11.0166ZM4.53078 10.9887L4.22242 11.0166L4.31238 12.0125L4.62073 11.9847L4.53078 10.9887ZM6.2562 10.6907C6.23868 10.7111 6.16672 10.7752 5.85862 10.836C5.55827 10.8953 5.14083 10.9336 4.53078 10.9887L4.62073 11.9847C5.20764 11.9317 5.68792 11.889 6.05217 11.8171C6.40866 11.7468 6.76819 11.6297 7.01514 11.3419L6.2562 10.6907ZM6.37641 10.3829C6.37238 10.4962 6.33 10.6047 6.2562 10.6907L7.01514 11.3419C7.23653 11.0838 7.36369 10.7582 7.37578 10.4185L6.37641 10.3829ZM5.30969 8.99438C5.72092 9.44836 6.00186 9.75949 6.18254 10.0066C6.3679 10.2601 6.37737 10.356 6.37641 10.3829L7.37578 10.4185C7.38927 10.0395 7.20425 9.70972 6.98979 9.4164C6.77066 9.11669 6.44645 8.75977 6.05083 8.32303L5.30969 8.99438ZM5.3267 9.01226L5.32671 9.01226L6.03381 8.30515L6.03381 8.30515L5.3267 9.01226ZM4.48 7.75214C4.52644 7.99524 4.64291 8.19547 4.78078 8.37999C4.91422 8.55859 5.09733 8.75995 5.30969 8.99438L6.05083 8.32303C5.82553 8.07432 5.68041 7.91333 5.58186 7.78144C5.48774 7.65547 5.46846 7.59707 5.46224 7.56449L4.48 7.75214ZM4.51553 7.04325C4.44715 7.2733 4.43496 7.51641 4.48 7.75214L5.46224 7.56449C5.44722 7.48591 5.45128 7.40487 5.47408 7.32819L4.51553 7.04325ZM5.46528 5.89021C5.23055 6.10223 5.02822 6.28427 4.87759 6.44863C4.72196 6.61844 4.58605 6.80602 4.51553 7.04325L5.47408 7.32819C5.48353 7.29639 5.50856 7.24021 5.6148 7.12429C5.72605 7.00291 5.88654 6.85725 6.13557 6.63231L5.46528 5.89021ZM5.50043 5.86126L5.50043 5.86126L6.10043 6.66126L6.10043 6.66126L5.50043 5.86126ZM6.64433 4.82527L5.46529 5.89021L6.13557 6.63231L7.31462 5.56737L6.64433 4.82527ZM6.67948 4.79632L6.67947 4.79632L7.27947 5.59632L7.27948 5.59632L6.67948 4.79632ZM8.18307 3.89206C7.87508 3.90719 7.62228 4.03152 7.39032 4.19453C7.16961 4.34964 6.92559 4.57123 6.64433 4.82526L7.31462 5.56737C7.61451 5.2965 7.80634 5.12441 7.96531 5.01269C8.11302 4.90888 8.18371 4.89323 8.23213 4.89085L8.18307 3.89206ZM9.80586 4.66996C9.50106 4.44471 9.23649 4.24811 9.00165 4.11538C8.75482 3.97588 8.49105 3.87693 8.18307 3.89206L8.23213 4.89085C8.28055 4.88847 8.35243 4.89712 8.50961 4.98596C8.67876 5.08156 8.88654 5.23402 9.21153 5.47419L9.80586 4.66996ZM10.0811 4.87336L9.80586 4.66996L9.21153 5.47419L9.48677 5.67759L10.0811 4.87336ZM11.7056 5.83921C11.6643 5.85031 11.562 5.86189 11.2746 5.70183C10.987 5.5416 10.6211 5.27245 10.0811 4.87336L9.48677 5.67759C10.0038 6.05965 10.4306 6.37636 10.788 6.57543C11.1456 6.77467 11.5405 6.91899 11.965 6.80498L11.7056 5.83921ZM11.8422 5.77949C11.7999 5.80611 11.7539 5.82624 11.7056 5.83921L11.965 6.80498C12.1098 6.76609 12.248 6.7057 12.3749 6.62583L11.8422 5.77949ZM12.2367 3.93118C12.1629 4.59861 12.1119 5.04996 12.0341 5.36989C11.9564 5.68947 11.8785 5.75669 11.8422 5.77949L12.3749 6.62583C12.7469 6.39172 12.9091 6.00389 13.0058 5.60607C13.1024 5.20859 13.1599 4.68017 13.2307 4.04122L12.2367 3.93118ZM12.7007 2.32602C12.5112 2.5351 12.42 2.7791 12.363 3.03354C12.3084 3.27746 12.2755 3.58085 12.2367 3.93118L13.2307 4.04122C13.2719 3.66849 13.2991 3.42958 13.3389 3.25201C13.3763 3.08496 13.4138 3.02829 13.4416 2.99756L12.7007 2.32602ZM12.9332 2.11778C12.8487 2.17891 12.7707 2.2487 12.7007 2.32602L13.4416 2.99756C13.465 2.97179 13.491 2.94852 13.5191 2.92814L12.9332 2.11778ZM14.5797 1.83333C14.2272 1.83333 13.922 1.83262 13.6736 1.86005C13.4144 1.88867 13.1619 1.95245 12.9332 2.11778L13.5191 2.92815C13.5528 2.90384 13.6132 2.8728 13.7834 2.85401C13.9642 2.83404 14.2047 2.83333 14.5797 2.83333V1.83333ZM16.4202 1.83333H14.5797V2.83333H16.4202V1.83333ZM18.067 2.11789C17.8383 1.9525 17.5857 1.88869 17.3265 1.86006C17.078 1.83262 16.7728 1.83333 16.4202 1.83333V2.83333C16.7953 2.83333 17.0358 2.83404 17.2167 2.85402C17.3869 2.87282 17.4474 2.90387 17.481 2.92818L18.067 2.11789ZM18.2993 2.32588C18.2293 2.24867 18.1515 2.17896 18.067 2.11789L17.481 2.92818C17.5091 2.94854 17.5351 2.97178 17.5584 2.99751L18.2993 2.32588ZM20.1667 14C20.1667 16.2545 18.1265 18.1667 15.5 18.1667V19.1667C18.5806 19.1667 21.1667 16.9001 21.1667 14H20.1667ZM15.5 9.83333C18.1265 9.83333 20.1667 11.7455 20.1667 14H21.1667C21.1667 11.0999 18.5806 8.83333 15.5 8.83333V9.83333ZM10.8334 14C10.8334 11.7455 12.8736 9.83333 15.5 9.83333V8.83333C12.4195 8.83333 9.83337 11.0999 9.83337 14H10.8334ZM15.5 18.1667C12.8736 18.1667 10.8334 16.2545 10.8334 14H9.83337C9.83337 16.9001 12.4195 19.1667 15.5 19.1667V18.1667Z" fill="#222222"/>
</svg>
