<svg width="31" height="28" viewBox="0 0 31 28" fill="none" xmlns="http://www.w3.org/2000/svg">
<path d="M3.87525 16.0976C3.24659 15.0769 2.93225 14.5665 2.93225 14C2.93225 13.4335 3.24659 12.9232 3.87525 11.9024L5.72333 8.90167L7.87559 5.65529C8.44673 4.79381 8.7323 4.36307 9.16695 4.12569C9.60159 3.88831 10.1183 3.88086 11.1518 3.86598L15.5 3.80334L19.8482 3.86598C20.8817 3.88086 21.3985 3.88831 21.8331 4.12569C22.2678 4.36307 22.5533 4.79381 23.1245 5.65529L25.2767 8.90167L27.1248 11.9024C27.7535 12.9232 28.0678 13.4335 28.0678 14C28.0678 14.5665 27.7535 15.0769 27.1248 16.0976L25.2767 19.0983L23.1245 22.3447C22.5533 23.2062 22.2678 23.6369 21.8331 23.8743C21.3985 24.1117 20.8817 24.1191 19.8482 24.134L15.5 24.1967L11.1519 24.134C10.1183 24.1191 9.60159 24.1117 9.16695 23.8743C8.7323 23.6369 8.44673 23.2062 7.87559 22.3447L5.72333 19.0983L3.87525 16.0976Z" stroke="#33363F" stroke-width="1.2"/>
<path d="M20.1667 14C20.1667 16.2545 18.1265 18.1667 15.5 18.1667C12.8736 18.1667 10.8334 16.2545 10.8334 14C10.8334 11.7455 12.8736 9.83333 15.5 9.83333C18.1265 9.83333 20.1667 11.7455 20.1667 14Z" stroke="#7E869E" stroke-opacity="0.25"/>
</svg>
