<svg width="33" height="28" viewBox="0 0 33 28" fill="none" xmlns="http://www.w3.org/2000/svg">
<path fill-rule="evenodd" clip-rule="evenodd" d="M19.4493 4.02457C19.3589 3.25697 19.3136 2.87317 19.07 2.6282C19.0411 2.59914 19.0105 2.57189 18.9782 2.54659C18.7064 2.33333 18.32 2.33333 17.547 2.33333H15.4528C14.68 2.33333 14.2937 2.33333 14.0219 2.54651C13.9896 2.57186 13.9588 2.59917 13.9299 2.62829C13.6864 2.87325 13.6411 3.25697 13.5507 4.02442C13.3919 5.37139 13.3126 6.04488 12.8678 6.29401C12.817 6.32247 12.7638 6.34643 12.7089 6.36564C12.2276 6.53373 11.6705 6.147 10.5564 5.37355L9.98438 4.97646C9.37741 4.55509 9.07393 4.34441 8.73447 4.36085C8.39501 4.37729 8.1133 4.61631 7.54989 5.09435L6.18025 6.25647C5.68355 6.67792 5.43519 6.88864 5.34607 7.14946C5.28546 7.32681 5.27592 7.51762 5.31852 7.70013C5.38117 7.96855 5.60726 8.203 6.05942 8.67192C6.87951 9.52238 7.28955 9.94761 7.2995 10.3363C7.30616 10.5961 7.21137 10.8483 7.03523 11.0395C6.77178 11.3254 6.18317 11.3754 5.00595 11.4752L4.49249 11.5188C3.7094 11.5853 3.31785 11.6185 3.06402 11.8578C3.02919 11.8906 2.99676 11.9259 2.96699 11.9634C2.75 12.2366 2.75 12.6295 2.75 13.4154L2.75 14.5847C2.75 15.3705 2.75 15.7634 2.96691 16.0365C2.99673 16.074 3.02922 16.1094 3.06411 16.1423C3.31792 16.3815 3.70939 16.4147 4.49234 16.4812L5.00587 16.5247C6.18271 16.6246 6.77113 16.6745 7.03456 16.9603C7.21085 17.1515 7.3057 17.4039 7.29898 17.6639C7.28894 18.0524 6.87903 18.4775 6.05921 19.3277C5.60719 19.7965 5.38117 20.0309 5.3185 20.2992C5.27584 20.4818 5.28539 20.6727 5.34606 20.8502C5.4352 21.1109 5.68348 21.3215 6.18002 21.7429L7.54983 22.9051C8.11324 23.3832 8.39494 23.6222 8.73441 23.6386C9.07387 23.6551 9.37735 23.4444 9.98432 23.023L10.556 22.6261C11.6704 21.8525 12.2276 21.4657 12.709 21.6339C12.7638 21.6531 12.8169 21.677 12.8676 21.7054C13.3125 21.9545 13.3919 22.6281 13.5507 23.9754C13.6411 24.743 13.6864 25.1268 13.93 25.3718C13.9589 25.4009 13.9895 25.4281 14.0218 25.4534C14.2936 25.6667 14.68 25.6667 15.453 25.6667H17.5469C18.32 25.6667 18.7065 25.6667 18.9783 25.4533C19.0105 25.4281 19.0411 25.4009 19.0699 25.3719C19.3136 25.1269 19.3589 24.743 19.4493 23.9752C19.6082 22.6277 19.6876 21.9539 20.1326 21.7048C20.1832 21.6765 20.2362 21.6526 20.2909 21.6335C20.7723 21.4651 21.3296 21.852 22.4443 22.6258L23.0156 23.0225C23.6226 23.4439 23.9261 23.6545 24.2655 23.6381C24.605 23.6217 24.8867 23.3826 25.4501 22.9046L26.8201 21.7422C27.3165 21.321 27.5647 21.1104 27.6538 20.8498C27.7146 20.6723 27.7241 20.4812 27.6814 20.2985C27.6187 20.0303 27.3928 19.796 26.9409 19.3273C26.1214 18.4775 25.7116 18.0525 25.7015 17.6641C25.6947 17.4039 25.7896 17.1514 25.966 16.9601C26.2294 16.6745 26.8177 16.6246 27.9941 16.5247L28.5078 16.4812C29.2906 16.4147 29.682 16.3815 29.9358 16.1424C29.9708 16.1094 30.0033 16.074 30.0332 16.0364C30.25 15.7633 30.25 15.3705 30.25 14.5849V13.4153C30.25 12.6295 30.25 12.2366 30.0331 11.9635C30.0033 11.9259 29.9708 11.8906 29.9359 11.8577C29.6821 11.6185 29.2906 11.5853 28.5076 11.5188L27.994 11.4752C26.8172 11.3754 26.2288 11.3255 25.9654 11.0397C25.7891 10.8485 25.6942 10.5961 25.7009 10.3361C25.711 9.94754 26.1209 9.52246 26.9407 8.67228C27.3927 8.20352 27.6187 7.96915 27.6814 7.70083C27.7241 7.51821 27.7145 7.32728 27.6538 7.14983C27.5647 6.88911 27.3164 6.67846 26.8199 6.25715L25.4501 5.09488C24.8867 4.61684 24.6049 4.37781 24.2655 4.36137C23.926 4.34494 23.6225 4.55562 23.0156 4.97698L22.4439 5.37383C21.3295 6.14745 20.7724 6.53425 20.291 6.36603C20.2362 6.34686 20.1831 6.32295 20.1324 6.29456C19.6875 6.04545 19.6081 5.37182 19.4493 4.02457Z" fill="#7E869E" fill-opacity="0.25"/>
<ellipse cx="16.5" cy="14" rx="4.125" ry="3.5" fill="#222222"/>
</svg>
