<svg width="35" height="36" viewBox="0 0 35 36" fill="none" xmlns="http://www.w3.org/2000/svg">
<path fill-rule="evenodd" clip-rule="evenodd" d="M10.6534 4.25602L20.7509 2.62393C23.9821 2.10166 25.5977 1.84052 26.653 2.73892C27.7083 3.63732 27.7083 5.2739 27.7083 8.54705V16.9994H18.0863L22.6643 11.1133L21.0856 9.88545L15.2523 17.3854L14.7748 17.9994L15.2523 18.6133L21.0856 26.1133L22.6643 24.8854L18.0863 18.9994H27.7083V27.4517C27.7083 30.7249 27.7083 32.3615 26.653 33.2599C25.5977 34.1583 23.9821 33.8971 20.7509 33.3748L10.6534 31.7428C9.04839 31.4833 8.24589 31.3536 7.76876 30.7932C7.29163 30.2327 7.29163 29.4198 7.29163 27.794V8.20477C7.29163 6.57895 7.29163 5.76604 7.76876 5.20559C8.24589 4.64515 9.04839 4.51544 10.6534 4.25602Z" fill="#222222"/>
</svg>
