<svg width="35" height="36" viewBox="0 0 35 36" fill="none" xmlns="http://www.w3.org/2000/svg">
<ellipse cx="12" cy="11.6667" rx="12" ry="11.6667" transform="matrix(4.24972e-08 -1 -1 -4.49603e-08 32.0834 30)" fill="#7E869E" fill-opacity="0.25"/>
<path d="M8.45004 18C8.45004 11.2149 13.7998 5.7 20.4167 5.7C27.0336 5.7 32.3834 11.2149 32.3834 18C32.3834 24.7851 27.0336 30.3 20.4167 30.3C13.7998 30.3 8.45004 24.7851 8.45004 18Z" stroke="#7E869E" stroke-opacity="0.25" stroke-width="0.6"/>
<path d="M7.18807 28.6066C9.22758 30.7044 11.8261 32.133 14.655 32.7118C17.4839 33.2906 20.4161 32.9935 23.0808 31.8582C25.7456 30.7229 28.0232 28.8003 29.6256 26.3336C31.2281 23.8668 32.0834 20.9667 32.0834 18C32.0834 15.0333 31.2281 12.1332 29.6256 9.66645C28.0232 7.19971 25.7456 5.27712 23.0808 4.14181C20.4161 3.00649 17.4839 2.70944 14.655 3.28822C11.8261 3.867 9.22758 5.29561 7.18807 7.3934" stroke="#222222" stroke-width="1.2"/>
<path d="M21.875 18L22.3486 17.6316L22.6351 18L22.3486 18.3684L21.875 18ZM4.375 18.6C4.04363 18.6 3.775 18.3314 3.775 18C3.775 17.6686 4.04363 17.4 4.375 17.4V18.6ZM16.5153 10.1316L22.3486 17.6316L21.4014 18.3684L15.5681 10.8684L16.5153 10.1316ZM22.3486 18.3684L16.5153 25.8684L15.5681 25.1316L21.4014 17.6316L22.3486 18.3684ZM21.875 18.6H4.375V17.4H21.875V18.6Z" fill="#222222"/>
</svg>
