<svg width="35" height="36" viewBox="0 0 35 36" fill="none" xmlns="http://www.w3.org/2000/svg">
<path d="M2.91663 18L2.52195 17.693L2.2832 18L2.52195 18.307L2.91663 18ZM16.0416 18.5C16.3178 18.5 16.5416 18.2761 16.5416 18C16.5416 17.7239 16.3178 17.5 16.0416 17.5V18.5ZM8.35528 10.193L2.52195 17.693L3.3113 18.307L9.14464 10.807L8.35528 10.193ZM2.52195 18.307L8.35528 25.807L9.14464 25.193L3.3113 17.693L2.52195 18.307ZM2.91663 18.5H16.0416V17.5H2.91663V18.5Z" fill="#222222"/>
<path d="M14.5834 12.1979V9.37263C14.5834 7.76133 14.5834 6.95568 15.0543 6.3971C15.5253 5.83852 16.3194 5.7024 17.9075 5.43015L25.0696 4.20236C28.3239 3.64449 29.951 3.36555 31.0172 4.26451C32.0834 5.16346 32.0834 6.81434 32.0834 10.1161V25.8839C32.0834 29.1857 32.0834 30.8365 31.0172 31.7355C29.951 32.6345 28.3239 32.3555 25.0696 31.7976L17.9075 30.5699C16.3194 30.2976 15.5253 30.1615 15.0543 29.6029C14.5834 29.0443 14.5834 28.2387 14.5834 26.6274V24.099" stroke="#222222"/>
</svg>
