<svg width="35" height="36" viewBox="0 0 35 36" fill="none" xmlns="http://www.w3.org/2000/svg">
<path d="M10.2084 10.6979V7.6307C10.2084 5.47698 10.2084 4.40011 10.901 3.80183C11.5936 3.20355 12.659 3.3601 14.7899 3.6732L25.4973 5.24654C27.9428 5.60588 29.1656 5.78555 29.8953 6.63033C30.625 7.4751 30.625 8.711 30.625 11.1828V24.8172C30.625 27.289 30.625 28.5249 29.8953 29.3697C29.1656 30.2144 27.9428 30.3941 25.4973 30.7535L14.7899 32.3268C12.659 32.6399 11.5936 32.7965 10.901 32.1982C10.2084 31.5999 10.2084 30.523 10.2084 28.3693V25.599" stroke="#222222"/>
<path d="M23.3334 18L23.7281 17.693L23.9668 18L23.7281 18.307L23.3334 18ZM5.83337 18.5C5.55723 18.5 5.33337 18.2761 5.33337 18C5.33337 17.7239 5.55723 17.5 5.83337 17.5V18.5ZM17.8947 10.193L23.7281 17.693L22.9387 18.307L17.1054 10.807L17.8947 10.193ZM23.7281 18.307L17.8947 25.807L17.1054 25.193L22.9387 17.693L23.7281 18.307ZM23.3334 18.5H5.83337V17.5H23.3334V18.5Z" fill="#222222"/>
</svg>
