<svg width="35" height="36" viewBox="0 0 35 36" fill="none" xmlns="http://www.w3.org/2000/svg">
<path fill-rule="evenodd" clip-rule="evenodd" d="M24.3465 4.25602L14.249 2.62393C11.0178 2.10166 9.40217 1.84052 8.3469 2.73892C7.29163 3.63732 7.29163 5.2739 7.29163 8.54705V17H16.9137L12.3356 11.114L13.9143 9.88607L19.7476 17.3861L20.2252 18L19.7476 18.614L13.9143 26.114L12.3356 24.8861L16.9137 19H7.29163V27.4517C7.29163 30.7249 7.29163 32.3615 8.3469 33.2599C9.40217 34.1583 11.0178 33.8971 14.249 33.3748L24.3465 31.7428C25.9515 31.4833 26.754 31.3536 27.2312 30.7932C27.7083 30.2327 27.7083 29.4198 27.7083 27.794V8.20477C27.7083 6.57895 27.7083 5.76604 27.2312 5.20559C26.754 4.64515 25.9515 4.51544 24.3465 4.25602Z" fill="#222222"/>
</svg>
