<svg width="35" height="36" viewBox="0 0 35 36" fill="none" xmlns="http://www.w3.org/2000/svg">
<path d="M19.5696 5.14522L25.0696 4.20236C28.3239 3.64449 29.951 3.36555 31.0172 4.26451C32.0834 5.16346 32.0834 6.81434 32.0834 10.1161V10.6979V25.599V25.8839C32.0834 29.1857 32.0834 30.8365 31.0172 31.7355C29.951 32.6345 28.3239 32.3555 25.0696 31.7976L19.5696 30.8548C17.1874 30.4464 15.9963 30.2422 15.2898 29.4043C14.5834 28.5665 14.5834 27.358 14.5834 24.941V11.059C14.5834 8.642 14.5834 7.43353 15.2898 6.59566C15.9963 5.75779 17.1874 5.5536 19.5696 5.14522Z" fill="#7E869E" fill-opacity="0.25"/>
<path d="M4.375 18L3.90139 17.6316L3.61488 18L3.90139 18.3684L4.375 18ZM17.5 18.6C17.8314 18.6 18.1 18.3314 18.1 18C18.1 17.6686 17.8314 17.4 17.5 17.4V18.6ZM9.73472 10.1316L3.90139 17.6316L4.84861 18.3684L10.6819 10.8684L9.73472 10.1316ZM3.90139 18.3684L9.73472 25.8684L10.6819 25.1316L4.84861 17.6316L3.90139 18.3684ZM4.375 18.6H17.5V17.4H4.375V18.6Z" fill="#222222"/>
</svg>
