<svg width="35" height="36" viewBox="0 0 35 36" fill="none" xmlns="http://www.w3.org/2000/svg">
<ellipse cx="9" cy="8.75" rx="9" ry="8.75" transform="matrix(4.24972e-08 -1 -1 -4.49603e-08 29.1666 27)" fill="#7E869E" fill-opacity="0.25"/>
<path d="M11.3666 18C11.3666 12.8718 15.4105 8.7 20.4166 8.7C25.4227 8.7 29.4666 12.8718 29.4666 18C29.4666 23.1282 25.4227 27.3 20.4166 27.3C15.4105 27.3 11.3666 23.1282 11.3666 18Z" stroke="#7E869E" stroke-opacity="0.25" stroke-width="0.6"/>
<path d="M11.6666 28.3923C13.4402 29.4455 15.452 30 17.5 30C19.5479 30 21.5597 29.4455 23.3333 28.3923C25.1068 27.3391 26.5796 25.8242 27.6036 24C28.6276 22.1758 29.1666 20.1064 29.1666 18C29.1666 15.8936 28.6276 13.8242 27.6036 12C26.5796 10.1758 25.1069 8.66092 23.3333 7.6077C21.5597 6.55448 19.5479 6 17.5 6C15.452 6 13.4402 6.55447 11.6666 7.60769" stroke="#222222" stroke-width="1.2"/>
<path d="M2.91663 18L2.44301 17.6316L2.15651 18L2.44301 18.3684L2.91663 18ZM16.0416 18.6C16.373 18.6 16.6416 18.3314 16.6416 18C16.6416 17.6686 16.373 17.4 16.0416 17.4V18.6ZM8.27635 10.1316L2.44301 17.6316L3.39024 18.3684L9.22357 10.8684L8.27635 10.1316ZM2.44301 18.3684L8.27635 25.8684L9.22357 25.1316L3.39024 17.6316L2.44301 18.3684ZM2.91663 18.6H16.0416V17.4H2.91663V18.6Z" fill="#222222"/>
</svg>
