<svg width="35" height="36" viewBox="0 0 35 36" fill="none" xmlns="http://www.w3.org/2000/svg">
<path d="M10.2084 10.6979V7.6307C10.2084 5.47698 10.2084 4.40011 10.901 3.80183C11.5936 3.20355 12.659 3.3601 14.7899 3.6732L25.4973 5.24654C27.9428 5.60588 29.1656 5.78555 29.8953 6.63033C30.625 7.4751 30.625 8.711 30.625 11.1828V24.8172C30.625 27.289 30.625 28.5249 29.8953 29.3697C29.1656 30.2144 27.9428 30.3941 25.4973 30.7535L14.7899 32.3268C12.659 32.6399 11.5936 32.7965 10.901 32.1982C10.2084 31.5999 10.2084 30.523 10.2084 28.3693V25.599" stroke="#33363F" stroke-width="2"/>
<path d="M23.3334 18L24.1227 17.3861L24.6002 18L24.1227 18.6139L23.3334 18ZM5.83337 19C5.28109 19 4.83337 18.5523 4.83337 18C4.83337 17.4477 5.28109 17 5.83337 17V19ZM18.2894 9.88606L24.1227 17.3861L22.544 18.6139L16.7107 11.1139L18.2894 9.88606ZM24.1227 18.6139L18.2894 26.1139L16.7107 24.8861L22.544 17.3861L24.1227 18.6139ZM23.3334 19H5.83337V17H23.3334V19Z" fill="#33363F"/>
</svg>
