<svg width="35" height="36" viewBox="0 0 35 36" fill="none" xmlns="http://www.w3.org/2000/svg">
<path d="M11.6666 28.3923C13.4402 29.4455 15.452 30 17.5 30C19.5479 30 21.5597 29.4455 23.3333 28.3923C25.1068 27.3391 26.5796 25.8242 27.6036 24C28.6276 22.1758 29.1666 20.1064 29.1666 18C29.1666 15.8936 28.6276 13.8242 27.6036 12C26.5796 10.1758 25.1069 8.66092 23.3333 7.6077C21.5597 6.55448 19.5479 6 17.5 6C15.452 6 13.4402 6.55447 11.6666 7.60769" stroke="#222222"/>
<path d="M2.91663 18L2.52195 17.693L2.2832 18L2.52195 18.307L2.91663 18ZM16.0416 18.5C16.3178 18.5 16.5416 18.2761 16.5416 18C16.5416 17.7239 16.3178 17.5 16.0416 17.5V18.5ZM8.35528 10.193L2.52195 17.693L3.3113 18.307L9.14464 10.807L8.35528 10.193ZM2.52195 18.307L8.35528 25.807L9.14464 25.193L3.3113 17.693L2.52195 18.307ZM2.91663 18.5H16.0416V17.5H2.91663V18.5Z" fill="#222222"/>
</svg>
