<svg width="35" height="36" viewBox="0 0 35 36" fill="none" xmlns="http://www.w3.org/2000/svg">
<path d="M7.18807 28.6066C9.22758 30.7044 11.8261 32.133 14.655 32.7118C17.4839 33.2906 20.4161 32.9935 23.0808 31.8582C25.7456 30.7229 28.0232 28.8003 29.6256 26.3336C31.2281 23.8668 32.0834 20.9667 32.0834 18C32.0834 15.0333 31.2281 12.1332 29.6256 9.66645C28.0232 7.19971 25.7456 5.27712 23.0808 4.14181C20.4161 3.00649 17.4839 2.70944 14.655 3.28822C11.8261 3.867 9.22758 5.29561 7.18807 7.3934" stroke="#222222"/>
<path d="M21.875 18L22.2697 17.693L22.5084 18L22.2697 18.307L21.875 18ZM4.375 18.5C4.09886 18.5 3.875 18.2761 3.875 18C3.875 17.7239 4.09886 17.5 4.375 17.5V18.5ZM16.4363 10.193L22.2697 17.693L21.4803 18.307L15.647 10.807L16.4363 10.193ZM22.2697 18.307L16.4363 25.807L15.647 25.193L21.4803 17.693L22.2697 18.307ZM21.875 18.5H4.375V17.5H21.875V18.5Z" fill="#222222"/>
</svg>
