<svg width="35" height="36" viewBox="0 0 35 36" fill="none" xmlns="http://www.w3.org/2000/svg">
<path d="M7.18807 28.6066C9.22758 30.7044 11.8261 32.133 14.655 32.7118C17.4839 33.2906 20.4161 32.9935 23.0808 31.8582C25.7456 30.7229 28.0232 28.8003 29.6256 26.3336C31.2281 23.8668 32.0834 20.9667 32.0834 18C32.0834 15.0333 31.2281 12.1332 29.6256 9.66645C28.0232 7.19971 25.7456 5.27712 23.0808 4.14181C20.4161 3.00649 17.4839 2.70944 14.655 3.28822C11.8261 3.867 9.22758 5.29561 7.18807 7.3934" stroke="#33363F" stroke-width="2"/>
<path d="M21.875 18L22.6644 17.3861L23.1419 18L22.6644 18.6139L21.875 18ZM4.375 19C3.82272 19 3.375 18.5523 3.375 18C3.375 17.4477 3.82272 17 4.375 17V19ZM16.831 9.88606L22.6644 17.3861L21.0856 18.6139L15.2523 11.1139L16.831 9.88606ZM22.6644 18.6139L16.831 26.1139L15.2523 24.8861L21.0856 17.3861L22.6644 18.6139ZM21.875 19H4.375V17H21.875V19Z" fill="#33363F"/>
</svg>
