<svg width="35" height="36" viewBox="0 0 35 36" fill="none" xmlns="http://www.w3.org/2000/svg">
<path d="M2.91663 18L2.12727 17.3861L1.64976 18L2.12727 18.6139L2.91663 18ZM16.0416 19C16.5939 19 17.0416 18.5523 17.0416 18C17.0416 17.4477 16.5939 17 16.0416 17V19ZM7.96061 9.88606L2.12727 17.3861L3.70598 18.6139L9.53931 11.1139L7.96061 9.88606ZM2.12727 18.6139L7.96061 26.1139L9.53931 24.8861L3.70598 17.3861L2.12727 18.6139ZM2.91663 19H16.0416V17H2.91663V19Z" fill="#33363F"/>
<path d="M14.5834 12.1979V9.37263C14.5834 7.76133 14.5834 6.95568 15.0543 6.3971C15.5253 5.83852 16.3194 5.7024 17.9075 5.43015L25.0696 4.20236C28.3239 3.64449 29.951 3.36555 31.0172 4.26451C32.0834 5.16346 32.0834 6.81434 32.0834 10.1161V25.8839C32.0834 29.1857 32.0834 30.8365 31.0172 31.7355C29.951 32.6345 28.3239 32.3555 25.0696 31.7976L17.9075 30.5699C16.3194 30.2976 15.5253 30.1615 15.0543 29.6029C14.5834 29.0443 14.5834 28.2387 14.5834 26.6274V24.099" stroke="#33363F" stroke-width="2"/>
</svg>
