<svg width="35" height="36" viewBox="0 0 35 36" fill="none" xmlns="http://www.w3.org/2000/svg">
<path d="M11.6666 28.3923C13.4402 29.4455 15.452 30 17.5 30C19.5479 30 21.5597 29.4455 23.3333 28.3923C25.1068 27.3391 26.5796 25.8242 27.6036 24C28.6276 22.1758 29.1666 20.1064 29.1666 18C29.1666 15.8936 28.6276 13.8242 27.6036 12C26.5796 10.1758 25.1069 8.66092 23.3333 7.6077C21.5597 6.55448 19.5479 6 17.5 6C15.452 6 13.4402 6.55447 11.6666 7.60769" stroke="#33363F" stroke-width="2"/>
<path d="M2.91663 18L2.12727 17.3861L1.64976 18L2.12727 18.6139L2.91663 18ZM16.0416 19C16.5939 19 17.0416 18.5523 17.0416 18C17.0416 17.4477 16.5939 17 16.0416 17V19ZM7.96061 9.88606L2.12727 17.3861L3.70598 18.6139L9.53931 11.1139L7.96061 9.88606ZM2.12727 18.6139L7.96061 26.1139L9.53931 24.8861L3.70598 17.3861L2.12727 18.6139ZM2.91663 19H16.0416V17H2.91663V19Z" fill="#33363F"/>
</svg>
