<svg width="24" height="27" viewBox="0 0 24 27" fill="none" xmlns="http://www.w3.org/2000/svg">
<path fill-rule="evenodd" clip-rule="evenodd" d="M7.32409 14.625H6C4.34315 14.625 3 13.114 3 11.25C3 9.38604 4.34315 7.875 6 7.875C6.26458 7.875 6.39688 7.875 6.49124 7.85669C6.80877 7.79507 6.98389 7.67371 7.15306 7.39803C7.20334 7.3161 7.26592 7.14921 7.39107 6.81545C8.14906 4.79391 9.92724 3.375 12 3.375C14.1922 3.375 16.0548 4.96211 16.7296 7.17066C16.8523 7.57205 17.2053 7.875 17.625 7.875C19.489 7.875 21 9.38604 21 11.25C21 13.114 19.489 14.625 17.625 14.625H16.6759L13.4948 11.0463L12 9.3646L10.5052 11.0463L7.32409 14.625Z" fill="#222222"/>
<path d="M12 13.5L11.2526 12.8356L12 11.9948L12.7474 12.8356L12 13.5ZM13 23.625C13 24.1773 12.5523 24.625 12 24.625C11.4477 24.625 11 24.1773 11 23.625L13 23.625ZM7.25259 17.3356L11.2526 12.8356L12.7474 14.1644L8.74741 18.6644L7.25259 17.3356ZM12.7474 12.8356L16.7474 17.3356L15.2526 18.6644L11.2526 14.1644L12.7474 12.8356ZM13 13.5L13 23.625L11 23.625L11 13.5L13 13.5Z" fill="#222222"/>
</svg>
