<svg width="24" height="27" viewBox="0 0 24 27" fill="none" xmlns="http://www.w3.org/2000/svg">
<path fill-rule="evenodd" clip-rule="evenodd" d="M6 14.625H12H17.625C19.489 14.625 21 13.114 21 11.25C21 9.38604 19.489 7.875 17.625 7.875C17.2053 7.875 16.8523 7.57205 16.7296 7.17066C16.0548 4.96211 14.1922 3.375 12 3.375C9.92724 3.375 8.14906 4.79391 7.39107 6.81545C7.26592 7.14921 7.20334 7.3161 7.15306 7.39803C6.98389 7.67371 6.80877 7.79507 6.49124 7.85669C6.39688 7.875 6.26458 7.875 6 7.875C4.34315 7.875 3 9.38604 3 11.25C3 13.114 4.34315 14.625 6 14.625Z" fill="#7E869E" fill-opacity="0.25"/>
<path d="M9.5 12.9375L12 10.125M12 10.125L14.5 12.9375M12 10.125L12 21.375" stroke="#222222" stroke-linecap="round"/>
</svg>
