<svg width="24" height="27" viewBox="0 0 24 27" fill="none" xmlns="http://www.w3.org/2000/svg">
<path fill-rule="evenodd" clip-rule="evenodd" d="M12 2.875C9.684 2.875 7.74104 4.45796 6.9229 6.6399C6.85945 6.80912 6.81487 6.92791 6.77992 7.01506C6.76267 7.05806 6.74966 7.08859 6.7396 7.11046C6.73072 7.12978 6.72649 7.13716 6.72651 7.13717C6.66538 7.23665 6.62317 7.27575 6.59298 7.29668C6.56273 7.31764 6.51113 7.3435 6.396 7.36584C6.36158 7.37252 6.29249 7.375 6 7.375C4.01327 7.375 2.5 9.16689 2.5 11.25C2.5 13.3331 4.01327 15.125 6 15.125H6.87965L7.76853 14.125H6C4.67302 14.125 3.5 12.8948 3.5 11.25C3.5 9.60519 4.67302 8.375 6 8.375L6.0504 8.37503H6.05041C6.26457 8.37519 6.44327 8.37532 6.58649 8.34753C6.78888 8.30826 6.98361 8.24263 7.16259 8.11859C7.34157 7.99455 7.47139 7.83526 7.57922 7.65954C7.62879 7.57878 7.67046 7.48104 7.70806 7.38729C7.74775 7.28831 7.79632 7.15879 7.85695 6.99708L7.85924 6.99099C8.55709 5.12987 10.1705 3.875 12 3.875C13.9341 3.875 15.629 5.27952 16.2515 7.31676C16.4279 7.89435 16.9518 8.375 17.625 8.375C19.2128 8.375 20.5 9.66218 20.5 11.25C20.5 12.8378 19.2128 14.125 17.625 14.125H16.2315L17.1204 15.125H17.625C19.7651 15.125 21.5 13.3901 21.5 11.25C21.5 9.1099 19.7651 7.375 17.625 7.375C17.4588 7.375 17.2766 7.24975 17.2078 7.02456C16.4807 4.64469 14.4502 2.875 12 2.875Z" fill="#222222"/>
<path d="M12 13.5L11.6263 13.1678L12 12.7474L12.3737 13.1678L12 13.5ZM12.5 23.625C12.5 23.9011 12.2761 24.125 12 24.125C11.7239 24.125 11.5 23.9011 11.5 23.625L12.5 23.625ZM7.6263 17.6678L11.6263 13.1678L12.3737 13.8322L8.3737 18.3322L7.6263 17.6678ZM12.3737 13.1678L16.3737 17.6678L15.6263 18.3322L11.6263 13.8322L12.3737 13.1678ZM12.5 13.5L12.5 23.625L11.5 23.625L11.5 13.5L12.5 13.5Z" fill="#222222"/>
</svg>
