<svg width="24" height="27" viewBox="0 0 24 27" fill="none" xmlns="http://www.w3.org/2000/svg">
<mask id="path-1-outside-1_34_168" maskUnits="userSpaceOnUse" x="2" y="2.375" width="20" height="13" fill="black">
<rect fill="white" x="2" y="2.375" width="20" height="13"/>
<path fill-rule="evenodd" clip-rule="evenodd" d="M6 14.625H12H17.625C19.489 14.625 21 13.114 21 11.25C21 9.38604 19.489 7.875 17.625 7.875C17.2053 7.875 16.8523 7.57205 16.7296 7.17066C16.0548 4.96211 14.1922 3.375 12 3.375C9.92724 3.375 8.14906 4.79391 7.39107 6.81545C7.26592 7.14921 7.20334 7.3161 7.15306 7.39803C6.98389 7.67371 6.80877 7.79507 6.49124 7.85669C6.39688 7.875 6.26458 7.875 6 7.875C4.34315 7.875 3 9.38604 3 11.25C3 13.114 4.34315 14.625 6 14.625Z"/>
</mask>
<path fill-rule="evenodd" clip-rule="evenodd" d="M6 14.625H12H17.625C19.489 14.625 21 13.114 21 11.25C21 9.38604 19.489 7.875 17.625 7.875C17.2053 7.875 16.8523 7.57205 16.7296 7.17066C16.0548 4.96211 14.1922 3.375 12 3.375C9.92724 3.375 8.14906 4.79391 7.39107 6.81545C7.26592 7.14921 7.20334 7.3161 7.15306 7.39803C6.98389 7.67371 6.80877 7.79507 6.49124 7.85669C6.39688 7.875 6.26458 7.875 6 7.875C4.34315 7.875 3 9.38604 3 11.25C3 13.114 4.34315 14.625 6 14.625Z" fill="#7E869E" fill-opacity="0.25"/>
<path d="M7.15306 7.39803L6.64167 7.08421L7.15306 7.39803ZM6.49124 7.85669L6.37695 7.26768L6.49124 7.85669ZM16.7296 7.17066L16.1558 7.34598L16.7296 7.17066ZM12 14.025H6V15.225H12V14.025ZM17.625 14.025H12V15.225H17.625V14.025ZM20.4 11.25C20.4 12.7826 19.1576 14.025 17.625 14.025V15.225C19.8203 15.225 21.6 13.4453 21.6 11.25H20.4ZM17.625 8.475C19.1576 8.475 20.4 9.71741 20.4 11.25H21.6C21.6 9.05467 19.8203 7.275 17.625 7.275V8.475ZM17.3035 6.99534C16.5658 4.58121 14.5018 2.775 12 2.775V3.975C13.8825 3.975 15.5438 5.343 16.1558 7.34598L17.3035 6.99534ZM12 2.775C9.63535 2.775 7.65943 4.39077 6.82926 6.60479L7.95287 7.0261C8.63869 5.19706 10.2191 3.975 12 3.975V2.775ZM6 7.275C3.94729 7.275 2.4 9.12306 2.4 11.25H3.6C3.6 9.64902 4.739 8.475 6 8.475V7.275ZM2.4 11.25C2.4 13.3769 3.94729 15.225 6 15.225V14.025C4.739 14.025 3.6 12.851 3.6 11.25H2.4ZM6.82926 6.60479C6.76564 6.77447 6.72153 6.892 6.6871 6.97784C6.64956 7.07145 6.6375 7.09101 6.64167 7.08421L7.66445 7.71185C7.7189 7.62312 7.76327 7.51827 7.80087 7.42452C7.84159 7.32299 7.89135 7.19019 7.95287 7.0261L6.82926 6.60479ZM6 8.475C6.2311 8.475 6.43923 8.47797 6.60554 8.4457L6.37695 7.26768C6.37795 7.26748 6.35976 7.27098 6.29184 7.27297C6.22478 7.27494 6.13593 7.275 6 7.275V8.475ZM6.64167 7.08421C6.58498 7.1766 6.5514 7.20382 6.53602 7.21448C6.52064 7.22514 6.48336 7.24703 6.37695 7.26768L6.60554 8.4457C6.81665 8.40474 7.0257 8.33513 7.21955 8.20078C7.4134 8.06644 7.55197 7.89514 7.66445 7.71185L6.64167 7.08421ZM17.625 7.275C17.5095 7.275 17.3615 7.18529 17.3035 6.99534L16.1558 7.34598C16.3431 7.95881 16.901 8.475 17.625 8.475V7.275Z" fill="#7E869E" fill-opacity="0.25" mask="url(#path-1-outside-1_34_168)"/>
<path fill-rule="evenodd" clip-rule="evenodd" d="M12 2.775C9.63538 2.775 7.65946 4.39077 6.82929 6.60479C6.76566 6.77448 6.72155 6.892 6.68713 6.97784C6.65912 7.04768 6.64529 7.07631 6.64181 7.08351C6.64118 7.08482 6.64089 7.08543 6.64091 7.08544L6.6417 7.08421C6.58501 7.1766 6.55143 7.20383 6.53604 7.21449C6.52066 7.22514 6.48338 7.24703 6.37697 7.26768C6.37703 7.26767 6.37702 7.26767 6.37695 7.26768C6.37579 7.26787 6.356 7.27109 6.29186 7.27297C6.22481 7.27494 6.13595 7.275 6.00002 7.275C3.94732 7.275 2.40002 9.12306 2.40002 11.25C2.40002 13.3769 3.94732 15.225 6.00002 15.225H6.79078L7.85745 14.025H6.00002C4.73903 14.025 3.60002 12.851 3.60002 11.25C3.60002 9.64902 4.73903 8.475 6.00002 8.475L6.05398 8.47504C6.26352 8.47525 6.4523 8.47544 6.60556 8.4457C6.81668 8.40474 7.02572 8.33513 7.21957 8.20078C7.41343 8.06644 7.552 7.89514 7.66448 7.71185C7.71893 7.62312 7.7633 7.51827 7.80089 7.42452C7.84101 7.32449 7.8899 7.19411 7.95017 7.03336L7.9529 7.0261C8.63872 5.19706 10.2192 3.975 12 3.975C13.8825 3.975 15.5439 5.34301 16.1558 7.34599C16.3431 7.95882 16.9011 8.475 17.625 8.475C19.1576 8.475 20.4 9.71741 20.4 11.25C20.4 12.7826 19.1576 14.025 17.625 14.025H16.1426L17.2093 15.225H17.625C19.8204 15.225 21.6 13.4453 21.6 11.25C21.6 9.05467 19.8204 7.275 17.625 7.275C17.5096 7.275 17.3615 7.1853 17.3035 6.99534C16.5659 4.58121 14.5019 2.775 12 2.775Z" fill="#222222"/>
<path d="M12 13.5L11.5516 13.1014L12 12.5969L12.4484 13.1014L12 13.5ZM12.6 23.625C12.6 23.9564 12.3314 24.225 12 24.225C11.6686 24.225 11.4 23.9564 11.4 23.625L12.6 23.625ZM7.55155 17.6014L11.5516 13.1014L12.4484 13.8986L8.44845 18.3986L7.55155 17.6014ZM12.4484 13.1014L16.4484 17.6014L15.5516 18.3986L11.5516 13.8986L12.4484 13.1014ZM12.6 13.5L12.6 23.625L11.4 23.625L11.4 13.5L12.6 13.5Z" fill="#222222"/>
</svg>
