<svg width="24" height="27" viewBox="0 0 24 27" fill="none" xmlns="http://www.w3.org/2000/svg">
<path fill-rule="evenodd" clip-rule="evenodd" d="M12 2.375C9.44076 2.375 7.33302 4.12201 6.45473 6.46435C6.3904 6.6359 6.34818 6.74833 6.31585 6.82894C6.30868 6.84683 6.30278 6.86115 6.29799 6.87252L6.2801 6.87314C6.2203 6.8749 6.13835 6.875 6 6.875C3.68339 6.875 2 8.94774 2 11.25C2 13.5523 3.68339 15.625 6 15.625H6.4352L8.21298 13.625H6C5.0029 13.625 4 12.6757 4 11.25C4 9.82434 5.0029 8.875 6 8.875L6.06044 8.87509C6.25726 8.87552 6.48771 8.87603 6.68174 8.83838C6.92775 8.79064 7.19405 8.70512 7.44739 8.52955C7.70074 8.35397 7.8743 8.13465 8.00538 7.92106C8.07937 7.80049 8.13451 7.66721 8.17213 7.57341C8.21396 7.46911 8.26421 7.33508 8.32323 7.17768L8.32741 7.16654C8.96511 5.46582 10.4137 4.375 12 4.375C13.676 4.375 15.2032 5.59694 15.7733 7.46287C16.0036 8.21665 16.6982 8.875 17.625 8.875C18.9367 8.875 20 9.93832 20 11.25C20 12.5617 18.9367 13.625 17.625 13.625H15.787L17.5648 15.625H17.625C20.0412 15.625 22 13.6662 22 11.25C22 8.85381 20.0736 6.90755 17.6851 6.87541C16.9048 4.32572 14.7072 2.375 12 2.375Z" fill="#33363F"/>
<path d="M12 13.5L11.2526 12.8356L12 11.9948L12.7474 12.8356L12 13.5ZM13 23.625C13 24.1773 12.5523 24.625 12 24.625C11.4477 24.625 11 24.1773 11 23.625L13 23.625ZM7.25259 17.3356L11.2526 12.8356L12.7474 14.1644L8.74741 18.6644L7.25259 17.3356ZM12.7474 12.8356L16.7474 17.3356L15.2526 18.6644L11.2526 14.1644L12.7474 12.8356ZM13 13.5L13 23.625L11 23.625L11 13.5L13 13.5Z" fill="#33363F"/>
</svg>
